<svg xmlns="http://www.w3.org/2000/svg" xmlns:xlink="http://www.w3.org/1999/xlink" viewBox="0 0 1270.73 1655.69"><defs><style>.cls-1{fill:#6e453a;}.cls-2{fill:#546c9a;}.cls-10,.cls-11,.cls-14,.cls-15,.cls-18,.cls-25,.cls-28,.cls-3,.cls-31,.cls-34,.cls-37,.cls-4,.cls-40,.cls-43,.cls-46,.cls-49,.cls-62,.cls-64,.cls-65,.cls-66,.cls-67,.cls-68,.cls-69,.cls-70,.cls-71,.cls-72,.cls-73,.cls-74,.cls-9,.cls-95{fill:none;}.cls-3{stroke:#f29252;stroke-width:19px;}.cls-3,.cls-4,.cls-62,.cls-63,.cls-64{stroke-linecap:round;}.cls-10,.cls-11,.cls-14,.cls-15,.cls-18,.cls-25,.cls-28,.cls-3,.cls-31,.cls-34,.cls-37,.cls-4,.cls-40,.cls-43,.cls-46,.cls-49,.cls-62,.cls-63,.cls-65,.cls-66,.cls-67,.cls-68,.cls-69,.cls-70,.cls-71,.cls-72,.cls-73,.cls-74,.cls-9,.cls-95{stroke-miterlimit:10;}.cls-4{stroke:#b84679;stroke-width:72px;}.cls-5{fill:#f29252;}.cls-6{fill:#25598a;}.cls-7{fill:#ffcc7a;}.cls-8{fill:#fab664;}.cls-11,.cls-9{stroke:#ffcc7a;}.cls-9{stroke-width:10px;}.cls-10{stroke:#fff;stroke-width:12px;}.cls-11{stroke-width:16px;}.cls-12{fill:#b84679;}.cls-13{fill:#c9598b;}.cls-14{stroke:#c9598b;}.cls-14,.cls-15{stroke-width:2px;}.cls-15{stroke:#ad4c78;}.cls-16{opacity:0.28;}.cls-17{fill:url(#linear-gradient);}.cls-18,.cls-25,.cls-28,.cls-31,.cls-34,.cls-37,.cls-40,.cls-43,.cls-46,.cls-49,.cls-62,.cls-65,.cls-66,.cls-67,.cls-68,.cls-69,.cls-70,.cls-71,.cls-72,.cls-73,.cls-74,.cls-95{stroke-width:3px;}.cls-18{stroke:url(#linear-gradient-2);}.cls-19{opacity:0.2;}.cls-20{fill:url(#radial-gradient);}.cls-21,.cls-22{fill:#ffdced;}.cls-21{opacity:0.09;}.cls-22{opacity:0.26;}.cls-23{fill:#97d3ff;opacity:0.06;}.cls-24{fill:url(#linear-gradient-3);}.cls-25{stroke:url(#linear-gradient-4);}.cls-26{fill:url(#radial-gradient-2);}.cls-27{fill:url(#linear-gradient-5);}.cls-28{stroke:url(#linear-gradient-6);}.cls-29{fill:url(#radial-gradient-3);}.cls-30{fill:url(#linear-gradient-7);}.cls-31{stroke:url(#linear-gradient-8);}.cls-32{fill:url(#radial-gradient-4);}.cls-33{fill:url(#linear-gradient-9);}.cls-34{stroke:url(#linear-gradient-10);}.cls-35{fill:url(#radial-gradient-5);}.cls-36{fill:url(#linear-gradient-11);}.cls-37{stroke:url(#linear-gradient-12);}.cls-38{fill:url(#radial-gradient-6);}.cls-39{fill:url(#linear-gradient-13);}.cls-40{stroke:url(#linear-gradient-14);}.cls-41{fill:url(#radial-gradient-7);}.cls-42{fill:url(#linear-gradient-15);}.cls-43{stroke:url(#linear-gradient-16);}.cls-44{fill:url(#radial-gradient-8);}.cls-45{fill:url(#linear-gradient-17);}.cls-46{stroke:url(#linear-gradient-18);}.cls-47{fill:url(#radial-gradient-9);}.cls-48{fill:url(#linear-gradient-19);}.cls-49{stroke:url(#linear-gradient-20);}.cls-50{fill:url(#radial-gradient-10);}.cls-51{fill:#fff;}.cls-52{fill:#1d559f;}.cls-53{clip-path:url(#clip-path);}.cls-54{fill:#4a3128;}.cls-55{fill:#69473b;}.cls-56{fill:#a66548;}.cls-57{clip-path:url(#clip-path-2);}.cls-58{clip-path:url(#clip-path-3);}.cls-59{fill:#c59e8c;}.cls-60{fill:#d65d41;}.cls-61,.cls-63{fill:#ddc8be;}.cls-62{stroke:#ddc8be;}.cls-63{stroke:#4a3128;stroke-width:5px;}.cls-64{stroke:#603813;stroke-linejoin:round;stroke-width:4px;}.cls-65{stroke:url(#linear-gradient-21);}.cls-66{stroke:url(#linear-gradient-22);}.cls-67{stroke:url(#linear-gradient-23);}.cls-68{stroke:url(#linear-gradient-24);}.cls-69{stroke:url(#linear-gradient-25);}.cls-70{stroke:url(#linear-gradient-26);}.cls-71{stroke:url(#linear-gradient-27);}.cls-72{stroke:url(#linear-gradient-28);}.cls-73{stroke:url(#linear-gradient-29);}.cls-74{stroke:url(#linear-gradient-30);}.cls-75{fill:url(#linear-gradient-31);}.cls-76{fill:url(#linear-gradient-32);}.cls-77{fill:url(#linear-gradient-33);}.cls-78{fill:url(#linear-gradient-34);}.cls-79{fill:url(#linear-gradient-35);}.cls-80{fill:url(#linear-gradient-36);}.cls-81{fill:url(#linear-gradient-37);}.cls-82{fill:url(#linear-gradient-38);}.cls-83{fill:url(#linear-gradient-39);}.cls-84{fill:url(#radial-gradient-11);}.cls-85{fill:url(#radial-gradient-12);}.cls-86{fill:url(#radial-gradient-13);}.cls-87{fill:url(#radial-gradient-14);}.cls-88{fill:url(#radial-gradient-15);}.cls-89{fill:url(#radial-gradient-16);}.cls-90{fill:url(#radial-gradient-17);}.cls-91{fill:url(#radial-gradient-18);}.cls-92{fill:url(#radial-gradient-19);}.cls-93{fill:url(#linear-gradient-40);}.cls-94{fill:url(#linear-gradient-41);}.cls-95{stroke:url(#linear-gradient-42);}.cls-96{fill:url(#radial-gradient-20);}</style><linearGradient id="linear-gradient" x1="634.29" y1="629.39" x2="406.69" y2="522.53" gradientUnits="userSpaceOnUse"><stop offset="0" stop-color="#ff7bac"/><stop offset="0.31" stop-color="#6c4491"/><stop offset="0.64" stop-color="#3fa9f5"/><stop offset="1" stop-color="#fcee21"/></linearGradient><linearGradient id="linear-gradient-2" x1="391" y1="575.63" x2="647.97" y2="575.63" xlink:href="#linear-gradient"/><radialGradient id="radial-gradient" cx="429.56" cy="727.65" r="94.27" gradientTransform="translate(-53.7 -385.31) scale(1.34 1.32)" gradientUnits="userSpaceOnUse"><stop offset="0.71" stop-opacity="0"/><stop offset="1" stop-color="#fff"/></radialGradient><linearGradient id="linear-gradient-3" x1="874.69" y1="677.14" x2="598.71" y2="547.56" xlink:href="#linear-gradient"/><linearGradient id="linear-gradient-4" x1="580" y1="611.95" x2="890.96" y2="611.95" xlink:href="#linear-gradient"/><radialGradient id="radial-gradient-2" cx="591.31" cy="755.2" r="114.31" xlink:href="#radial-gradient"/><linearGradient id="linear-gradient-5" x1="469.29" y1="817.39" x2="241.69" y2="710.53" xlink:href="#linear-gradient"/><linearGradient id="linear-gradient-6" x1="226" y1="763.63" x2="482.97" y2="763.63" xlink:href="#linear-gradient"/><radialGradient id="radial-gradient-3" cx="306.12" cy="869.97" r="94.27" xlink:href="#radial-gradient"/><linearGradient id="linear-gradient-7" x1="986.29" y1="832.39" x2="758.69" y2="725.53" xlink:href="#linear-gradient"/><linearGradient id="linear-gradient-8" x1="743" y1="778.63" x2="999.97" y2="778.63" xlink:href="#linear-gradient"/><radialGradient id="radial-gradient-4" cx="692.9" cy="881.32" r="94.27" xlink:href="#radial-gradient"/><linearGradient id="linear-gradient-9" x1="654.51" y1="883.1" x2="375.23" y2="751.98" xlink:href="#linear-gradient"/><linearGradient id="linear-gradient-10" x1="356.32" y1="817.13" x2="670.96" y2="817.13" xlink:href="#linear-gradient"/><radialGradient id="radial-gradient-5" cx="425.36" cy="910.52" r="115.68" xlink:href="#radial-gradient"/><linearGradient id="linear-gradient-11" x1="838.21" y1="990.16" x2="646.45" y2="900.13" xlink:href="#linear-gradient"/><linearGradient id="linear-gradient-12" x1="633" y1="944.87" x2="849.97" y2="944.87" xlink:href="#linear-gradient"/><radialGradient id="radial-gradient-6" cx="595.53" cy="1007.12" r="79.43" xlink:href="#radial-gradient"/><linearGradient id="linear-gradient-13" x1="697.55" y1="1042.83" x2="493.53" y2="947.03" xlink:href="#linear-gradient"/><linearGradient id="linear-gradient-14" x1="479.31" y1="994.63" x2="709.97" y2="994.63" xlink:href="#linear-gradient"/><radialGradient id="radial-gradient-7" cx="485.71" cy="1044.8" r="84.51" xlink:href="#radial-gradient"/><linearGradient id="linear-gradient-15" x1="846.24" y1="369.04" x2="379.59" y2="149.94" xlink:href="#linear-gradient"/><linearGradient id="linear-gradient-16" x1="349" y1="258.82" x2="872.72" y2="258.82" xlink:href="#linear-gradient"/><radialGradient id="radial-gradient-8" cx="498.71" cy="488.1" r="193.29" xlink:href="#radial-gradient"/><linearGradient id="linear-gradient-17" x1="467.73" y1="618.8" x2="28.86" y2="412.74" xlink:href="#linear-gradient"/><linearGradient id="linear-gradient-18" x1="0" y1="515.13" x2="492.73" y2="515.13" xlink:href="#linear-gradient"/><radialGradient id="radial-gradient-9" cx="225.93" cy="682.09" r="181.78" xlink:href="#radial-gradient"/><linearGradient id="linear-gradient-19" x1="1245.73" y1="543.8" x2="806.86" y2="337.74" xlink:href="#linear-gradient"/><linearGradient id="linear-gradient-20" x1="778" y1="440.13" x2="1270.73" y2="440.13" xlink:href="#linear-gradient"/><radialGradient id="radial-gradient-10" cx="807.97" cy="625.32" r="181.78" xlink:href="#radial-gradient"/><clipPath id="clip-path"><ellipse id="_Ellipse_" data-name="&lt;Ellipse&gt;" class="cls-1" cx="833.02" cy="1395.09" rx="20.55" ry="51.3" transform="translate(-698.68 1937.41) rotate(-78.66)"/></clipPath><clipPath id="clip-path-2"><polyline id="_Clipping_Path_" data-name="&lt;Clipping Path&gt;" class="cls-2" points="830.32 1371.22 929.34 1420.37 974.46 1346.93 973.09 1325.35 829.89 1322.66"/></clipPath><clipPath id="clip-path-3"><ellipse id="_Ellipse_2" data-name="&lt;Ellipse&gt;" class="cls-1" cx="988.06" cy="1390.94" rx="53.56" ry="21.45" transform="translate(-533.23 618.51) rotate(-27.69)"/></clipPath><linearGradient id="linear-gradient-21" x1="1056.29" y1="600.38" x2="1114.89" y2="600.38" gradientTransform="translate(455.61 21.1) rotate(27.98)" xlink:href="#linear-gradient"/><linearGradient id="linear-gradient-22" x1="1113.98" y1="1384.96" x2="1172.53" y2="1384.96" gradientTransform="translate(2474.89 25.29) rotate(90)" xlink:href="#linear-gradient"/><linearGradient id="linear-gradient-23" x1="1134.29" y1="1388.46" x2="1192.84" y2="1388.46" gradientTransform="translate(2498.7 8.5) rotate(90)" xlink:href="#linear-gradient"/><linearGradient id="linear-gradient-24" x1="1010.36" y1="934.01" x2="1120.07" y2="934.01" gradientTransform="translate(1986.59 42.84) rotate(90)" xlink:href="#linear-gradient"/><linearGradient id="linear-gradient-25" x1="847.67" y1="409.57" x2="906.22" y2="409.57" gradientTransform="translate(1378.54 254.98) rotate(90)" xlink:href="#linear-gradient"/><linearGradient id="linear-gradient-26" x1="867.98" y1="413.07" x2="926.53" y2="413.07" gradientTransform="translate(1396.31 249.54) rotate(90)" xlink:href="#linear-gradient"/><linearGradient id="linear-gradient-27" x1="942.61" y1="1288.05" x2="990.92" y2="1288.05" gradientTransform="translate(2290.98 86.05) rotate(90)" xlink:href="#linear-gradient"/><linearGradient id="linear-gradient-28" x1="933.72" y1="1608.99" x2="1053.67" y2="1608.99" gradientTransform="translate(110.56 -348.43) scale(0.85 0.85)" xlink:href="#linear-gradient"/><linearGradient id="linear-gradient-29" x1="966.12" y1="585.62" x2="1024.67" y2="585.62" gradientTransform="translate(1613.31 -29.45) rotate(90)" xlink:href="#linear-gradient"/><linearGradient id="linear-gradient-30" x1="986.43" y1="589.12" x2="1044.98" y2="589.12" gradientTransform="translate(1631.15 -34.97) rotate(90)" xlink:href="#linear-gradient"/><linearGradient id="linear-gradient-31" x1="1061.09" y1="1168.7" x2="1116.64" y2="1168.77" xlink:href="#linear-gradient"/><linearGradient id="linear-gradient-32" x1="1081.4" y1="1172.22" x2="1136.94" y2="1172.29" xlink:href="#linear-gradient"/><linearGradient id="linear-gradient-33" x1="1000.39" y1="1092.97" x2="1102.63" y2="1123.52" xlink:href="#linear-gradient"/><linearGradient id="linear-gradient-34" x1="945.54" y1="1115.63" x2="990.25" y2="1148.6" xlink:href="#linear-gradient"/><linearGradient id="linear-gradient-35" x1="959.81" y1="1130.5" x2="1004.51" y2="1163.47" xlink:href="#linear-gradient"/><linearGradient id="linear-gradient-36" x1="979.21" y1="1052.34" x2="1024.51" y2="1053.67" xlink:href="#linear-gradient"/><linearGradient id="linear-gradient-37" x1="908.52" y1="1022.81" x2="1007.81" y2="1012.09" xlink:href="#linear-gradient"/><linearGradient id="linear-gradient-38" x1="1004.17" y1="949.77" x2="1049.06" y2="982.49" xlink:href="#linear-gradient"/><linearGradient id="linear-gradient-39" x1="1018.52" y1="964.56" x2="1063.41" y2="997.28" xlink:href="#linear-gradient"/><radialGradient id="radial-gradient-11" cx="1117.35" cy="981.76" r="42.08" gradientTransform="matrix(-0.29, 0.96, -0.96, -0.29, 2348.48, 377.72)" xlink:href="#radial-gradient"/><radialGradient id="radial-gradient-12" cx="1137.82" cy="979.32" r="42.08" gradientTransform="matrix(-0.29, 0.96, -0.96, -0.29, 2372.28, 360.93)" xlink:href="#radial-gradient"/><radialGradient id="radial-gradient-13" cx="1064.24" cy="934.5" r="43.61" gradientTransform="translate(1986.01 44) rotate(90)" xlink:href="#radial-gradient"/><radialGradient id="radial-gradient-14" cx="990.96" cy="981.31" r="42.08" gradientTransform="translate(1556.16 -132.37) rotate(70.23)" xlink:href="#radial-gradient"/><radialGradient id="radial-gradient-15" cx="1008.89" cy="991.47" r="42.08" gradientTransform="translate(1573.92 -137.81) rotate(70.23)" xlink:href="#radial-gradient"/><radialGradient id="radial-gradient-16" cx="1000.85" cy="895.79" r="37.22" gradientTransform="matrix(-0.26, 0.97, -0.97, -0.26, 2125.63, 317.29)" xlink:href="#radial-gradient"/><radialGradient id="radial-gradient-17" cx="948.81" cy="874.23" r="41.73" gradientTransform="translate(422.24 -156.14) rotate(22.8)" xlink:href="#radial-gradient"/><radialGradient id="radial-gradient-18" cx="999.7" cy="805.46" r="42.08" gradientTransform="translate(1453.06 -244.79) rotate(70.54)" xlink:href="#radial-gradient"/><radialGradient id="radial-gradient-19" cx="1017.69" cy="815.52" r="42.08" gradientTransform="translate(1470.91 -250.3) rotate(70.54)" xlink:href="#radial-gradient"/><linearGradient id="linear-gradient-40" x1="1108.34" y1="1046.66" x2="1157.44" y2="1072.74" xlink:href="#linear-gradient"/><linearGradient id="linear-gradient-41" x1="912.97" y1="1029.21" x2="898.94" y2="1016.67" xlink:href="#linear-gradient"/><linearGradient id="linear-gradient-42" x1="889.28" y1="894.41" x2="911.28" y2="894.41" gradientTransform="translate(1800.3 122.61) rotate(90)" xlink:href="#linear-gradient"/><radialGradient id="radial-gradient-20" cx="713.75" cy="968.73" r="7.05" gradientTransform="matrix(0, 1.34, -1.32, 0, 2185.69, 68.88)" xlink:href="#radial-gradient"/></defs><title>otter_balloon_cart</title><g id="Layer_2" data-name="Layer 2"><g id="Layer_1-2" data-name="Layer 1"><line class="cls-3" x1="744" y1="1410.63" x2="809.5" y2="1393.13"/><line class="cls-4" x1="451.5" y1="1330.13" x2="451.5" y2="1520.13"/><rect class="cls-5" x="401.5" y="1438.13" width="116" height="18" rx="9" ry="9"/><rect class="cls-6" x="504.5" y="1401.13" width="257" height="143" rx="12" ry="12"/><rect class="cls-7" x="504.5" y="1377.13" width="256" height="24" rx="12" ry="12"/><rect class="cls-8" x="494.5" y="1393.13" width="278" height="24" rx="12" ry="12"/><rect class="cls-5" x="397.5" y="1532.13" width="374" height="24" rx="12" ry="12"/><line class="cls-9" x1="559" y1="1561.63" x2="705" y2="1561.63"/><line class="cls-9" x1="632.5" y1="1490.13" x2="632.5" y2="1636.13"/><line class="cls-9" x1="580.38" y1="1512.02" x2="683.62" y2="1615.25"/><line class="cls-9" x1="582.38" y1="1613.25" x2="685.62" y2="1510.02"/><circle class="cls-10" cx="632" cy="1562.63" r="86.5"/><circle class="cls-11" cx="632.5" cy="1562.13" r="73"/><circle class="cls-8" cx="633" cy="1562.63" r="19.5"/><rect class="cls-12" x="438.5" y="1251.13" width="26" height="57"/><rect class="cls-13" x="432.5" y="1281.13" width="37" height="16" rx="6.99" ry="6.99"/><rect class="cls-5" x="418.5" y="1235.13" width="67" height="18" rx="9" ry="9"/><rect class="cls-8" x="431.5" y="1235.13" width="40" height="18" rx="9" ry="9"/><path class="cls-12" d="M502.5,1271.71l-25,3.42v-16l25,2.29Z"/><rect class="cls-13" x="464.5" y="1256.13" width="14" height="22" rx="3.09" ry="3.09"/><line class="cls-14" x1="586.5" y1="1106.13" x2="632.5" y2="1371.13"/><line class="cls-14" x1="733.5" y1="1050.13" x2="636.5" y2="1371.13"/><line class="cls-15" x1="354.5" y1="889.13" x2="632.5" y2="1371.13"/><line class="cls-14" x1="871.5" y1="904.13" x2="632.5" y2="1371.13"/><line class="cls-14" x1="513.5" y1="971.13" x2="632.5" y2="1371.13"/><line class="cls-14" x1="718.5" y1="764.13" x2="636.5" y2="1364.13"/><line class="cls-15" x1="519.5" y1="701.13" x2="636.5" y2="1364.13"/><line class="cls-14" x1="246.5" y1="757.13" x2="632.5" y2="1371.13"/><line class="cls-15" x1="1024.5" y1="682.13" x2="632.5" y2="1371.13"/><line class="cls-14" x1="618.5" y1="516.13" x2="636.5" y2="1364.13"/><g class="cls-16"><path class="cls-17" d="M520.58,462.43a115.1,115.1,0,0,1,48.82,10.81,113.22,113.22,0,0,1,59.4,64.63,111.47,111.47,0,0,1-4.21,86.29,113.54,113.54,0,0,1-43.18,48.09,116.36,116.36,0,0,1-61,17.25,115.15,115.15,0,0,1-48.83-10.81,113.23,113.23,0,0,1-59.39-64.63,111.47,111.47,0,0,1,4.2-86.29,113.63,113.63,0,0,1,43.19-48.09,116.33,116.33,0,0,1,61-17.25h0m0-11c-47.32,0-92.68,26.48-114.12,71.62-29.57,62.24-2.49,136.39,60.49,165.62A126.78,126.78,0,0,0,520.4,700.5c47.33,0,92.68-26.48,114.13-71.62C664.1,566.64,637,492.48,574,463.26a126.6,126.6,0,0,0-53.46-11.83Z"/></g><ellipse class="cls-18" cx="519.49" cy="575.63" rx="126.99" ry="125.5"/><g class="cls-19"><ellipse class="cls-20" cx="520.49" cy="575.96" rx="125.98" ry="124.51"/></g><ellipse class="cls-21" cx="449.72" cy="525.98" rx="55.07" ry="35.06" transform="translate(-219.45 702.36) rotate(-64.24)"/><ellipse class="cls-22" cx="465.35" cy="487.78" rx="14.04" ry="13.87"/><ellipse class="cls-23" cx="586.53" cy="644.54" rx="71.76" ry="27.55" transform="translate(-283.62 596.63) rotate(-44.55)"/><path class="cls-5" d="M715.5,615.13a53.78,53.78,0,0,1,2.61-6c.95-1.92,2-3.76,3-5.57a111.69,111.69,0,0,1,6.9-10.24,139.43,139.43,0,0,1,16.23-17.87,137.85,137.85,0,0,1,19-14.9A110.11,110.11,0,0,1,774,554.4c1.88-.92,3.79-1.81,5.78-2.61a52.1,52.1,0,0,1,6.21-2.16,52.52,52.52,0,0,1-2.6,6c-.95,1.93-2,3.76-3,5.57a110.5,110.5,0,0,1-6.9,10.25,143.53,143.53,0,0,1-35.27,32.73,108.94,108.94,0,0,1-10.73,6.13c-1.88.92-3.78,1.82-5.77,2.62A51.94,51.94,0,0,1,715.5,615.13Z"/><path class="cls-5" d="M726.75,611.79a48.37,48.37,0,0,1,6.29-5.14,66.62,66.62,0,0,1,18.52-9,69.74,69.74,0,0,1,24.24-2.93,70.49,70.49,0,0,1,23.81,5.43,67.53,67.53,0,0,1,11.72,6.38,66.82,66.82,0,0,1,5.8,4.44,47.52,47.52,0,0,1,5.73,5.72l.61.73a1,1,0,0,1-.72,1.57c-4,0-8,0-12-.06l-12-.29c-8-.21-16-.64-24-1-8-.5-16-.9-24-1.49l-12-.93c-4-.39-8-.71-12-1.17a1,1,0,0,1-.84-1.06,1,1,0,0,1,.28-.57Z"/><path class="cls-5" d="M657.3,585.73a40.17,40.17,0,0,1,6.3-2.67,56.06,56.06,0,0,1,6-1.66c1-.21,1.93-.36,2.89-.55s1.9-.26,2.84-.39a50.82,50.82,0,0,1,5.56-.39,62.12,62.12,0,0,1,20.69,3.16A63,63,0,0,1,720.1,593a49,49,0,0,1,4.25,3.61c1.4,1.27,2.75,2.67,4.08,4.14a58.75,58.75,0,0,1,3.84,4.86,40.89,40.89,0,0,1,3.51,5.86l.33.69a.8.8,0,0,1-.37,1.06.76.76,0,0,1-.55.05c-3.34-.86-6.64-1.85-10-2.77l-9.89-3c-6.59-2-13.12-4.15-19.69-6.21s-13.06-4.35-19.55-6.63l-9.73-3.47c-3.22-1.22-6.46-2.38-9.67-3.65a.81.81,0,0,1-.08-1.45Z"/><path class="cls-5" d="M655.28,664.61a49.3,49.3,0,0,1,1.61-8.35c.32-1.31.74-2.49,1.12-3.72s.86-2.32,1.28-3.49A66.25,66.25,0,0,1,683.1,619.2,67.42,67.42,0,0,1,705.72,609a65.94,65.94,0,0,1,13.6-1.85,67.4,67.4,0,0,1,7.59.18,49.68,49.68,0,0,1,8.37,1.33l1.05.26a1,1,0,0,1,.39,1.79c-3.18,2.56-6.44,5-9.65,7.5l-9.8,7.28c-3.25,2.46-6.6,4.77-9.9,7.15l-9.94,7.09-10.06,6.91c-3.37,2.28-6.68,4.65-10.1,6.86l-10.2,6.71c-3.45,2.16-6.86,4.4-10.35,6.5a1,1,0,0,1-1.4-.35,1,1,0,0,1-.14-.62Z"/><path class="cls-5" d="M768,684.63a40.94,40.94,0,0,1-6-3.31,59.15,59.15,0,0,1-5.1-3.71,68.48,68.48,0,0,1-8.51-8.2,78.27,78.27,0,0,1-12.09-18.69,77.25,77.25,0,0,1-6.45-21.29,68.89,68.89,0,0,1-.74-11.8q.09-3.07.49-6.3a41.93,41.93,0,0,1,1.36-6.7,42.16,42.16,0,0,1,6,3.31,61,61,0,0,1,5.12,3.7,69.18,69.18,0,0,1,8.51,8.2,79.74,79.74,0,0,1,18.46,40,68.82,68.82,0,0,1,.74,11.8,62.82,62.82,0,0,1-.47,6.29A42.47,42.47,0,0,1,768,684.63Z"/><circle class="cls-7" cx="697" cy="621.63" r="5.5"/><circle class="cls-7" cx="681.6" cy="631.33" r="4.1"/><circle class="cls-7" cx="741" cy="625.63" r="5.5"/><circle class="cls-7" cx="748.55" cy="642.03" r="4.1"/><circle class="cls-7" cx="703" cy="590.63" r="5.5"/><circle class="cls-7" cx="683.83" cy="586.04" r="4.1"/><circle class="cls-7" cx="769" cy="602.63" r="5.5"/><circle class="cls-7" cx="788.4" cy="604.97" r="4.1"/><circle class="cls-7" cx="744" cy="585.63" r="5.5"/><circle class="cls-7" cx="755.75" cy="573.86" r="4.1"/><g class="cls-16"><path class="cls-24" d="M736.81,472.34A141.88,141.88,0,0,1,797,485.67a139.65,139.65,0,0,1,73.25,79.69A137.49,137.49,0,0,1,865,671.8a140,140,0,0,1-53.25,59.3A143.12,143.12,0,0,1,676.4,739a139.69,139.69,0,0,1-73.24-79.69,137.53,137.53,0,0,1,5.19-106.44,140,140,0,0,1,53.25-59.3,143.38,143.38,0,0,1,75.2-21.27h0m0-11c-57.39,0-112.38,32.11-138.39,86.85-35.85,75.48-3,165.39,73.36,200.83a153.69,153.69,0,0,0,64.83,14.35C794,763.37,849,731.25,875,676.52c35.86-75.48,3-165.39-73.36-200.83a153.65,153.65,0,0,0-64.82-14.35Z"/></g><ellipse class="cls-25" cx="735.48" cy="611.95" rx="153.98" ry="152.18"/><g class="cls-19"><ellipse class="cls-26" cx="736.7" cy="612.35" rx="152.77" ry="150.98"/></g><ellipse class="cls-21" cx="650.89" cy="551.74" rx="66.78" ry="42.52" transform="translate(-128.93 898.09) rotate(-64.24)"/><ellipse class="cls-22" cx="669.84" cy="505.43" rx="17.02" ry="16.82"/><ellipse class="cls-23" cx="816.78" cy="695.51" rx="87.02" ry="33.41" transform="translate(-253.21 772.8) rotate(-44.55)"/><g class="cls-16"><path class="cls-27" d="M355.58,650.43a115.1,115.1,0,0,1,48.82,10.81,113.22,113.22,0,0,1,59.4,64.63,111.47,111.47,0,0,1-4.21,86.29,113.54,113.54,0,0,1-43.18,48.09,116.36,116.36,0,0,1-61,17.25,115.15,115.15,0,0,1-48.83-10.81,113.23,113.23,0,0,1-59.39-64.63,111.47,111.47,0,0,1,4.2-86.29,113.63,113.63,0,0,1,43.19-48.09,116.33,116.33,0,0,1,61-17.25h0m0-11c-47.32,0-92.68,26.48-114.12,71.62-29.57,62.24-2.49,136.39,60.49,165.62A126.78,126.78,0,0,0,355.4,888.5c47.33,0,92.68-26.48,114.13-71.62C499.1,754.64,472,680.48,409,651.26a126.6,126.6,0,0,0-53.46-11.83Z"/></g><ellipse class="cls-28" cx="354.49" cy="763.63" rx="126.99" ry="125.5"/><g class="cls-19"><ellipse class="cls-29" cx="355.49" cy="763.96" rx="125.98" ry="124.51"/></g><ellipse class="cls-21" cx="284.72" cy="713.98" rx="55.07" ry="35.06" transform="translate(-482.04 660.04) rotate(-64.24)"/><ellipse class="cls-22" cx="300.35" cy="675.78" rx="14.04" ry="13.87"/><ellipse class="cls-23" cx="421.53" cy="832.54" rx="71.76" ry="27.55" transform="translate(-462.9 534.9) rotate(-44.55)"/><g class="cls-16"><path class="cls-30" d="M872.58,665.43a115.1,115.1,0,0,1,48.82,10.81,113.22,113.22,0,0,1,59.4,64.63,111.47,111.47,0,0,1-4.21,86.29,113.54,113.54,0,0,1-43.18,48.09,116.36,116.36,0,0,1-61,17.25,115.15,115.15,0,0,1-48.83-10.81,113.23,113.23,0,0,1-59.39-64.63,111.47,111.47,0,0,1,4.2-86.29,113.63,113.63,0,0,1,43.19-48.09,116.33,116.33,0,0,1,61-17.25h0m0-11c-47.32,0-92.68,26.48-114.12,71.62-29.57,62.24-2.49,136.39,60.49,165.62A126.78,126.78,0,0,0,872.4,903.5c47.33,0,92.68-26.48,114.13-71.62,29.57-62.24,2.48-136.4-60.5-165.62a126.6,126.6,0,0,0-53.46-11.83Z"/></g><ellipse class="cls-31" cx="871.49" cy="778.63" rx="126.99" ry="125.5"/><g class="cls-19"><ellipse class="cls-32" cx="872.49" cy="778.96" rx="125.98" ry="124.51"/></g><ellipse class="cls-21" cx="801.72" cy="728.98" rx="55.07" ry="35.06" transform="translate(-203.27 1134.13) rotate(-64.24)"/><ellipse class="cls-22" cx="817.35" cy="690.78" rx="14.04" ry="13.87"/><ellipse class="cls-23" cx="938.53" cy="847.54" rx="71.76" ry="27.55" transform="translate(-324.88 901.88) rotate(-44.55)"/><path class="cls-13" d="M498.59,752.49c-7.21-.69-8.76-6.29-20.2-15.61-9.93-8.09-29.28-20.59-35.81-15.61-2.54,1.94-1.63,5.39,0,29.39,1.29,18.91,1.06,21.72-.92,24.79-4.88,7.58-12.85,4.93-25.71,11.94-13.41,7.3-25.87,21.7-22.95,28.46,3,7,22.74,6.18,38.56,5.51,16.37-.69,21.93-3.24,26.63.92,5.72,5.06,1.72,12.57,4.59,29.38,1.25,7.3,5,29.45,15.61,32.14,9.89,2.51,23.89-12.42,30.31-25.71,6.72-13.94,3.06-21.8,10.1-26.63s13.06,1,32.13.92c5.8,0,27.67-.18,30.31-8.26,1.88-5.77-6.62-13.71-16.53-23-14.31-13.36-21.57-14.59-22-21.12-.54-7.54,8.9-9.25,15.61-23.87,1.53-3.33,7.87-17.17,2.76-23-6-6.85-25.93,0-36.73,5.51C509.76,746.1,507,753.3,498.59,752.49Z"/><path class="cls-6" d="M569.54,834.93c3.74-.36,4.54-3.26,10.47-8.1,5.15-4.19,15.18-10.67,18.57-8.09,1.31,1,.84,2.8,0,15.23-.67,9.81-.55,11.27.47,12.86,2.53,3.92,6.66,2.55,13.33,6.18,7,3.79,13.41,11.25,11.9,14.76s-11.79,3.2-20,2.85c-8.49-.35-11.37-1.68-13.81.48-3,2.62-.89,6.51-2.38,15.23-.64,3.78-2.6,15.27-8.09,16.66-5.12,1.3-12.38-6.44-15.7-13.33-3.49-7.22-1.59-11.3-5.24-13.8s-6.77.54-16.66.48c-3,0-14.34-.1-15.71-4.29-1-3,3.44-7.1,8.57-11.9,7.42-6.92,11.18-7.56,11.43-10.94.28-3.91-4.62-4.8-8.1-12.38-.79-1.72-4.08-8.9-1.42-11.9,3.13-3.55,13.43,0,19,2.86C563.75,831.61,565.17,835.35,569.54,834.93Z"/><g class="cls-16"><path class="cls-33" d="M515,675.72a143.76,143.76,0,0,1,61,13.5,141.47,141.47,0,0,1,74.19,80.72,139.25,139.25,0,0,1-5.26,107.81,141.86,141.86,0,0,1-53.94,60.07,145.28,145.28,0,0,1-76.16,21.54,143.81,143.81,0,0,1-61-13.5,141.51,141.51,0,0,1-74.19-80.72,139.3,139.3,0,0,1,5.26-107.81,141.92,141.92,0,0,1,53.94-60.07A145.32,145.32,0,0,1,515,675.72h0m0-11c-58.07,0-113.72,32.5-140,87.89C338.65,829,371.89,920,449.17,955.84a155.6,155.6,0,0,0,65.6,14.52c58.07,0,113.72-32.5,140-87.89,36.28-76.38,3.05-167.37-74.24-203.23A155.45,155.45,0,0,0,515,664.72Z"/></g><ellipse class="cls-34" cx="513.64" cy="817.13" rx="155.82" ry="154"/><g class="cls-19"><ellipse class="cls-35" cx="514.87" cy="817.54" rx="154.59" ry="152.78"/></g><ellipse class="cls-21" cx="428.03" cy="756.2" rx="67.57" ry="43.03" transform="translate(-439.04 812.98) rotate(-64.24)"/><ellipse class="cls-22" cx="447.21" cy="709.33" rx="17.22" ry="17.02"/><ellipse class="cls-23" cx="595.92" cy="901.69" rx="88.06" ry="33.8" transform="translate(-461.31 677.1) rotate(-44.55)"/><path class="cls-7" d="M751.31,961.66c-17.41,11-21.45,25.2-18.29,25.76-2.94.67-21.51,4.63-35.94-6.95-17.64-14.16-13.62-39.16-13-43.37,4.13-28,32.87-54.68,64.77-52.78,23.85,1.42,51.91,18.89,53.56,43.77,1,15.64-8.76,27.89-12.75,32.36C788,959.22,755.38,959.38,751.31,961.66Z"/><rect class="cls-7" x="727.18" y="957.58" width="66.4" height="37.12" rx="12" ry="12" transform="translate(-350.29 430.76) rotate(-25.93)"/><path class="cls-5" d="M727.11,908.31a27.15,27.15,0,0,1,3.85,2.21c1.18.78,2.26,1.61,3.31,2.45a48,48,0,0,1,5.59,5.42,56.56,56.56,0,0,1,12.83,26.32,48.54,48.54,0,0,1,.81,7.75c0,1.35,0,2.71-.13,4.13a27.59,27.59,0,0,1-.65,4.39,27.25,27.25,0,0,1-3.86-2.2c-1.19-.78-2.27-1.61-3.32-2.45a48.06,48.06,0,0,1-5.6-5.42,55,55,0,0,1-8.12-12.33,55.73,55.73,0,0,1-4.65-14,46.34,46.34,0,0,1-.81-7.75,41,41,0,0,1,.11-4.12A28.72,28.72,0,0,1,727.11,908.31Z"/><path class="cls-5" d="M705.14,939.05a23.87,23.87,0,0,1,3.81.06,32.34,32.34,0,0,1,3.42.49,33.6,33.6,0,0,1,6.07,1.85,35.51,35.51,0,0,1,17.21,15.31,32.73,32.73,0,0,1,2.52,5.82,32.09,32.09,0,0,1,.88,3.35,23.74,23.74,0,0,1,.48,3.79,22.91,22.91,0,0,1-3.82-.05,32.38,32.38,0,0,1-3.42-.48,33.46,33.46,0,0,1-6.08-1.85A35.5,35.5,0,0,1,709,952a33.49,33.49,0,0,1-2.53-5.82c-.33-1.07-.64-2.16-.88-3.34A23.57,23.57,0,0,1,705.14,939.05Z"/><path class="cls-5" d="M765.09,909.9a23.42,23.42,0,0,1,2.67,2.72,33.42,33.42,0,0,1,2.09,2.76,33,33,0,0,1,3,5.58,35.35,35.35,0,0,1,1.47,23,32.88,32.88,0,0,1-2.3,5.91,32,32,0,0,1-1.73,3,23.22,23.22,0,0,1-2.33,3,24.39,24.39,0,0,1-2.68-2.72,30.36,30.36,0,0,1-2.09-2.76,32.41,32.41,0,0,1-3-5.58,35.34,35.34,0,0,1-1.41-23,32.53,32.53,0,0,1,2.29-5.91,34.23,34.23,0,0,1,1.72-3A24.87,24.87,0,0,1,765.09,909.9Z"/><g class="cls-16"><path class="cls-36" d="M742.41,851.22a95.27,95.27,0,0,1,40.4,8.95A93.75,93.75,0,0,1,832,913.64,92.24,92.24,0,0,1,828.48,985a93.92,93.92,0,0,1-35.73,39.78,96.14,96.14,0,0,1-90.9,5.34,93.7,93.7,0,0,1-49.14-53.47,92.14,92.14,0,0,1,3.48-71.37,94,94,0,0,1,35.72-39.79,96.35,96.35,0,0,1,50.5-14.28h0m0-11c-39.87,0-78.08,22.32-96.15,60.35-24.91,52.44-2.09,114.91,51,139.53a106.75,106.75,0,0,0,45,10c39.87,0,78.09-22.31,96.15-60.34,24.92-52.44,2.1-114.92-51-139.54a106.72,106.72,0,0,0-45-10Z"/></g><ellipse class="cls-37" cx="741.49" cy="944.87" rx="106.99" ry="105.74"/><g class="cls-19"><ellipse class="cls-38" cx="742.33" cy="945.15" rx="106.14" ry="104.9"/></g><ellipse class="cls-21" cx="682.71" cy="903.03" rx="46.4" ry="29.54" transform="translate(-427.31 1125.35) rotate(-64.24)"/><ellipse class="cls-22" cx="695.88" cy="870.85" rx="11.82" ry="11.69"/><ellipse class="cls-23" cx="797.98" cy="1002.92" rx="60.46" ry="23.21" transform="translate(-474.27 847.93) rotate(-44.55)"/><g class="cls-16"><path class="cls-39" d="M595.62,894.29a102.15,102.15,0,0,1,43.29,9.59,100.38,100.38,0,0,1,52.65,57.28,98.81,98.81,0,0,1-3.73,76.48,100.61,100.61,0,0,1-38.28,42.63,102.93,102.93,0,0,1-97.38,5.71,100.44,100.44,0,0,1-52.65-57.28,98.84,98.84,0,0,1,3.73-76.49,100.64,100.64,0,0,1,38.28-42.62,103.15,103.15,0,0,1,54.09-15.3h0m0-11c-42.43,0-83.08,23.74-102.31,64.2-26.5,55.8-2.22,122.27,54.23,148.47a113.65,113.65,0,0,0,47.93,10.61c42.42,0,83.07-23.74,102.3-64.2,26.5-55.8,2.22-122.27-54.23-148.47a113.64,113.64,0,0,0-47.92-10.61Z"/></g><ellipse class="cls-40" cx="594.64" cy="994.63" rx="113.83" ry="112.5"/><g class="cls-19"><ellipse class="cls-41" cx="595.54" cy="994.93" rx="112.93" ry="111.61"/></g><ellipse class="cls-21" cx="532.1" cy="950.12" rx="49.36" ry="31.43" transform="translate(-554.85 1016.33) rotate(-64.24)"/><ellipse class="cls-22" cx="546.11" cy="915.88" rx="12.58" ry="12.43"/><ellipse class="cls-23" cx="654.74" cy="1056.4" rx="64.33" ry="24.7" transform="translate(-552.93 762.82) rotate(-44.55)"/><g class="cls-16"><path class="cls-42" d="M613.1,4.15v11a249.36,249.36,0,0,1,184.16,81.4,243.41,243.41,0,0,1,62.82,173,240.35,240.35,0,0,1-23.28,93.72,244.36,244.36,0,0,1-92.92,103.48,250.18,250.18,0,0,1-131.13,37.09,249.36,249.36,0,0,1-184.17-81.4,243.36,243.36,0,0,1-62.83-173A240.37,240.37,0,0,1,389,155.72,244.29,244.29,0,0,1,482,52.24,250.13,250.13,0,0,1,613.09,15.15v-11m0,0c-97,0-190,54.3-234,146.85-60.63,127.62-5.1,279.66,124,339.58a259.8,259.8,0,0,0,109.61,24.26c97,0,190-54.3,234-146.85,60.63-127.62,5.1-279.66-124-339.58A259.83,259.83,0,0,0,613.09,4.15Z"/></g><ellipse class="cls-43" cx="610.86" cy="258.82" rx="260.36" ry="257.32"/><g class="cls-19"><ellipse class="cls-44" cx="612.92" cy="259.49" rx="258.31" ry="255.29"/></g><ellipse class="cls-21" cx="467.82" cy="157" rx="112.91" ry="71.89" transform="translate(123.08 510.07) rotate(-64.24)"/><ellipse class="cls-22" cx="499.87" cy="78.7" rx="28.78" ry="28.44"/><ellipse class="cls-23" cx="748.33" cy="400.1" rx="147.13" ry="56.48" transform="translate(-65.65 639.9) rotate(-44.55)"/><g class="cls-16"><path class="cls-45" d="M248.47,275.62v11A233.92,233.92,0,0,1,421.18,363,228.23,228.23,0,0,1,480.09,525.2a225.31,225.31,0,0,1-21.83,87.89,229.11,229.11,0,0,1-87.14,97,234.09,234.09,0,0,1-221.44,13,230.38,230.38,0,0,1-74.27-54.54A228.35,228.35,0,0,1,16.5,506.34a225.48,225.48,0,0,1,21.83-87.89,229.19,229.19,0,0,1,87.15-97,234.7,234.7,0,0,1,123-34.79v-11m0,0c-91.26,0-178.71,51.07-220.06,138.11-57,120-4.8,263,116.65,319.37a244.36,244.36,0,0,0,103.09,22.82c91.25,0,178.71-51.07,220.06-138.11,57-120,4.79-263-116.66-319.37a244.35,244.35,0,0,0-103.08-22.82Z"/></g><ellipse class="cls-46" cx="246.36" cy="515.13" rx="244.86" ry="242"/><g class="cls-19"><ellipse class="cls-47" cx="248.3" cy="515.77" rx="242.93" ry="240.09"/></g><ellipse class="cls-21" cx="111.84" cy="419.38" rx="106.19" ry="67.61" transform="translate(-314.46 337.81) rotate(-64.24)"/><ellipse class="cls-22" cx="141.97" cy="345.73" rx="27.06" ry="26.75"/><ellipse class="cls-23" cx="375.65" cy="648" rx="138.38" ry="53.12" transform="translate(-346.64 449.7) rotate(-44.55)"/><g class="cls-16"><path class="cls-48" d="M1026.47,200.62v11A233.92,233.92,0,0,1,1199.18,288a228.23,228.23,0,0,1,58.91,162.24,225.31,225.31,0,0,1-21.83,87.89,229.11,229.11,0,0,1-87.14,97,234.09,234.09,0,0,1-221.44,13,230.38,230.38,0,0,1-74.27-54.54A228.35,228.35,0,0,1,794.5,431.34a225.48,225.48,0,0,1,21.83-87.89,229.19,229.19,0,0,1,87.15-97,234.7,234.7,0,0,1,123-34.79v-11m0,0c-91.26,0-178.71,51.07-220.06,138.11-57,120-4.8,263,116.65,319.37a244.36,244.36,0,0,0,103.09,22.82c91.25,0,178.71-51.07,220.06-138.11,57-120,4.79-263-116.66-319.37a244.35,244.35,0,0,0-103.08-22.82Z"/></g><ellipse class="cls-49" cx="1024.36" cy="440.13" rx="244.86" ry="242"/><g class="cls-19"><ellipse class="cls-50" cx="1026.3" cy="440.77" rx="242.93" ry="240.09"/></g><ellipse class="cls-21" cx="889.84" cy="344.38" rx="106.19" ry="67.61" transform="translate(192.9 996.06) rotate(-64.24)"/><ellipse class="cls-22" cx="919.97" cy="270.73" rx="27.06" ry="26.75"/><ellipse class="cls-23" cx="1153.65" cy="573" rx="138.38" ry="53.12" transform="translate(-70.49 973.91) rotate(-44.55)"/><path class="cls-51" d="M542.14,147.13v75.64h13.64v8.37H542.14v24.49h-8.37V231.14h-66.5l-1.7-10.07,62.77-73.94Zm-8.37,6.2-59.21,69.44h59.21Z"/><path class="cls-51" d="M568,188.36c0-56.88,83.08-56.73,83.08,0v25.89c0,56.73-83.08,56.88-83.08,0Zm8.22,25.89c0,46.5,66.65,46.34,66.65,0V188.36c0-46.19-66.65-46.34-66.65,0Z"/><path class="cls-51" d="M666.45,188.36c0-56.88,83.08-56.73,83.08,0v25.89c0,56.73-83.08,56.88-83.08,0Zm8.21,25.89c0,46.5,66.65,46.34,66.65,0V188.36c0-46.19-66.65-46.34-66.65,0Z"/><path class="cls-8" d="M507.83,344.51V323.56H482.37v20.95H472.6V292.7h9.77v21.84h25.46V292.7h9.7v51.81Z"/><path class="cls-8" d="M555,308h8.66v36.48h-8.51l-.45-5.33c-2.07,4.3-7.77,6.37-11.84,6.44C532,345.62,524,339,524,326.15c0-12.58,8.37-19.16,19-19.09,4.89,0,9.55,2.29,11.62,5.92Zm-21.91,18.2c0,7,4.81,11.1,10.81,11.1,14.21,0,14.21-22.12,0-22.12C537.87,315.13,533.06,319.2,533.06,326.15Z"/><path class="cls-8" d="M603.36,339.77a18.75,18.75,0,0,1-14.06,5.77c-10.58,0-19.39-6.36-19.39-19.31s8.81-19.32,19.39-19.32a17.29,17.29,0,0,1,13.17,5.41l-5.69,6a11.12,11.12,0,0,0-7.33-2.89c-6.07,0-10.51,4.44-10.51,10.81,0,6.95,4.74,10.65,10.36,10.65a11,11,0,0,0,8-3Z"/><path class="cls-8" d="M616.16,292.7v29.9L628.45,308h10.8v.52l-14.87,16.65,16.94,18.65v.66H630.45l-14.29-16.5v16.5h-9V292.7Z"/><path class="cls-8" d="M653.16,329.41c.59,4.51,4.52,7.77,10.88,7.77,3.33,0,7.7-1.26,9.77-3.4l5.77,5.69c-3.85,4-10.14,5.93-15.69,5.93-12.58,0-20-7.78-20-19.47,0-11.1,7.55-19.09,19.39-19.09,12.21,0,19.83,7.55,18.42,22.57ZM673,321.94c-.6-4.74-4.3-7.11-9.48-7.11-4.88,0-8.88,2.37-10.21,7.11Z"/><path class="cls-8" d="M697,308l.67,4.22c2.81-4.52,6.58-5.18,10.28-5.18a13.87,13.87,0,0,1,9.4,3.47l-4.07,7.85a9,9,0,0,0-6.51-2.37c-4.74,0-9.1,2.52-9.1,9.25v19.24h-9V308Z"/><path class="cls-8" d="M744.55,317.64a12.31,12.31,0,0,0-9-3.25c-4.29,0-6.66,1.33-6.66,3.62s2.15,3.7,6.81,4c6.88.44,15.62,2,15.62,11.69,0,6.44-5.26,12-15.69,12-5.77,0-11.55-1-16.88-6.51l4.44-6.44c2.59,2.89,8.52,5,12.59,5.11,3.4.07,6.58-1.71,6.58-4.37s-2.07-3.55-7.25-3.85c-6.88-.52-15.1-3-15.1-11.32s8.73-11.4,15.4-11.4c5.69,0,10,1.11,14.2,4.81Z"/><path class="cls-51" d="M150.42,431.64c.15-22.48,22.32-27.9,40.45-27.9,25.73,0,39.84,12.55,40,28.67,0,12.25-10.23,22.94-22.94,25.27,13,2.48,25,13.33,25,26.66,0,17.05-14.42,30.69-41.7,30.69-18.75,0-42.47-5.43-42.47-29h8.06c.16,19.53,20.77,21.24,34.57,21.24,22.78,0,33.63-10.39,33.63-22.63,0-11.32-11.47-23.25-33.79-23.25h-18v-7h17.52c21.54,0,32.39-11.62,32.55-22,.15-11.31-10.7-21.7-32.24-21.7-13.18,0-32.71,2.48-32.71,20.93Z"/><path class="cls-51" d="M258.76,463.26c8.68-12.4,21.24-15.35,34.72-15.35,20.46,0,42.31,9.46,42.31,33.48,0,24.65-22,33.48-42.46,33.48-20.62,0-42.78-9.3-42.78-33.79V433.65c0-20.46,20.61-30.07,41.23-30.07,21.7,0,40,9.15,41.38,27.44h-8.37c-.93-13-15.19-20-33-20-16.43,0-33,7.6-33,22.63Zm68.82,18.13c0-17.82-18.6-25.88-34.1-25.88s-34.41,7.9-34.56,25.73c-.16,19.53,18.91,25.73,34.41,25.73S327.58,501.23,327.58,481.39Z"/><path class="cls-8" d="M178.72,602.51v-21H153.26v21h-9.77V550.7h9.77v21.84h25.46V550.7h9.69v51.81Z"/><path class="cls-8" d="M233.18,584.23c0,10.51-7.18,19-19,19s-18.94-8.51-18.94-19,7.25-19,18.87-19S233.18,573.79,233.18,584.23Zm-28.93,0c0,5.55,3.33,10.73,9.91,10.73s9.92-5.18,9.92-10.73-3.85-10.81-9.92-10.81C207.65,573.42,204.25,578.75,204.25,584.23Z"/><path class="cls-8" d="M248.64,566V585c0,5.55,3,9.77,8.81,9.77,5.55,0,9.33-4.66,9.33-10.21V566h9v36.56h-8.07l-.59-5c-3.77,3.7-7.25,5.48-12.36,5.48-8.73,0-15.09-6.59-15.09-17.91V566Z"/><path class="cls-8" d="M292.08,566l.67,4.22c2.81-4.52,6.58-5.18,10.29-5.18a13.85,13.85,0,0,1,9.39,3.47l-4.07,7.85a9,9,0,0,0-6.51-2.37c-4.74,0-9.1,2.52-9.1,9.25v19.24h-9V566Z"/><path class="cls-8" d="M339.67,575.64a12.34,12.34,0,0,0-9-3.25c-4.3,0-6.66,1.33-6.66,3.62s2.14,3.7,6.8,4c6.89.44,15.62,2,15.62,11.69,0,6.44-5.25,12-15.69,12-5.77,0-11.54-1-16.87-6.51l4.44-6.44c2.59,2.89,8.51,5,12.58,5.11,3.4.07,6.58-1.71,6.58-4.37s-2.07-3.55-7.25-3.85c-6.88-.52-15.09-3-15.09-11.32s8.73-11.4,15.39-11.4c5.7,0,10,1.11,14.21,4.81Z"/><path class="cls-51" d="M984.62,385.2c-8.68,12.4-21.39,15.34-34.88,15.34-20.46,0-42.31-9.45-42.31-33.48,0-24.64,22-33.48,42.47-33.48,20.61,0,42.78,9.3,42.78,33.79V414.8c0,20.46-20.62,30.07-41.23,30.07-21.7,0-40-9.14-41.39-27.43h8.37c.93,13,15.19,20,33,20,16.43,0,33.17-7.59,33.17-22.63Zm-69-18.14c0,19.22,18.6,25.89,34.1,25.89s34.41-7.91,34.57-25.73c.15-19.53-18.91-25.73-34.41-25.73S915.64,347.22,915.64,367.06Z"/><path class="cls-51" d="M1010.81,376.36c0-56.88,83.08-56.73,83.08,0v25.89c0,56.73-83.08,56.88-83.08,0Zm8.22,25.89c0,46.5,66.65,46.34,66.65,0V376.36c0-46.19-66.65-46.34-66.65,0Z"/><path class="cls-51" d="M1138.53,386.9V360.24h7.29V386.9h27.12v7.44h-27.12v27.44h-7.29V394.34h-27.12V386.9Z"/><path class="cls-8" d="M933.74,513.21H919.88v14.42h-9.24v-49c7.7,0,15.4-.07,23.1-.07C957.68,478.56,957.75,513.21,933.74,513.21Zm-13.86-8.47h13.86c11.83,0,11.76-17.36,0-17.36H919.88Z"/><path class="cls-8" d="M963.77,493.12l.63,4c2.66-4.27,6.23-4.9,9.73-4.9A13.09,13.09,0,0,1,983,495.5l-3.85,7.42a8.53,8.53,0,0,0-6.16-2.24c-4.48,0-8.61,2.38-8.61,8.75v18.2h-8.54V493.12Z"/><path class="cls-8" d="M1020.54,510.41c0,9.94-6.79,18-18,18s-17.92-8-17.92-18,6.86-18,17.85-18S1020.54,500.54,1020.54,510.41Zm-27.37,0c0,5.25,3.15,10.15,9.38,10.15s9.38-4.9,9.38-10.15-3.64-10.22-9.38-10.22C996.39,500.19,993.17,505.23,993.17,510.41Z"/><path class="cls-8" d="M1034.82,493v42c0,8.54-3.71,14.08-11.48,14.08a13.84,13.84,0,0,1-7.63-2.31l3.08-6.66a8.66,8.66,0,0,0,4.13,1c2.8-.14,3.43-2.31,3.43-6.09V493Zm-9.24-9.66c0,6.65,10.08,6.65,10.08,0S1025.58,476.67,1025.58,483.32Z"/><path class="cls-8" d="M1049.38,513.42c.56,4.27,4.27,7.35,10.29,7.35,3.15,0,7.28-1.19,9.24-3.22l5.46,5.39c-3.64,3.78-9.59,5.6-14.84,5.6-11.9,0-19-7.35-19-18.41,0-10.5,7.14-18.06,18.34-18.06,11.55,0,18.76,7.14,17.43,21.35Zm18.76-7.07c-.56-4.48-4.06-6.72-9-6.72-4.62,0-8.4,2.24-9.66,6.72Z"/><path class="cls-8" d="M1112.52,523.22a17.76,17.76,0,0,1-13.3,5.46c-10,0-18.34-6-18.34-18.27s8.33-18.27,18.34-18.27a16.39,16.39,0,0,1,12.46,5.11l-5.39,5.67a10.48,10.48,0,0,0-6.93-2.73c-5.74,0-9.94,4.2-9.94,10.22,0,6.58,4.48,10.08,9.8,10.08a10.38,10.38,0,0,0,7.56-2.87Z"/><path class="cls-8" d="M1128.34,483.39v9.8h9.52v7.35h-9.59v14.91c0,3.29,1.82,4.9,4.48,4.9a9.76,9.76,0,0,0,4.13-1.05l2.38,7.28a19.08,19.08,0,0,1-7.07,1.47c-7.49.28-12.39-4-12.39-12.6V500.54h-6.45v-7.35h6.45V484.3Z"/><path class="cls-8" d="M1166.77,502.29a11.64,11.64,0,0,0-8.54-3.08c-4.06,0-6.31,1.26-6.31,3.43s2,3.5,6.45,3.78c6.51.42,14.77,1.89,14.77,11.06,0,6.09-5,11.34-14.84,11.34-5.47,0-10.93-.91-16-6.16l4.2-6.09c2.45,2.73,8,4.76,11.91,4.83,3.22.07,6.23-1.61,6.23-4.13s-2-3.36-6.86-3.64c-6.52-.49-14.29-2.87-14.29-10.71s8.27-10.78,14.57-10.78c5.39,0,9.45,1.05,13.44,4.55Z"/><path class="cls-8" d="M497.65,769.25c-3.82-.37-4.64-3.33-10.69-8.26-5.25-4.28-15.49-10.89-18.94-8.25-1.34,1-.86,2.85,0,15.54.68,10,.56,11.49-.48,13.11-2.59,4-6.8,2.61-13.6,6.32-7.1,3.86-13.69,11.48-12.15,15s12,3.27,20.4,2.92c8.66-.37,11.6-1.72,14.09.48,3,2.68.91,6.65,2.43,15.54.66,3.86,2.65,15.58,8.25,17,5.23,1.33,12.64-6.57,16-13.6,3.56-7.37,1.62-11.53,5.34-14.08s6.91.55,17,.48c3.07,0,14.63-.09,16-4.37,1-3-3.5-7.25-8.74-12.14-7.57-7.07-11.41-7.72-11.66-11.17-.28-4,4.71-4.89,8.26-12.63.81-1.76,4.16-9.08,1.46-12.14-3.2-3.62-13.71,0-19.43,2.91C503.56,765.87,502.11,769.68,497.65,769.25Z"/></g><g id="Layer_3" data-name="Layer 3"><path class="cls-1" d="M959.85,1589.66a124.43,124.43,0,0,0,93.5-31.14c13-11.47,17.92-20.61,20.58-27.3,4.15-10.42,5.89-22.75,3.45-24.07-2.22-1.2-6,7.72-16.56,17.49a80.58,80.58,0,0,1-22.4,14.47c-15.8,6.74-29.73,6-36.8,5.6a94.81,94.81,0,0,1-32.89-8.23"/><path class="cls-52" d="M1001.18,1348.29s-11.29,7-21.21,3.71-16.53-10.33-14.75-15.69,11.29-7,21.22-3.72S1001.18,1348.29,1001.18,1348.29Z"/><path class="cls-2" d="M1000.09,1315.71s1.13,13.24-6.32,20.58-16.72,10-20.68,6-1.14-13.24,6.32-20.59S1000.09,1315.71,1000.09,1315.71Z"/><ellipse id="_Ellipse_3" data-name="&lt;Ellipse&gt;" class="cls-1" cx="833.02" cy="1395.09" rx="20.55" ry="51.3" transform="translate(-698.68 1937.41) rotate(-78.66)"/><g class="cls-53"><rect class="cls-54" x="780.68" y="1368.82" width="44.29" height="40.66" transform="translate(-717.11 1903.04) rotate(-78.66)"/></g><path class="cls-55" d="M971.39,1621.41H901.23q4.5-20.69,9-41.38h61.17Z"/><path class="cls-54" d="M936.31,1620.61h35.08a35.08,35.08,0,0,1-70.16,0h35.08Z"/><path class="cls-55" d="M829.28,1622.31H894l-8.31-41.38H829.28Z"/><path class="cls-54" d="M861.66,1617H829.28c0,19.25,14.61,35.08,32.38,35.08S894,1636.26,894,1617H861.66Z"/><polygon class="cls-56" points="972.33 1590.35 829.15 1588.6 830.42 1316.25 973.61 1317.99 972.33 1590.35"/><polyline id="_Clipping_Path_2" data-name="&lt;Clipping Path&gt;" class="cls-2" points="830.32 1371.22 929.34 1420.37 974.46 1346.93 973.09 1325.35 829.89 1322.66"/><g class="cls-57"><rect class="cls-52" x="809.78" y="1303.44" width="161.18" height="87.16" transform="translate(-642.12 838.4) rotate(-38.17)"/></g><ellipse id="_Ellipse_4" data-name="&lt;Ellipse&gt;" class="cls-1" cx="988.06" cy="1390.94" rx="53.56" ry="21.45" transform="translate(-533.23 618.51) rotate(-27.69)"/><g class="cls-58"><rect class="cls-54" x="993.33" y="1354.68" width="46.23" height="42.44" transform="translate(1762.37 -163.54) rotate(62.31)"/></g><path class="cls-1" d="M817.21,1300.58c-6.42-2.15-9.47-9.28-7.05-14.84a11.24,11.24,0,0,1,13.86-5.8"/><ellipse class="cls-59" cx="900.28" cy="1309.49" rx="61.26" ry="87.37" transform="translate(-416.63 2198.87) rotate(-89.52)"/><path class="cls-1" d="M971.08,1291.56c6.59-1.59,13,2.83,13.87,8.82a11.25,11.25,0,0,1-8.66,12.28"/><path class="cls-60" d="M877.55,1348.67c-.91,2.6-5.67,3.21-8.74,2.72-2.87-.46-7.13-2.34-7.26-5-.15-3,4.65-6.35,9-5.71S878.53,1345.88,877.55,1348.67Z"/><path class="cls-61" d="M904.31,1332.29c-.34,1.35-2.56,9.5-10.27,13.15a19.22,19.22,0,0,1-11.08,1.43,25.08,25.08,0,0,1-12.77-6.22h0a21.11,21.11,0,0,1-14.05,3.13,20.38,20.38,0,0,1-9-3.87c-4.82-3.64-8.45-9.77-8.45-15,0-11.78,18.2-23.75,34.86-22.5,13.25,1,26.63,10.51,29.92,22.85A24.33,24.33,0,0,1,904.31,1332.29Z"/><path class="cls-54" d="M882.48,1328.37l-23.61-2.95s2.94-8.32,11.39-18.16c.6-.7,1.86-2.13,3.28-2s2.28,1.85,2.7,2.7C881.92,1319.43,882.48,1328.37,882.48,1328.37Z"/><line class="cls-62" x1="900.64" y1="1324.85" x2="946.75" y2="1336.02"/><line class="cls-62" x1="900" y1="1335.57" x2="938.3" y2="1363.56"/><line class="cls-62" x1="803.19" y1="1324.49" x2="850.24" y2="1318.43"/><line class="cls-62" x1="802.66" y1="1348.2" x2="845.28" y2="1327.36"/><path class="cls-63" d="M833.28,1296.08a18.26,18.26,0,0,1,10.19,6.28"/><path class="cls-64" d="M853.42,1342.05a14.3,14.3,0,0,0,6.52,2.91c5.24.85,10.28-2.29,10.28-2.29a16.29,16.29,0,0,0,5.73,3.65,17.17,17.17,0,0,0,11.7-.14"/><path class="cls-54" d="M926.69,1303.66a8,8,0,0,0-5.1,4.57c-.27.66-1.52,3.65-.33,5.71,1.61,2.78,6.43,1.7,8,1.34s6.41-1.43,6.68-4.61c.23-2.71-2.92-5.18-3.35-5.51A7.67,7.67,0,0,0,926.69,1303.66Z"/><line class="cls-14" x1="1040.5" y1="1137.13" x2="1030.5" y2="1367.13"/><path class="cls-65" d="M1149.6,1087.82c-11.48,19.74-36.7,40.13-49.22,33.44s-10.19-39.08.16-59.5c9.7-19.11,27.92-30.61,31.74-32.36.35-.16,3.26-1.47,7.14-3.46,2.7-1.39,5.27-2.8,6.06-3.28,9.38-5.6,12.79-24.64,15.42-24.38a4.05,4.05,0,0,1,2.63,1.27l0,0c1.3,1.66-9.67,15.26-8.88,26.33.11,1.58.56,4.43.61,4.76a79.21,79.21,0,0,0,2.16,9.8C1158.74,1045.1,1161,1068.17,1149.6,1087.82Z"/><ellipse class="cls-66" cx="1089.94" cy="1168.54" rx="52.62" ry="27.77" transform="translate(-79.91 2257.08) rotate(-89.93)"/><ellipse class="cls-67" cx="1110.24" cy="1172.07" rx="52.62" ry="27.77" transform="translate(-63.16 2280.91) rotate(-89.93)"/><ellipse class="cls-68" cx="1052.58" cy="1108.05" rx="30.94" ry="53.35" transform="translate(-310.44 1799.34) rotate(-73.36)"/><ellipse class="cls-69" cx="968.97" cy="1131.93" rx="52.62" ry="27.77" transform="translate(-517.13 1239.95) rotate(-53.59)"/><ellipse class="cls-70" cx="983.24" cy="1146.8" rx="52.62" ry="27.77" transform="translate(-523.3 1257.47) rotate(-53.59)"/><ellipse class="cls-71" cx="1002.93" cy="1052.82" rx="47.51" ry="22.66" transform="translate(-78.8 2024.49) rotate(-88.32)"/><ellipse class="cls-72" cx="959.24" cy="1017.26" rx="49.94" ry="31.43" transform="translate(-103.65 108.85) rotate(-6.16)"/><ellipse class="cls-73" cx="1027.69" cy="965.94" rx="52.62" ry="27.77" transform="translate(-358.27 1227.31) rotate(-53.91)"/><ellipse class="cls-74" cx="1042.04" cy="980.73" rx="52.62" ry="27.77" transform="translate(-364.32 1244.98) rotate(-53.91)"/><g class="cls-19"><path class="cls-75" d="M1088.91,1129.11c1.48,0,4.86,2.26,8.13,8.49,4.21,8,6.61,19.34,6.6,31.15,0,25.73-10.53,39.61-14.82,39.61-1.48,0-4.86-2.27-8.13-8.49-4.21-8-6.61-19.35-6.6-31.16,0-25.72,10.53-39.6,14.82-39.6h0m0-13c-15.33,0-27.78,23.54-27.82,52.59s12.37,52.64,27.71,52.66h0c15.33,0,27.78-23.54,27.82-52.59s-12.37-52.64-27.71-52.66Z"/></g><g class="cls-19"><path class="cls-76" d="M1109.22,1132.63c1.47,0,4.85,2.27,8.13,8.49,4.2,8,6.61,19.35,6.59,31.16,0,25.72-10.53,39.6-14.82,39.6-1.47,0-4.85-2.26-8.13-8.49-4.2-8-6.61-19.34-6.59-31.15,0-25.73,10.53-39.61,14.82-39.61h0m0-13c-15.33,0-27.79,23.54-27.82,52.59s12.37,52.64,27.71,52.66h0c15.33,0,27.78-23.54,27.81-52.59s-12.37-52.64-27.71-52.66Z"/></g><g class="cls-19"><path class="cls-77" d="M1036,1074.89v13a73.36,73.36,0,0,1,20.64,3.16c23.24,7,35.57,21.9,33.52,28.75-1.3,4.37-9.68,8.8-23.16,8.8a73.38,73.38,0,0,1-20.64-3.17c-23.24-6.94-35.57-21.9-33.53-28.74,1.31-4.38,9.69-8.8,23.17-8.8v-13m0,0c-18,0-32.19,6.59-35.62,18.08-4.89,16.37,14,36.48,42.26,44.92a85.7,85.7,0,0,0,24.36,3.71c18,0,32.19-6.6,35.62-18.08,4.89-16.38-14-36.49-42.26-44.92a85.7,85.7,0,0,0-24.36-3.71Z"/></g><g class="cls-19"><path class="cls-78" d="M988.91,1099.65h0a4.55,4.55,0,0,1,2.5.57c1.19.88,2.57,4.7,1.52,11.66-1.35,8.93-6.14,19.5-13.15,29-11.47,15.55-25.23,23.69-32.9,23.69a4.55,4.55,0,0,1-2.5-.57c-3.45-2.54-3.65-19.94,11.62-40.66,11.47-15.55,25.24-23.69,32.91-23.69m0-13c-12.88,0-30.11,11-43.37,29-17.25,23.39-21.22,49.73-8.88,58.83a16.85,16.85,0,0,0,10.22,3.11c12.88,0,30.11-11,43.37-29,17.25-23.39,21.22-49.74,8.88-58.84a16.85,16.85,0,0,0-10.22-3.11Z"/></g><g class="cls-19"><path class="cls-79" d="M1003.17,1114.53h0a4.58,4.58,0,0,1,2.51.56c3.45,2.55,3.65,20-11.63,40.66-11.47,15.56-25.23,23.69-32.9,23.69a4.58,4.58,0,0,1-2.51-.57c-3.45-2.54-3.64-19.94,11.63-40.65,11.47-15.56,25.24-23.69,32.9-23.69m0-13c-12.87,0-30.11,11-43.36,29-17.25,23.39-21.23,49.73-8.88,58.84a16.91,16.91,0,0,0,10.22,3.1c12.87,0,30.11-11,43.36-29,17.25-23.39,21.23-49.73,8.88-58.84a16.82,16.82,0,0,0-10.22-3.1Z"/></g><g class="cls-19"><path class="cls-80" d="M1002.86,1018.79c1.09.94,3.18,3.54,5.12,8.91,2.55,7.08,3.81,16.17,3.53,25.59s-2.06,18.42-5,25.33c-2.25,5.26-4.5,7.72-5.63,8.6-1.09-.94-3.19-3.54-5.13-8.91-2.55-7.08-3.8-16.17-3.52-25.59s2-18.42,5-25.33c2.25-5.26,4.49-7.72,5.63-8.6m.07-13.28c-12.37,0-23,20.83-23.72,46.83-.77,26.23,8.75,47.79,21.26,48.15h.32c12.37,0,23-20.83,23.72-46.83.76-26.23-8.75-47.79-21.26-48.15Z"/></g><g class="cls-19"><path class="cls-81" d="M963.3,998.74c17.94,0,30.82,7.62,31.59,14.74.4,3.69-2.26,8.1-7.3,12.08-6.74,5.34-16.75,9.06-27.45,10.21a65.38,65.38,0,0,1-7.1.39c-17.95,0-30.83-7.62-31.6-14.75-.4-3.69,2.26-8.09,7.3-12.07,6.74-5.34,16.75-9.06,27.45-10.22a68,68,0,0,1,7.11-.38h0m0-13a79.6,79.6,0,0,0-8.5.46c-27.42,3-48.14,19.35-46.27,36.61,1.66,15.44,20.85,26.35,44.52,26.35a79.6,79.6,0,0,0,8.5-.46c27.42-3,48.14-19.35,46.27-36.61-1.66-15.45-20.85-26.35-44.52-26.35Z"/></g><g class="cls-19"><path class="cls-82" d="M1047.5,933.55h0a4.49,4.49,0,0,1,2.46.56c3.46,2.53,3.76,19.92-11.41,40.72-11.42,15.67-25.16,23.87-32.82,23.87a4.51,4.51,0,0,1-2.46-.55c-1.19-.87-2.59-4.69-1.58-11.65,1.3-8.94,6-19.54,13-29.07,11.42-15.68,25.16-23.87,32.82-23.88m0-13c-12.88,0-30.13,11.11-43.33,29.22-17.12,23.48-20.95,49.84-8.56,58.88a16.84,16.84,0,0,0,10.12,3.05c12.89,0,30.13-11.11,43.33-29.21,17.12-23.48,21-49.85,8.56-58.88a16.84,16.84,0,0,0-10.12-3.06Z"/></g><g class="cls-19"><path class="cls-83" d="M1061.85,948.35h0a4.51,4.51,0,0,1,2.46.55c1.19.87,2.59,4.69,1.58,11.65-1.3,8.94-6,19.53-13,29.07-11.42,15.68-25.16,23.87-32.82,23.87a4.51,4.51,0,0,1-2.46-.55c-3.46-2.53-3.76-19.92,11.41-40.72,11.42-15.67,25.16-23.87,32.82-23.87m0-13c-12.89,0-30.13,11.11-43.33,29.21-17.12,23.48-20.95,49.85-8.56,58.88a16.84,16.84,0,0,0,10.12,3c12.89,0,30.13-11.1,43.33-29.21,17.12-23.48,20.95-49.84,8.56-58.88a16.84,16.84,0,0,0-10.12-3Z"/></g><g class="cls-19"><ellipse class="cls-84" cx="1088.87" cy="1168.73" rx="52.62" ry="27.77" transform="translate(-81.17 2256.19) rotate(-89.93)"/></g><g class="cls-19"><ellipse class="cls-85" cx="1109.17" cy="1172.26" rx="52.62" ry="27.77" transform="translate(-64.42 2280.02) rotate(-89.93)"/></g><g class="cls-19"><ellipse class="cls-86" cx="1051.51" cy="1108.24" rx="30.94" ry="53.35" transform="translate(-311.39 1798.45) rotate(-73.36)"/></g><g class="cls-19"><ellipse class="cls-87" cx="967.89" cy="1132.11" rx="52.62" ry="27.77" transform="translate(-517.72 1239.16) rotate(-53.59)"/></g><g class="cls-19"><ellipse class="cls-88" cx="982.16" cy="1146.98" rx="52.62" ry="27.77" transform="translate(-523.89 1256.69) rotate(-53.59)"/></g><g class="cls-19"><ellipse class="cls-89" cx="1001.86" cy="1053" rx="47.51" ry="22.66" transform="translate(-80.03 2023.6) rotate(-88.32)"/></g><g class="cls-19"><ellipse class="cls-90" cx="958.17" cy="1017.45" rx="49.94" ry="31.43" transform="translate(-103.68 108.73) rotate(-6.16)"/></g><g class="cls-19"><ellipse class="cls-91" cx="1026.62" cy="966.13" rx="52.62" ry="27.77" transform="translate(-358.86 1226.52) rotate(-53.91)"/></g><g class="cls-19"><ellipse class="cls-92" cx="1040.96" cy="980.92" rx="52.62" ry="27.77" transform="translate(-364.92 1244.19) rotate(-53.91)"/></g><ellipse class="cls-21" cx="933.79" cy="1009.5" rx="16.81" ry="13.16" transform="translate(-367.48 564.8) rotate(-28.36)"/><ellipse class="cls-21" cx="1043.48" cy="960.66" rx="22.17" ry="12.42" transform="matrix(0.69, -0.72, 0.72, 0.69, -372.03, 1050.4)"/><ellipse class="cls-21" cx="962.44" cy="1153.59" rx="22.17" ry="12.42" transform="translate(-518.96 1403.63) rotate(-59.74)"/><ellipse class="cls-21" cx="1123.58" cy="1051.72" rx="22.17" ry="12.42" transform="translate(-373.27 1409.47) rotate(-56.55)"/><ellipse class="cls-23" cx="1083.51" cy="1118.96" rx="22.17" ry="16.95" transform="translate(-474.04 1128.18) rotate(-46.26)"/><ellipse class="cls-23" cx="1121.17" cy="1201.02" rx="22.17" ry="12.42" transform="translate(-465.48 1627.64) rotate(-62.02)"/><ellipse class="cls-23" cx="988.12" cy="1034.3" rx="22.17" ry="9.74" transform="translate(-310.72 434.99) rotate(-21.54)"/><circle class="cls-22" cx="1135.81" cy="1038.84" r="6.82"/><path class="cls-22" d="M1087.41,1100.41c-1.33,3.42-22.23-1.76-32.6-4.91-9.08-2.76-29.31-9.8-28.55-13.37.66-3.14,17.69-3.61,33,1S1088.59,1097.39,1087.41,1100.41Z"/><path class="cls-22" d="M984.13,995.05c.07,2.05-12.41,4-27.6,6.31-14.82,2.29-26.77,4.13-27.32,2.2s11.89-8.82,25.86-11.1C969.61,990.1,984.06,992.85,984.13,995.05Z"/><path class="cls-22" d="M1058.44,941.07c1.22,1.66-8,10.28-19.24,20.78-11,10.24-19.79,18.49-21.33,17.21s4.85-14,15.11-23.74C1043.66,945.17,1057.14,939.3,1058.44,941.07Z"/><path class="cls-22" d="M1047.37,927.08c1.21,1.66-8,10.28-19.24,20.78-11,10.24-19.79,18.5-21.33,17.21s4.84-14,15.1-23.74C1032.58,931.18,1046.07,925.31,1047.37,927.08Z"/><path class="cls-22" d="M994.27,1110.83c1.45,1.46-6.37,11.38-15.88,23.45-9.28,11.78-16.77,21.27-18.49,20.23s2.68-14.55,11.35-25.75C980.27,1117.12,992.72,1109.28,994.27,1110.83Z"/><g class="cls-19"><path class="cls-93" d="M1143.81,1037.49c.37,1.71.83,3.57,1.38,5.49v0c.7,3,2.41,21.91-6.56,37.35a79.68,79.68,0,0,1-17.53,20.26c-6.95,5.69-12,7.62-14.22,8-1-1.9-2.18-7-1.6-15.14a73.38,73.38,0,0,1,7.13-26.72c7.81-15.39,22.94-25.16,25.56-26.43l.07,0c2.14-1,4.14-2,5.76-2.76m17.32-40.14c-2.62,0-6.05,18.82-15.37,24.38-.8.47-3.36,1.88-6.07,3.27-3.87,2-6.78,3.3-7.13,3.46-3.82,1.76-22,13.25-31.74,32.37-10.35,20.41-12.67,52.81-.16,59.5a11.65,11.65,0,0,0,5.58,1.3c13.38,0,33.68-17.62,43.64-34.74,11.42-19.65,9.14-42.73,7.85-47.35a78.81,78.81,0,0,1-2.16-9.79c0-.34-.5-3.18-.61-4.76-.79-11.07,10.18-24.68,8.88-26.34l0,0a4,4,0,0,0-2.63-1.27Z"/></g><g class="cls-16"><path class="cls-94" d="M905.9,1013.61a9.41,9.41,0,0,0-7,3.09,9.27,9.27,0,0,0,.79,13.17,9.51,9.51,0,0,0,6.31,2.39,9.33,9.33,0,0,0-.11-18.65Z"/></g><ellipse class="cls-95" cx="905.89" cy="1022.89" rx="9.39" ry="9.5" transform="translate(-333.54 1598.01) rotate(-73.36)"/><g class="cls-19"><ellipse class="cls-96" cx="905.95" cy="1022.94" rx="9.32" ry="9.43" transform="translate(-333.54 1598.1) rotate(-73.36)"/></g><ellipse class="cls-21" cx="901.95" cy="1017.84" rx="4.12" ry="2.62" transform="translate(-457.86 997.53) rotate(-47.6)"/><ellipse class="cls-22" cx="903.89" cy="1015.44" rx="1.04" ry="1.05" transform="matrix(0.29, -0.96, 0.96, 0.29, -327.82, 1590.77)"/><ellipse class="cls-23" cx="909.22" cy="1029.27" rx="5.37" ry="2.06" transform="translate(-376.03 545.31) rotate(-27.91)"/></g></g></svg>