<?xml version="1.0" encoding="UTF-8"?>
<svg xmlns="http://www.w3.org/2000/svg" width="507.8093214981168" height="213.63396808537544" viewBox="698.9754462163803 412.0202745412731 507.8093214981168 213.63396808537544">
  <g>
    <g id="s-Image_11-d1224" filter="none">
      <g transform="matrix(0.293871135126225 0.0 0.0 0.16484102475723414 698.9754462163803 412.0202745412731)">
        <svg width="1728.0" height="1295.9999999999998" viewBox="567.7363882355914 390.713906380396 507.8093214981168 213.6339680853754" preserveAspectRatio="none">
          <style type="text/css">.st0{fill:#D9AB62;}</style>
          <g>
            <g>
              <path class="st0" d="M1056.68,438.76c-23.39,22.06-49.64,40.85-77.83,56.51c-0.57,0.06-1.13,0.13-1.7,0.18    c-2.96-3.41-6.05-6.65-9.25-9.77c1.12-2.18,1.17-4.85,0.12-7.37c-2.43-5.89-4.87-11.78-7.3-17.67c-1.28-3.1-2.56-6.2-3.84-9.3    c-1.17-2.83-2.15-5.75-3.85-8.34c-4.82-7.36-13.66-5.46-20.94-4.35c-6.4,0.98-12.74,2.24-19.02,3.74    c-1.72,0.41-3.32,1.27-4.58,2.44c-0.77,0.1-1.54,0.26-2.26,0.55c-0.35-2.18-1.45-4.24-3.48-5.36    c-16.25-8.98-27.17-24.57-43.26-33.73c-19.36-11.02-41.71-9.3-62.98-8.97c-22.56,0.36-45.3-0.05-67.81,1.13    c-19.98,1.05-31.7,14.3-41.69,29.49c-1.12,1.71-1.52,3.46-1.39,5.11c-10.45,2.43-20.72,5.34-30.77,8.74    c-30.3,10.28-58.52,26.16-81.26,48.04c-4.47,4.3-2.66,10.5,1.16,13.57c0.59,1.17,1.49,2.29,2.86,3.24    c29.12,20.26,63.55,28.86,97.3,38.04c0.54,0.15,1.08,0.29,1.62,0.44c9.57,18.11,27.91,30.67,45.72,41.45    c5.52,3.34,13.12,0.91,13.66-5.82c0.55-6.8,1.07-13.6,1.55-20.41c16.55,3.25,33.24,5.4,50.15,5.46    c29.8,0.1,59.38-4.72,88.04-11.95c17.8,8.3,36.79,13.94,56.32,16.62c6.39,0.88,11.65-6.11,8.56-11.8    c-4.27-7.88-12.27-12.19-19.15-17.68c-0.28-0.22-0.55-0.45-0.83-0.68c19.17-6.81,37.83-14.84,55.83-24.13    c22.73,25.94,46.99,50.52,72.74,73.68c5,4.49,13.31,0.03,13.66-5.82c2.72-45.92,5.44-91.83,8.16-137.75    C1071.36,439.55,1062.26,433.5,1056.68,438.76z" fill="#D9AB62"></path>
            </g>
          </g>
        </svg>
      </g>
    </g>
  </g>
</svg>
