<?xml version="1.0" encoding="utf-8"?>
<!-- Generator: Adobe Adobe Illustrator 24.2.0, SVG Export Plug-In . SVG Version: 6.00 Build 0)  -->
<svg version="1.1" id="Layer_1" xmlns="http://www.w3.org/2000/svg" xmlns:xlink="http://www.w3.org/1999/xlink" x="0px" y="0px"
	 width="600px" height="600px" viewBox="0 0 600 600" style="enable-background:new 0 0 600 600;" xml:space="preserve">
<style type="text/css">
	.st0{fill:#1F5282;}
	.st1{fill:#25598A;}
	.st2{fill:#46729C;}
	.st3{fill:#6E453A;}
	.st4{fill:#B84679;}
	.st5{fill:#C9598B;}
	.st6{clip-path:url(#SVGID_2_);}
	.st7{fill:#4A3128;}
	.st8{fill:#69473B;}
	.st9{fill:#A66548;}
	.st10{clip-path:url(#SVGID_4_);}
	.st11{fill:#1D559F;}
	.st12{fill:#C59E8C;}
	.st13{fill:#DDC8BE;}
	.st14{fill:none;stroke:#DDC8BE;stroke-miterlimit:10;}
	.st15{fill:none;stroke:#603813;stroke-miterlimit:10;}
	.st16{fill:none;stroke:#A66548;stroke-linecap:round;stroke-miterlimit:10;}
	.st17{clip-path:url(#SVGID_6_);}
	.st18{fill:#5881A8;stroke:#5881A8;stroke-width:6;stroke-miterlimit:10;}
	.st19{fill:#FAB664;}
	.st20{fill:#F29252;}
	.st21{fill:none;stroke:#FFFFFF;stroke-width:6;stroke-miterlimit:10;}
	.st22{fill:#FFFFFF;}
	.st23{opacity:0.28;}
	.st24{fill:url(#SVGID_7_);}
	.st25{fill:none;stroke:url(#SVGID_8_);stroke-width:3;stroke-miterlimit:10;}
	.st26{opacity:0.2;}
	.st27{fill:url(#SVGID_9_);}
	.st28{opacity:0.09;fill:#FFDCED;enable-background:new    ;}
	.st29{opacity:0.26;fill:#FFDCED;enable-background:new    ;}
	.st30{opacity:0.06;fill:#97D3FF;enable-background:new    ;}
</style>
<path class="st0" d="M77.75,555.82V365.5c0-22.67,18.38-41.05,41.05-41.05h368.21c22.67,0,41.05,18.38,41.05,41.05v190.32
	c0,22.67-18.38,41.05-41.05,41.05H118.8C96.13,596.86,77.75,578.49,77.75,555.82z"/>
<path class="st0" d="M149.25,182.44V165.2c0-4.97,4.03-9,9-9h284.16c4.97,0,9,4.03,9,9v17.24c0,4.97-4.03,9-9,9H158.25
	C153.28,191.44,149.25,187.41,149.25,182.44z"/>
<polygon class="st1" points="181.76,219.22 181.76,181.95 203.51,181.95 203.51,219.22 192.47,212.37 "/>
<polygon class="st1" points="243.24,218.07 243.24,180.81 264.99,180.81 264.99,218.07 253.95,211.23 "/>
<polygon class="st1" points="296.58,218.07 296.58,180.81 318.34,180.81 318.34,218.07 307.29,211.23 "/>
<polygon class="st1" points="350.23,218.07 350.23,180.81 371.98,180.81 371.98,218.07 360.94,211.23 "/>
<polygon class="st1" points="397.25,217.01 397.25,179.74 419,179.74 419,217.01 407.96,210.16 "/>
<path class="st1" d="M6.34,71.83L6.34,71.83c0-18.14,14.7-32.84,32.84-32.84h521.64c18.14,0,32.84,14.7,32.84,32.84v0
	c0,18.14-18.26,24.51-32.84,32.84l-130.15,75.35l-262.43,1.93L39.18,104.68C22.62,95.66,6.34,89.97,6.34,71.83z"/>
<path class="st1" d="M95.94,32.99V13.14c0-5.72,4.64-10.36,10.36-10.36l384.58,0c5.72,0,10.36,4.64,10.36,10.36v19.85
	c0,5.72-4.64,10.36-10.36,10.36H106.3C100.58,43.35,95.94,38.71,95.94,32.99z"/>
<path class="st1" d="M399.53,294.21l41.13,0c8.84,0,16,7.16,16,16v131.25c0,8.84-7.16,16-16,16l-41.13,0c-8.84,0-16-7.16-16-16
	V310.21C383.53,301.37,390.69,294.21,399.53,294.21z"/>
<path class="st2" d="M454.61,347.64l58.95,0c8.84,0,16,7.16,16,16v217.23c0,8.84-7.16,16-16,16l-58.95,0c-8.84,0-16-7.16-16-16
	V363.64C438.61,354.8,445.77,347.64,454.61,347.64z"/>
<path class="st1" d="M156.77,294.21l41.13,0c8.84,0,16,7.16,16,16v131.25c0,8.84-7.16,16-16,16l-41.13,0c-8.84,0-16-7.16-16-16
	V310.21C140.77,301.37,147.93,294.21,156.77,294.21z"/>
<path class="st2" d="M90.85,347.64l58.95,0c8.84,0,16,7.16,16,16v217.23c0,8.84-7.16,16-16,16l-58.95,0c-8.84,0-16-7.16-16-16
	V363.64C74.85,354.8,82.01,347.64,90.85,347.64z"/>
<path class="st3" d="M341.27,437.19c25.31,2.17,50.4-6.18,69.34-23.1c9.64-8.51,13.29-15.29,15.26-20.25
	c3.08-7.73,4.37-16.87,2.56-17.86c-1.65-0.89-4.44,5.73-12.28,12.98c-4.9,4.47-10.51,8.1-16.6,10.73c-11.72,5-22.06,4.47-27.31,4.15
	c-8.43-0.55-16.69-2.62-24.39-6.1"/>
<path class="st4" d="M384.23,314.88c0,0-8.37,5.22-15.73,2.76c-7.36-2.46-12.26-7.67-10.94-11.65c1.33-3.98,8.37-5.22,15.73-2.76
	C380.67,305.7,384.23,314.88,384.23,314.88z"/>
<path class="st5" d="M383.42,290.72c0,0,0.84,9.82-4.69,15.26s-12.4,7.44-15.34,4.45c-2.94-2.99-0.84-9.82,4.69-15.26
	C373.62,289.73,383.42,290.72,383.42,290.72z"/>
<ellipse id="_Ellipse_3_2_" transform="matrix(0.1966 -0.9805 0.9805 0.1966 -133.7291 515.0893)" class="st3" cx="247.46" cy="339.15" rx="15.24" ry="38.05"/>
<g>
	<defs>
		
			<ellipse id="SVGID_1_" transform="matrix(0.1966 -0.9805 0.9805 0.1966 -133.7291 515.0893)" cx="247.46" cy="339.15" rx="15.24" ry="38.05"/>
	</defs>
	<clipPath id="SVGID_2_">
		<use xlink:href="#SVGID_1_"  style="overflow:visible;"/>
	</clipPath>
	<g class="st6">
		
			<rect x="208.64" y="319.67" transform="matrix(0.1966 -0.9805 0.9805 0.1966 -147.4008 489.591)" class="st7" width="32.85" height="30.16"/>
	</g>
</g>
<path class="st8" d="M357.64,461.26H305.6c2.22-10.23,4.45-20.46,6.67-30.69h45.38L357.64,461.26z"/>
<path class="st7" d="M331.62,460.67h26.02c-0.18,14.37-11.97,25.87-26.34,25.69c-14.12-0.18-25.52-11.58-25.69-25.69H331.62z"/>
<path class="st8" d="M252.23,461.93h48.03l-6.15-30.69h-41.88V461.93z"/>
<path class="st7" d="M276.25,458h-24.02c0,14.27,10.84,26.02,24.02,26.02c13.17,0,24.02-11.75,24.02-26.02H276.25z"/>
<polygon class="st9" points="365.74,494.42 259.54,493.13 260.48,291.12 366.69,292.41 "/>
<polygon class="st5" points="365.71,297.59 259.5,295.6 259.82,331.61 333.27,368.07 366.73,313.6 "/>
<g>
	<defs>
		<polyline id="SVGID_3_" points="260.41,331.89 333.86,368.35 367.32,313.88 366.3,297.87 260.09,295.88 		"/>
	</defs>
	<clipPath id="SVGID_4_">
		<use xlink:href="#SVGID_3_"  style="overflow:visible;"/>
	</clipPath>
	<g class="st10">
		
			<rect x="245.18" y="281.63" transform="matrix(0.7862 -0.618 0.618 0.7862 -128.8165 255.5889)" class="st11" width="119.55" height="64.65"/>
	</g>
</g>
<path class="st3" d="M247.78,279.5c-4.76-1.61-7.02-6.88-5.22-11.01c1.61-3.67,6.08-5.7,10.28-4.3"/>
<ellipse transform="matrix(9.999500e-03 -0.9999 0.9999 9.999500e-03 20.2767 592.9118)" class="st12" cx="309.57" cy="286.22" rx="45.44" ry="64.81"/>
<path class="st3" d="M361.91,272.81c4.88-1.18,9.61,2.1,10.29,6.54c0.6,3.96-2.12,8.06-6.43,9.11"/>
<path class="st13" d="M312.39,303.02c-0.26,1-1.9,7.05-7.63,9.75c-3.54,1.67-6.88,1.24-8.21,1.06c-5.02-0.71-8.58-3.8-9.47-4.61l0,0
	c-1.4,0.87-5.43,3.1-10.44,2.32c-2.4-0.4-4.67-1.37-6.62-2.84c-3.58-2.7-6.27-7.23-6.26-11.16c0-8.74,13.5-17.61,25.85-16.69
	c9.83,0.73,19.75,7.79,22.2,16.95C312.25,299.5,312.45,301.26,312.39,303.02z"/>
<path class="st7" d="M296.2,300.11l-17.51-2.18c0,0,2.18-6.17,8.43-13.47c0.45-0.52,1.39-1.58,2.44-1.45
	c1.05,0.13,1.69,1.37,2.01,2.01C295.78,293.48,296.2,300.11,296.2,300.11z"/>
<line class="st14" x1="309.67" y1="297.5" x2="343.86" y2="305.79"/>
<line class="st14" x1="309.19" y1="305.45" x2="337.6" y2="326.21"/>
<line class="st14" x1="237.39" y1="297.24" x2="272.28" y2="292.74"/>
<line class="st14" x1="236.99" y1="314.82" x2="268.6" y2="299.36"/>
<path class="st15" d="M274.61,310.08c1.4,1.11,3.06,1.85,4.82,2.15c3.89,0.63,7.63-1.69,7.63-1.69c1.21,1.19,2.66,2.11,4.25,2.7
	c2.82,0.99,5.89,0.95,8.68-0.1"/>
<path class="st7" d="M328.98,281.79c-1.71,0.5-3.09,1.75-3.78,3.39c-0.2,0.49-1.13,2.7-0.24,4.23c1.2,2.06,4.77,1.26,5.94,1
	c1.25-0.28,4.75-1.07,4.96-3.42c0.17-2.01-2.17-3.85-2.49-4.09C332.12,281.93,330.54,281.53,328.98,281.79z"/>
<path class="st7" d="M265.87,273.69c1.5,0.68,2.59,2.04,2.91,3.66c0.11,0.49,0.63,2.76-0.38,4.19c-1.36,1.93-4.45,0.84-5.46,0.48
	c-1.08-0.4-4.11-1.45-3.96-3.79c0.13-2.01,2.48-3.61,2.81-3.82C262.98,273.58,264.47,273.32,265.87,273.69z"/>
<line class="st16" x1="335.56" y1="296.08" x2="343.19" y2="293.67"/>
<line class="st16" x1="252.03" y1="279.62" x2="256.45" y2="284.44"/>
<ellipse id="_Ellipse_4_2_" transform="matrix(0.9513 -0.3081 0.3081 0.9513 -84.9052 135.0713)" class="st3" cx="385.27" cy="336.4" rx="39.73" ry="15.91"/>
<g>
	<defs>
		
			<ellipse id="SVGID_5_" transform="matrix(0.9513 -0.3081 0.3081 0.9513 -84.9052 135.0713)" cx="385.27" cy="336.4" rx="39.73" ry="15.91"/>
	</defs>
	<clipPath id="SVGID_6_">
		<use xlink:href="#SVGID_5_"  style="overflow:visible;"/>
	</clipPath>
	<g class="st17">
		
			<rect x="392.18" y="311.82" transform="matrix(0.9513 -0.3081 0.3081 0.9513 -81.5137 141.6898)" class="st7" width="31.48" height="34.29"/>
	</g>
</g>
<path class="st2" d="M77.75,556.17v-122.7c0-22.67,18.38-41.05,41.05-41.05h368.21c22.67,0,41.05,18.38,41.05,41.05v122.7
	c0,22.67-18.38,41.05-41.05,41.05H118.8C96.13,597.22,77.75,578.84,77.75,556.17z"/>
<path class="st2" d="M143.32,32.99V13.14c0-5.72,4.64-10.36,10.36-10.36l289.88,0c5.72,0,10.36,4.64,10.36,10.36v19.85
	c0,5.72-4.64,10.36-10.36,10.36H153.68C147.96,43.35,143.32,38.71,143.32,32.99z"/>
<path class="st0" d="M6.34,87.9l0-32.13c0-9.27,7.51-16.78,16.78-16.78h553.77c9.27,0,16.78,7.51,16.78,16.78V87.9
	c0,9.27-7.51,16.78-16.78,16.78H23.12C13.85,104.68,6.34,97.16,6.34,87.9z"/>
<path class="st0" d="M437.85,189.97l-3.93-6.01c-1.13-1.73-0.65-4.06,1.09-5.19l143.64-93.94c1.73-1.13,4.06-0.65,5.19,1.09
	l3.93,6.01c1.13,1.73,0.65,4.06-1.09,5.19l-143.64,93.94C441.31,192.19,438.99,191.7,437.85,189.97z"/>
<path class="st0" d="M159.33,190.55l3.93-6.01c1.13-1.73,0.65-4.06-1.09-5.19L18.53,85.41c-1.73-1.13-4.06-0.65-5.19,1.09
	l-3.93,6.01c-1.13,1.73-0.65,4.06,1.09,5.19l143.64,93.94C155.87,192.77,158.19,192.29,159.33,190.55z"/>
<path class="st2" d="M133.55,104.68h16.05c3.04,0,5.5,2.46,5.5,5.5v322.49c0,3.04-2.46,5.5-5.5,5.5h-16.05c-3.04,0-5.5-2.46-5.5-5.5
	V110.18C128.05,107.14,130.51,104.68,133.55,104.68z"/>
<path class="st2" d="M450.74,104.68h16.05c3.04,0,5.5,2.46,5.5,5.5v323.06c0,3.04-2.46,5.5-5.5,5.5h-16.05c-3.04,0-5.5-2.46-5.5-5.5
	V110.18C445.24,107.14,447.7,104.68,450.74,104.68z"/>
<path class="st1" d="M402.55,105.03h11.15c1.38,0,2.5,1.12,2.5,2.5V309.7c0,1.38-1.12,2.5-2.5,2.5h-11.15c-1.38,0-2.5-1.12-2.5-2.5
	V107.53C400.05,106.15,401.17,105.03,402.55,105.03z"/>
<path class="st18" d="M63.33,428.59v-9.45c0-2.73,2.21-4.93,4.93-4.93h463.47c2.73,0,4.93,2.21,4.93,4.93l0,9.45
	c0,2.73-2.21,4.93-4.93,4.93H68.27C65.54,433.53,63.33,431.32,63.33,428.59z"/>
<path class="st1" d="M186.99,105.03h11.15c1.38,0,2.5,1.12,2.5,2.5v242.73c0,1.38-1.12,2.5-2.5,2.5h-11.15c-1.38,0-2.5-1.12-2.5-2.5
	V107.53C184.49,106.15,185.61,105.03,186.99,105.03z"/>
<polygon class="st19" points="82.65,155.84 82.65,105.03 112.32,105.03 112.32,155.84 97.26,146.51 "/>
<polygon class="st20" points="183.56,155.84 183.56,105.03 213.22,105.03 213.22,155.84 198.17,146.51 "/>
<polygon class="st20" points="388.97,155.84 388.97,105.03 418.64,105.03 418.64,155.84 403.58,146.51 "/>
<polygon class="st19" points="285.19,153.64 285.19,102.83 314.86,102.83 314.86,153.64 299.8,144.31 "/>
<polygon class="st19" points="485.88,155.84 485.88,105.03 515.54,105.03 515.54,155.84 500.49,146.51 "/>
<path class="st4" d="M259.54,314.82l0.36,17.38l47.77,23.66l34.57-30.25C342.24,325.62,295.87,344.36,259.54,314.82z"/>
<circle class="st21" cx="300.01" cy="515.42" r="44.05"/>
<path class="st22" d="M285.41,508.44l0.05,4.21l4.47-0.01c0,0,3.07,0.09,3.21,2.27c0.13,2.18,0.12,23.44,0.12,23.44
	s-0.16,2.35-2.23,2.43c-2.07,0.07-4.93,0.07-4.93,0.07l0.01,3.79l28.5-0.01l-0.01-3.77l-3.95-0.02c0,0-2.85-0.13-2.85-2.28
	c0-2,0-30.41,0-30.41S285.41,508.42,285.41,508.44z"/>
<circle class="st22" cx="299.07" cy="494.42" r="8.18"/>
<path class="st20" d="M520.93,549.68c1.86-1.61,1.61-4.84-0.6-6.02c-1.74-0.98-3.81-0.21-5.69-0.17c-3.15,0.33-6.25,0.93-9.33,1.59
	c-0.23-0.61-0.46-1.22-0.69-1.82c-1.46-3.61-2.22-7.67-4.58-10.83c-4.51-4.11-7.53,0.78-8.75,4.98c-0.9,3.54-1.56,7.13-2.33,10.7
	c-5.02,0.87-10.39,1.99-15.78,3.93c-2.27,1.18-5.8,1.29-6.53,4.2c-1.06,5.38,5.93,5.06,9.46,5.91c4.51,1.02,5.53,1.7,9.61,3.55
	c-0.44,2.3-1.13,5.67-1.6,8.87c-0.56,2.94-0.79,5.92-0.97,8.9c0.03,1.42-0.41,2.97,0.22,4.29c1.23,3.3,5.99,2.67,6.87-0.34
	c0.97-0.84,1.42-2.13,1.86-3.32c1.66-4.51,1.48-4.6,3.33-8.17c0.87-1.76,1.77-3.33,2.7-4.81c1.82,1.16,3.55,2.47,5.32,3.72
	c2.21,1.71,3.01,2.04,5.51,5.03c0.3,0.44,1.82,2.43,2.54,2.64c1.67,1.03,4.06,0.39,5.02-1.32c0.88-1.45,0.47-3.25,0.23-4.83
	c-1.12-4.46-1.54-4.26-2.84-7.71c-1.35-3.67-2.66-7.36-3.97-11.04c0.24-0.23,0.47-0.45,0.72-0.69
	C513.49,554.23,516.35,553.04,520.93,549.68z"/>
<path class="st19" d="M510.37,552.56c0.98-0.85,0.85-2.55-0.32-3.18c-0.92-0.52-2.01-0.11-3-0.09c-1.66,0.17-3.3,0.49-4.93,0.84
	c-0.12-0.32-0.24-0.64-0.37-0.96c-0.77-1.91-1.17-4.05-2.42-5.72c-2.38-2.17-3.97,0.41-4.62,2.63c-0.48,1.87-0.82,3.76-1.23,5.65
	c-2.65,0.46-5.48,1.05-8.33,2.08c-1.2,0.62-3.06,0.68-3.45,2.22c-0.56,2.84,3.13,2.67,4.99,3.12c2.38,0.54,2.92,0.9,5.07,1.88
	c-0.23,1.21-0.6,2.99-0.85,4.68c-0.3,1.55-0.42,3.12-0.51,4.7c0.02,0.75-0.22,1.57,0.11,2.26c0.65,1.74,3.16,1.41,3.63-0.18
	c0.51-0.44,0.75-1.13,0.98-1.75c0.88-2.38,0.78-2.43,1.76-4.31c0.46-0.93,0.93-1.76,1.43-2.54c0.96,0.61,1.88,1.3,2.81,1.97
	c1.16,0.9,1.59,1.08,2.91,2.66c0.16,0.23,0.96,1.28,1.34,1.4c0.88,0.54,2.14,0.21,2.65-0.7c0.46-0.77,0.25-1.71,0.12-2.55
	c-0.59-2.35-0.81-2.25-1.5-4.07c-0.71-1.94-1.4-3.88-2.09-5.83c0.13-0.12,0.25-0.24,0.38-0.37
	C506.44,554.96,507.95,554.33,510.37,552.56z"/>
<ellipse class="st20" cx="294.6" cy="29.17" rx="8.3" ry="8.81"/>
<ellipse class="st20" cx="492.38" cy="29.17" rx="8.3" ry="8.81"/>
<ellipse class="st20" cx="104.82" cy="28.95" rx="8.3" ry="8.81"/>
<ellipse class="st20" cx="200.95" cy="28.95" rx="8.3" ry="8.81"/>
<ellipse class="st20" cx="396.47" cy="28.95" rx="8.3" ry="8.81"/>
<ellipse class="st20" cx="248.63" cy="28.95" rx="8.3" ry="8.81"/>
<ellipse class="st20" cx="151.39" cy="29.17" rx="8.3" ry="8.81"/>
<ellipse class="st20" cx="344.5" cy="28.95" rx="8.3" ry="8.81"/>
<ellipse class="st20" cx="444.43" cy="28.95" rx="8.3" ry="8.81"/>
<ellipse class="st19" cx="319.62" cy="29.28" rx="8.3" ry="8.81"/>
<ellipse class="st19" cx="129.84" cy="29.06" rx="8.3" ry="8.81"/>
<ellipse class="st19" cx="225.97" cy="29.06" rx="8.3" ry="8.81"/>
<ellipse class="st19" cx="421.49" cy="29.06" rx="8.3" ry="8.81"/>
<ellipse class="st5" cx="273.65" cy="29.06" rx="8.3" ry="8.81"/>
<ellipse class="st5" cx="176.41" cy="29.28" rx="8.3" ry="8.81"/>
<ellipse class="st5" cx="369.52" cy="29.06" rx="8.3" ry="8.81"/>
<ellipse class="st5" cx="469.45" cy="29.06" rx="8.3" ry="8.81"/>
<ellipse class="st20" cx="294.03" cy="423.05" rx="9.5" ry="10.08"/>
<ellipse class="st20" cx="520.36" cy="423.05" rx="9.5" ry="10.08"/>
<ellipse class="st20" cx="76.84" cy="422.8" rx="9.5" ry="10.08"/>
<ellipse class="st20" cx="186.85" cy="422.8" rx="9.5" ry="10.08"/>
<ellipse class="st20" cx="410.6" cy="422.8" rx="9.5" ry="10.08"/>
<ellipse class="st20" cx="241.42" cy="422.8" rx="9.5" ry="10.08"/>
<ellipse class="st20" cx="130.13" cy="423.05" rx="9.5" ry="10.08"/>
<ellipse class="st20" cx="351.13" cy="422.8" rx="9.5" ry="10.08"/>
<ellipse class="st20" cx="465.48" cy="422.8" rx="9.5" ry="10.08"/>
<ellipse class="st19" cx="322.66" cy="423.18" rx="9.5" ry="10.08"/>
<ellipse class="st19" cx="105.48" cy="422.93" rx="9.5" ry="10.08"/>
<ellipse class="st19" cx="215.48" cy="422.93" rx="9.5" ry="10.08"/>
<ellipse class="st19" cx="439.24" cy="422.93" rx="9.5" ry="10.08"/>
<ellipse class="st5" cx="270.05" cy="422.93" rx="9.5" ry="10.08"/>
<ellipse class="st5" cx="158.76" cy="423.18" rx="9.5" ry="10.08"/>
<ellipse class="st5" cx="379.76" cy="422.93" rx="9.5" ry="10.08"/>
<ellipse class="st5" cx="494.11" cy="422.93" rx="9.5" ry="10.08"/>
<g id="Layer_2_38_">
	<g id="Layer_1-2_36_">
		<g class="st23">
			
				<linearGradient id="SVGID_7_" gradientUnits="userSpaceOnUse" x1="343.4398" y1="66.238" x2="257.3173" y2="106.6732" gradientTransform="matrix(1 0 0 -1 0 602)">
				<stop  offset="0" style="stop-color:#FF7BAC"/>
				<stop  offset="0.31" style="stop-color:#6C4491"/>
				<stop  offset="0.64" style="stop-color:#3FA9F5"/>
				<stop  offset="1" style="stop-color:#FCEE21"/>
			</linearGradient>
			<path class="st24" d="M300.4,472.59c6.38,0,12.69,1.39,18.47,4.09c10.47,4.8,18.57,13.61,22.47,24.45
				c3.88,10.66,3.3,22.42-1.59,32.65c-3.57,7.52-9.24,13.84-16.34,18.19c-6.94,4.27-14.93,6.53-23.08,6.53
				c-6.38,0.01-12.69-1.39-18.47-4.09c-10.47-4.8-18.57-13.61-22.47-24.45c-3.88-10.65-3.31-22.42,1.59-32.65
				c3.57-7.52,9.25-13.84,16.34-18.19C284.26,474.85,292.25,472.59,300.4,472.59L300.4,472.59 M300.4,468.43
				c-17.9,0-35.07,10.02-43.18,27.1c-11.19,23.55-0.93,51.61,22.91,62.65c6.33,2.95,13.24,4.47,20.22,4.48
				c17.91,0,35.07-10.02,43.18-27.1c11.17-23.54,0.92-51.59-22.92-62.65C314.29,469.96,307.39,468.43,300.4,468.43z"/>
		</g>
		
			<linearGradient id="SVGID_8_" gradientUnits="userSpaceOnUse" x1="250.4464" y1="86.5767" x2="349.5388" y2="86.5767" gradientTransform="matrix(1 0 0 -1 0 602)">
			<stop  offset="0" style="stop-color:#FF7BAC"/>
			<stop  offset="0.31" style="stop-color:#6C4491"/>
			<stop  offset="0.64" style="stop-color:#3FA9F5"/>
			<stop  offset="1" style="stop-color:#FCEE21"/>
		</linearGradient>
		<ellipse class="st25" cx="299.99" cy="515.42" rx="48.05" ry="47.48"/>
		<g class="st26">
			
				<radialGradient id="SVGID_9_" cx="378.5273" cy="-34.5505" r="35.6667" gradientTransform="matrix(1.34 0 0 -1.32 -206.54 469.8)" gradientUnits="userSpaceOnUse">
				<stop  offset="0.71" style="stop-color:#000000;stop-opacity:0"/>
				<stop  offset="1" style="stop-color:#FFFFFF"/>
			</radialGradient>
			<ellipse class="st27" cx="300.37" cy="515.55" rx="47.66" ry="47.11"/>
		</g>
		
			<ellipse transform="matrix(0.4346 -0.9006 0.9006 0.4346 -292.5906 527.1995)" class="st28" cx="273.59" cy="496.63" rx="20.84" ry="13.26"/>
		<ellipse class="st29" cx="279.51" cy="482.19" rx="5.31" ry="5.25"/>
		
			<ellipse transform="matrix(0.7126 -0.7015 0.7015 0.7126 -286.3763 383.8508)" class="st30" cx="325.36" cy="541.49" rx="27.15" ry="10.42"/>
	</g>
</g>
</svg>
