<?xml version="1.0" encoding="utf-8"?>
<!-- Generator: Adobe Adobe Illustrator 24.2.0, SVG Export Plug-In . SVG Version: 6.00 Build 0)  -->
<svg version="1.1" id="Layer_1" xmlns="http://www.w3.org/2000/svg" xmlns:xlink="http://www.w3.org/1999/xlink" x="0px" y="0px"
	 width="1920px" height="1080px" viewBox="0 0 1920 1080" style="enable-background:new 0 0 1920 1080;" xml:space="preserve">
<style type="text/css">
	.st0{fill:#1F5282;}
	.st1{fill:#25598A;}
	.st2{fill:#46729C;}
	.st3{fill:#6E453A;}
	.st4{fill:#B84679;}
	.st5{fill:#C9598B;}
	.st6{clip-path:url(#SVGID_2_);}
	.st7{fill:#4A3128;}
	.st8{fill:#69473B;}
	.st9{fill:#A66548;}
	.st10{clip-path:url(#SVGID_4_);}
	.st11{fill:#1D559F;}
	.st12{fill:#C59E8C;}
	.st13{fill:#DDC8BE;}
	.st14{fill:none;stroke:#DDC8BE;stroke-miterlimit:10;}
	.st15{fill:none;stroke:#603813;stroke-miterlimit:10;}
	.st16{fill:none;stroke:#A66548;stroke-linecap:round;stroke-miterlimit:10;}
	.st17{clip-path:url(#SVGID_6_);}
	.st18{fill:#5881A8;stroke:#5881A8;stroke-width:6;stroke-miterlimit:10;}
	.st19{fill:#FAB664;}
	.st20{fill:#F29252;}
	.st21{fill:none;stroke:#FFFFFF;stroke-width:6;stroke-miterlimit:10;}
	.st22{fill:#FFFFFF;}
	.st23{opacity:0.28;}
	.st24{fill:url(#SVGID_7_);}
	.st25{fill:none;stroke:url(#SVGID_8_);stroke-width:3;stroke-miterlimit:10;}
	.st26{opacity:0.2;}
	.st27{fill:url(#SVGID_9_);}
	.st28{opacity:0.09;fill:#FFDCED;enable-background:new    ;}
	.st29{opacity:0.26;fill:#FFDCED;enable-background:new    ;}
	.st30{opacity:0.06;fill:#97D3FF;enable-background:new    ;}
</style>
<path class="st0" d="M677.28,693.2V502.88c0-22.67,18.38-41.05,41.05-41.05h368.21c22.67,0,41.05,18.38,41.05,41.05V693.2
	c0,22.67-18.38,41.05-41.05,41.05H718.32C695.65,734.25,677.28,715.87,677.28,693.2z"/>
<path class="st0" d="M748.77,319.82v-17.24c0-4.97,4.03-9,9-9h284.16c4.97,0,9,4.03,9,9v17.24c0,4.97-4.03,9-9,9H757.77
	C752.8,328.82,748.77,324.79,748.77,319.82z"/>
<polygon class="st1" points="781.28,356.6 781.28,319.34 803.04,319.34 803.04,356.6 791.99,349.76 "/>
<polygon class="st1" points="842.76,355.45 842.76,318.19 864.52,318.19 864.52,355.45 853.48,348.61 "/>
<polygon class="st1" points="896.1,355.45 896.1,318.19 917.86,318.19 917.86,355.45 906.82,348.61 "/>
<polygon class="st1" points="949.75,355.45 949.75,318.19 971.51,318.19 971.51,355.45 960.46,348.61 "/>
<polygon class="st1" points="996.77,354.39 996.77,317.12 1018.53,317.12 1018.53,354.39 1007.48,347.54 "/>
<path class="st1" d="M605.86,209.21L605.86,209.21c0-18.14,14.7-32.84,32.84-32.84h521.64c18.14,0,32.84,14.7,32.84,32.84v0
	c0,18.14-18.26,24.51-32.84,32.84l-130.15,75.35l-262.43,1.93L638.7,242.06C622.14,233.05,605.86,227.35,605.86,209.21z"/>
<path class="st1" d="M695.46,170.37v-19.85c0-5.72,4.64-10.36,10.36-10.36h384.58c5.72,0,10.36,4.64,10.36,10.36v19.85
	c0,5.72-4.64,10.36-10.36,10.36H705.82C700.1,180.73,695.46,176.09,695.46,170.37z"/>
<path class="st1" d="M999.05,431.59l41.13,0c8.84,0,16,7.16,16,16v131.25c0,8.84-7.16,16-16,16l-41.13,0c-8.84,0-16-7.16-16-16
	V447.59C983.05,438.75,990.21,431.59,999.05,431.59z"/>
<path class="st2" d="M1054.13,485.02l58.95,0c8.84,0,16,7.16,16,16v217.23c0,8.84-7.16,16-16,16l-58.95,0c-8.84,0-16-7.16-16-16
	V501.02C1038.13,492.18,1045.29,485.02,1054.13,485.02z"/>
<path class="st1" d="M756.29,431.59l41.13,0c8.84,0,16,7.16,16,16v131.25c0,8.84-7.16,16-16,16l-41.13,0c-8.84,0-16-7.16-16-16
	V447.59C740.29,438.75,747.46,431.59,756.29,431.59z"/>
<path class="st2" d="M690.37,485.02l58.95,0c8.84,0,16,7.16,16,16v217.23c0,8.84-7.16,16-16,16l-58.95,0c-8.84,0-16-7.16-16-16
	V501.02C674.37,492.18,681.53,485.02,690.37,485.02z"/>
<path class="st3" d="M940.79,574.57c25.31,2.17,50.4-6.18,69.34-23.1c9.64-8.51,13.29-15.29,15.26-20.25
	c3.08-7.73,4.37-16.87,2.56-17.86c-1.65-0.89-4.44,5.73-12.28,12.98c-4.9,4.47-10.51,8.1-16.6,10.73c-11.72,5-22.06,4.47-27.31,4.15
	c-8.43-0.55-16.69-2.62-24.39-6.1"/>
<path class="st4" d="M983.75,452.26c0,0-8.37,5.22-15.73,2.76s-12.26-7.67-10.94-11.65c1.33-3.98,8.37-5.22,15.73-2.76
	S983.75,452.26,983.75,452.26z"/>
<path class="st5" d="M982.95,428.1c0,0,0.84,9.82-4.69,15.26c-5.53,5.44-12.4,7.44-15.34,4.45s-0.84-9.82,4.69-15.26
	C973.14,427.12,982.95,428.1,982.95,428.1z"/>
<ellipse id="_Ellipse_3_2_" transform="matrix(0.1966 -0.9805 0.9805 0.1966 213.2098 1213.2751)" class="st3" cx="846.98" cy="476.53" rx="15.24" ry="38.05"/>
<g>
	<defs>
		
			<ellipse id="SVGID_1_" transform="matrix(0.1966 -0.9805 0.9805 0.1966 213.2098 1213.2751)" cx="846.98" cy="476.53" rx="15.24" ry="38.05"/>
	</defs>
	<clipPath id="SVGID_2_">
		<use xlink:href="#SVGID_1_"  style="overflow:visible;"/>
	</clipPath>
	<g class="st6">
		
			<rect x="808.16" y="457.05" transform="matrix(0.1966 -0.9805 0.9805 0.1966 199.538 1187.7769)" class="st7" width="32.85" height="30.16"/>
	</g>
</g>
<path class="st8" d="M957.16,598.65h-52.04c2.22-10.23,4.45-20.46,6.67-30.69h45.38L957.16,598.65z"/>
<path class="st7" d="M931.14,598.06h26.02c-0.18,14.37-11.97,25.87-26.34,25.69c-14.12-0.18-25.52-11.58-25.69-25.69H931.14z"/>
<path class="st8" d="M851.75,599.31h48.03l-6.15-30.69h-41.88V599.31z"/>
<path class="st7" d="M875.77,595.38h-24.02c0,14.27,10.84,26.02,24.02,26.02s24.02-11.75,24.02-26.02H875.77z"/>
<polygon class="st9" points="965.27,631.8 859.06,630.51 860.01,428.5 966.21,429.79 "/>
<polygon class="st5" points="965.23,434.97 859.02,432.98 859.34,468.99 932.79,505.45 966.25,450.98 "/>
<g>
	<defs>
		<polyline id="SVGID_3_" points="859.93,469.27 933.38,505.73 966.84,451.26 965.82,435.25 859.61,433.26 		"/>
	</defs>
	<clipPath id="SVGID_4_">
		<use xlink:href="#SVGID_3_"  style="overflow:visible;"/>
	</clipPath>
	<g class="st10">
		
			<rect x="844.7" y="419.01" transform="matrix(0.7862 -0.618 0.618 0.7862 -85.528 655.4665)" class="st11" width="119.55" height="64.65"/>
	</g>
</g>
<path class="st3" d="M847.3,416.88c-4.76-1.61-7.02-6.88-5.22-11.01c1.61-3.67,6.08-5.7,10.28-4.3"/>
<ellipse transform="matrix(9.999500e-03 -0.9999 0.9999 9.999500e-03 476.43 1328.4114)" class="st12" cx="909.1" cy="423.6" rx="45.44" ry="64.81"/>
<path class="st3" d="M961.44,410.19c4.88-1.18,9.61,2.1,10.28,6.54c0.6,3.96-2.12,8.06-6.43,9.11"/>
<path class="st13" d="M911.91,440.4c-0.26,1-1.9,7.05-7.63,9.75c-3.54,1.67-6.88,1.24-8.21,1.06c-5.02-0.71-8.58-3.8-9.47-4.61l0,0
	c-1.4,0.87-5.43,3.1-10.44,2.32c-2.4-0.4-4.67-1.37-6.62-2.84c-3.58-2.7-6.27-7.23-6.26-11.16c0-8.74,13.5-17.61,25.85-16.69
	c9.83,0.73,19.75,7.79,22.2,16.95C911.77,436.88,911.97,438.64,911.91,440.4z"/>
<path class="st7" d="M895.73,437.49l-17.51-2.18c0,0,2.18-6.17,8.43-13.47c0.45-0.52,1.39-1.58,2.44-1.45
	c1.05,0.13,1.69,1.37,2.01,2.01C895.3,430.86,895.73,437.49,895.73,437.49z"/>
<line class="st14" x1="909.19" y1="434.88" x2="943.39" y2="443.17"/>
<line class="st14" x1="908.71" y1="442.83" x2="937.12" y2="463.59"/>
<line class="st14" x1="836.91" y1="434.62" x2="871.8" y2="430.12"/>
<line class="st14" x1="836.51" y1="452.2" x2="868.12" y2="436.74"/>
<path class="st15" d="M874.14,447.46c1.4,1.11,3.06,1.85,4.82,2.15c3.89,0.63,7.63-1.69,7.63-1.69c1.21,1.19,2.66,2.11,4.25,2.7
	c2.82,0.99,5.89,0.95,8.68-0.1"/>
<path class="st7" d="M928.51,419.17c-1.71,0.5-3.09,1.75-3.78,3.39c-0.2,0.49-1.13,2.7-0.24,4.23c1.2,2.06,4.77,1.26,5.94,1
	c1.25-0.28,4.75-1.07,4.96-3.42c0.17-2.01-2.17-3.85-2.49-4.09C931.65,419.32,930.06,418.91,928.51,419.17z"/>
<path class="st7" d="M865.39,411.08c1.5,0.68,2.59,2.04,2.91,3.66c0.11,0.49,0.63,2.76-0.38,4.19c-1.36,1.93-4.45,0.84-5.46,0.48
	c-1.08-0.4-4.11-1.45-3.96-3.79c0.13-2.01,2.48-3.61,2.81-3.82C862.5,410.96,864,410.7,865.39,411.08z"/>
<line class="st16" x1="935.08" y1="433.46" x2="942.71" y2="431.06"/>
<line class="st16" x1="851.55" y1="417" x2="855.97" y2="421.82"/>
<ellipse id="_Ellipse_4_2_" transform="matrix(0.9513 -0.3081 0.3081 0.9513 -98.0672 326.4756)" class="st3" cx="984.79" cy="473.78" rx="39.73" ry="15.91"/>
<g>
	<defs>
		
			<ellipse id="SVGID_5_" transform="matrix(0.9513 -0.3081 0.3081 0.9513 -98.0672 326.4756)" cx="984.79" cy="473.78" rx="39.73" ry="15.91"/>
	</defs>
	<clipPath id="SVGID_6_">
		<use xlink:href="#SVGID_5_"  style="overflow:visible;"/>
	</clipPath>
	<g class="st17">
		
			<rect x="991.7" y="449.2" transform="matrix(0.9513 -0.3081 0.3081 0.9513 -94.6756 333.0941)" class="st7" width="31.48" height="34.29"/>
	</g>
</g>
<path class="st2" d="M677.28,693.56v-122.7c0-22.67,18.38-41.05,41.05-41.05h368.21c22.67,0,41.05,18.38,41.05,41.05v122.7
	c0,22.67-18.38,41.05-41.05,41.05H718.32C695.65,734.6,677.28,716.23,677.28,693.56z"/>
<path class="st2" d="M742.84,170.37v-19.85c0-5.72,4.64-10.36,10.36-10.36h289.88c5.72,0,10.36,4.64,10.36,10.36v19.85
	c0,5.72-4.64,10.36-10.36,10.36H753.2C747.48,180.73,742.84,176.09,742.84,170.37z"/>
<path class="st0" d="M605.86,225.28v-32.13c0-9.27,7.51-16.78,16.78-16.78h553.77c9.27,0,16.78,7.51,16.78,16.78v32.13
	c0,9.27-7.51,16.78-16.78,16.78H622.64C613.37,242.06,605.86,234.55,605.86,225.28z"/>
<path class="st0" d="M1037.38,327.35l-3.93-6.01c-1.13-1.73-0.65-4.06,1.09-5.19l143.64-93.94c1.73-1.13,4.06-0.65,5.19,1.09
	l3.93,6.01c1.13,1.73,0.65,4.06-1.09,5.19l-143.64,93.94C1040.83,329.57,1038.51,329.08,1037.38,327.35z"/>
<path class="st0" d="M758.85,327.93l3.93-6.01c1.13-1.73,0.65-4.06-1.09-5.19l-143.64-93.94c-1.73-1.13-4.06-0.65-5.19,1.09
	l-3.93,6.01c-1.13,1.73-0.65,4.06,1.09,5.19l143.64,93.94C755.39,330.15,757.72,329.67,758.85,327.93z"/>
<path class="st2" d="M733.07,242.06h16.05c3.04,0,5.5,2.46,5.5,5.5v322.49c0,3.04-2.46,5.5-5.5,5.5h-16.05c-3.04,0-5.5-2.46-5.5-5.5
	V247.56C727.57,244.52,730.04,242.06,733.07,242.06z"/>
<path class="st2" d="M1050.26,242.06h16.05c3.04,0,5.5,2.46,5.5,5.5v323.06c0,3.04-2.46,5.5-5.5,5.5h-16.05
	c-3.04,0-5.5-2.46-5.5-5.5V247.56C1044.76,244.52,1047.23,242.06,1050.26,242.06z"/>
<path class="st1" d="M1002.07,242.41h11.15c1.38,0,2.5,1.12,2.5,2.5v202.17c0,1.38-1.12,2.5-2.5,2.5h-11.15
	c-1.38,0-2.5-1.12-2.5-2.5V244.91C999.57,243.53,1000.69,242.41,1002.07,242.41z"/>
<path class="st18" d="M662.86,565.97v-9.45c0-2.73,2.21-4.93,4.93-4.93h463.47c2.73,0,4.93,2.21,4.93,4.93v9.45
	c0,2.73-2.21,4.93-4.93,4.93H667.79C665.06,570.91,662.86,568.7,662.86,565.97z"/>
<path class="st1" d="M786.51,242.41h11.15c1.38,0,2.5,1.12,2.5,2.5v242.73c0,1.38-1.12,2.5-2.5,2.5h-11.15c-1.38,0-2.5-1.12-2.5-2.5
	V244.91C784.01,243.53,785.13,242.41,786.51,242.41z"/>
<polygon class="st19" points="682.17,293.22 682.17,242.41 711.84,242.41 711.84,293.22 696.78,283.89 "/>
<polygon class="st20" points="783.08,293.22 783.08,242.41 812.75,242.41 812.75,293.22 797.69,283.89 "/>
<polygon class="st20" points="988.49,293.22 988.49,242.41 1018.16,242.41 1018.16,293.22 1003.1,283.89 "/>
<polygon class="st19" points="884.71,291.02 884.71,240.21 914.38,240.21 914.38,291.02 899.32,281.69 "/>
<polygon class="st19" points="1085.4,293.22 1085.4,242.41 1115.07,242.41 1115.07,293.22 1100.01,283.89 "/>
<path class="st4" d="M859.06,452.2l0.36,17.38l47.77,23.66L941.76,463C941.76,463,895.39,481.74,859.06,452.2z"/>
<circle class="st21" cx="899.53" cy="652.8" r="44.05"/>
<path class="st22" d="M884.93,645.83l0.05,4.21l4.47-0.01c0,0,3.07,0.09,3.21,2.27c0.13,2.18,0.12,23.44,0.12,23.44
	s-0.16,2.35-2.23,2.43c-2.07,0.07-4.93,0.07-4.93,0.07l0.01,3.79l28.5-0.01l-0.01-3.77l-3.95-0.02c0,0-2.85-0.13-2.85-2.28
	c0-2,0-30.41,0-30.41S884.93,645.81,884.93,645.83z"/>
<circle class="st22" cx="898.6" cy="631.8" r="8.18"/>
<path class="st20" d="M1120.45,687.06c1.86-1.61,1.61-4.84-0.6-6.02c-1.74-0.98-3.81-0.21-5.69-0.17c-3.15,0.33-6.25,0.93-9.33,1.59
	c-0.23-0.61-0.46-1.22-0.69-1.82c-1.46-3.61-2.22-7.67-4.58-10.83c-4.51-4.11-7.53,0.78-8.75,4.98c-0.9,3.54-1.56,7.13-2.33,10.7
	c-5.02,0.87-10.39,1.99-15.78,3.93c-2.27,1.18-5.8,1.29-6.53,4.2c-1.06,5.38,5.93,5.06,9.46,5.91c4.51,1.02,5.53,1.7,9.61,3.55
	c-0.44,2.3-1.13,5.67-1.6,8.87c-0.56,2.94-0.79,5.92-0.97,8.9c0.03,1.42-0.41,2.97,0.22,4.29c1.23,3.3,5.99,2.67,6.87-0.34
	c0.97-0.84,1.42-2.13,1.86-3.32c1.66-4.51,1.48-4.6,3.33-8.17c0.87-1.76,1.77-3.33,2.7-4.81c1.82,1.16,3.55,2.47,5.32,3.72
	c2.21,1.71,3.01,2.04,5.51,5.03c0.3,0.44,1.82,2.43,2.54,2.64c1.67,1.03,4.06,0.39,5.02-1.32c0.88-1.45,0.47-3.25,0.23-4.83
	c-1.12-4.46-1.54-4.26-2.84-7.71c-1.35-3.67-2.66-7.36-3.97-11.04c0.24-0.23,0.47-0.45,0.72-0.69
	C1113.01,691.61,1115.87,690.42,1120.45,687.06z"/>
<path class="st19" d="M1109.89,689.94c0.98-0.85,0.85-2.55-0.32-3.18c-0.92-0.52-2.01-0.11-3-0.09c-1.66,0.17-3.3,0.49-4.93,0.84
	c-0.12-0.32-0.24-0.64-0.37-0.96c-0.77-1.91-1.17-4.05-2.42-5.72c-2.38-2.17-3.97,0.41-4.62,2.63c-0.48,1.87-0.82,3.76-1.23,5.65
	c-2.65,0.46-5.48,1.05-8.33,2.08c-1.2,0.62-3.06,0.68-3.45,2.22c-0.56,2.84,3.13,2.67,4.99,3.12c2.38,0.54,2.92,0.9,5.07,1.88
	c-0.23,1.21-0.6,2.99-0.85,4.68c-0.3,1.55-0.42,3.12-0.51,4.7c0.02,0.75-0.22,1.57,0.11,2.26c0.65,1.74,3.16,1.41,3.63-0.18
	c0.51-0.44,0.75-1.13,0.98-1.75c0.88-2.38,0.78-2.43,1.76-4.31c0.46-0.93,0.93-1.76,1.43-2.54c0.96,0.61,1.88,1.3,2.81,1.97
	c1.16,0.9,1.59,1.08,2.91,2.66c0.16,0.23,0.96,1.28,1.34,1.4c0.88,0.54,2.14,0.21,2.65-0.7c0.46-0.77,0.25-1.71,0.12-2.55
	c-0.59-2.35-0.81-2.25-1.5-4.07c-0.71-1.94-1.4-3.88-2.09-5.83c0.13-0.12,0.25-0.24,0.38-0.37
	C1105.97,692.34,1107.48,691.71,1109.89,689.94z"/>
<ellipse class="st20" cx="894.13" cy="166.55" rx="8.3" ry="8.81"/>
<ellipse class="st20" cx="1091.9" cy="166.55" rx="8.3" ry="8.81"/>
<ellipse class="st20" cx="704.34" cy="166.33" rx="8.3" ry="8.81"/>
<ellipse class="st20" cx="800.47" cy="166.33" rx="8.3" ry="8.81"/>
<ellipse class="st20" cx="996" cy="166.33" rx="8.3" ry="8.81"/>
<ellipse class="st20" cx="848.15" cy="166.33" rx="8.3" ry="8.81"/>
<ellipse class="st20" cx="750.91" cy="166.55" rx="8.3" ry="8.81"/>
<ellipse class="st20" cx="944.02" cy="166.33" rx="8.3" ry="8.81"/>
<ellipse class="st20" cx="1043.95" cy="166.33" rx="8.3" ry="8.81"/>
<ellipse class="st19" cx="919.15" cy="166.67" rx="8.3" ry="8.81"/>
<ellipse class="st19" cx="729.37" cy="166.44" rx="8.3" ry="8.81"/>
<ellipse class="st19" cx="825.49" cy="166.44" rx="8.3" ry="8.81"/>
<ellipse class="st19" cx="1021.02" cy="166.44" rx="8.3" ry="8.81"/>
<ellipse class="st5" cx="873.18" cy="166.44" rx="8.3" ry="8.81"/>
<ellipse class="st5" cx="775.93" cy="166.67" rx="8.3" ry="8.81"/>
<ellipse class="st5" cx="969.04" cy="166.44" rx="8.3" ry="8.81"/>
<ellipse class="st5" cx="1068.97" cy="166.44" rx="8.3" ry="8.81"/>
<ellipse class="st20" cx="893.55" cy="560.44" rx="9.5" ry="10.08"/>
<ellipse class="st20" cx="1119.88" cy="560.44" rx="9.5" ry="10.08"/>
<ellipse class="st20" cx="676.37" cy="560.18" rx="9.5" ry="10.08"/>
<ellipse class="st20" cx="786.37" cy="560.18" rx="9.5" ry="10.08"/>
<ellipse class="st20" cx="1010.13" cy="560.18" rx="9.5" ry="10.08"/>
<ellipse class="st20" cx="840.94" cy="560.18" rx="9.5" ry="10.08"/>
<ellipse class="st20" cx="729.65" cy="560.44" rx="9.5" ry="10.08"/>
<ellipse class="st20" cx="950.65" cy="560.18" rx="9.5" ry="10.08"/>
<ellipse class="st20" cx="1065" cy="560.18" rx="9.5" ry="10.08"/>
<ellipse class="st19" cx="922.18" cy="560.56" rx="9.5" ry="10.08"/>
<ellipse class="st19" cx="705" cy="560.31" rx="9.5" ry="10.08"/>
<ellipse class="st19" cx="815.01" cy="560.31" rx="9.5" ry="10.08"/>
<ellipse class="st19" cx="1038.76" cy="560.31" rx="9.5" ry="10.08"/>
<ellipse class="st5" cx="869.57" cy="560.31" rx="9.5" ry="10.08"/>
<ellipse class="st5" cx="758.29" cy="560.56" rx="9.5" ry="10.08"/>
<ellipse class="st5" cx="979.28" cy="560.31" rx="9.5" ry="10.08"/>
<ellipse class="st5" cx="1093.64" cy="560.31" rx="9.5" ry="10.08"/>
<g id="Layer_2_38_">
	<g id="Layer_1-2_36_">
		<g class="st23">
			
				<linearGradient id="SVGID_7_" gradientUnits="userSpaceOnUse" x1="942.9621" y1="408.8571" x2="856.8396" y2="449.2922" gradientTransform="matrix(1 0 0 -1 0 1082)">
				<stop  offset="0" style="stop-color:#FF7BAC"/>
				<stop  offset="0.31" style="stop-color:#6C4491"/>
				<stop  offset="0.64" style="stop-color:#3FA9F5"/>
				<stop  offset="1" style="stop-color:#FCEE21"/>
			</linearGradient>
			<path class="st24" d="M899.93,609.97c6.38,0,12.69,1.39,18.47,4.09c10.47,4.8,18.57,13.61,22.47,24.45
				c3.88,10.66,3.3,22.42-1.59,32.65c-3.57,7.52-9.24,13.84-16.34,18.19c-6.94,4.27-14.93,6.53-23.08,6.53
				c-6.38,0.01-12.69-1.39-18.47-4.09c-10.47-4.8-18.57-13.61-22.47-24.45c-3.88-10.66-3.31-22.42,1.59-32.65
				c3.57-7.52,9.25-13.84,16.34-18.19C883.78,612.23,891.77,609.97,899.93,609.97L899.93,609.97 M899.92,605.81
				c-17.9,0-35.07,10.02-43.18,27.1c-11.19,23.55-0.93,51.61,22.91,62.65c6.33,2.95,13.24,4.47,20.22,4.48
				c17.91,0,35.07-10.02,43.18-27.1c11.17-23.54,0.92-51.59-22.92-62.65C913.81,607.34,906.91,605.81,899.92,605.81z"/>
		</g>
		
			<linearGradient id="SVGID_8_" gradientUnits="userSpaceOnUse" x1="849.9686" y1="429.1957" x2="949.0611" y2="429.1957" gradientTransform="matrix(1 0 0 -1 0 1082)">
			<stop  offset="0" style="stop-color:#FF7BAC"/>
			<stop  offset="0.31" style="stop-color:#6C4491"/>
			<stop  offset="0.64" style="stop-color:#3FA9F5"/>
			<stop  offset="1" style="stop-color:#FCEE21"/>
		</linearGradient>
		<ellipse class="st25" cx="899.51" cy="652.8" rx="48.05" ry="47.48"/>
		<g class="st26">
			
				<radialGradient id="SVGID_9_" cx="993.3947" cy="283.1912" r="35.6667" gradientTransform="matrix(1.34 0 0 -1.32 -430.94 1026.6001)" gradientUnits="userSpaceOnUse">
				<stop  offset="0.71" style="stop-color:#000000;stop-opacity:0"/>
				<stop  offset="1" style="stop-color:#FFFFFF"/>
			</radialGradient>
			<ellipse class="st27" cx="899.89" cy="652.93" rx="47.66" ry="47.11"/>
		</g>
		
			<ellipse transform="matrix(0.4346 -0.9006 0.9006 0.4346 -77.3506 1144.8176)" class="st28" cx="873.12" cy="634.01" rx="20.84" ry="13.26"/>
		<ellipse class="st29" cx="879.03" cy="619.57" rx="5.31" ry="5.25"/>
		
			<ellipse transform="matrix(0.7126 -0.7015 0.7015 0.7126 -210.4738 843.9125)" class="st30" cx="924.88" cy="678.87" rx="27.15" ry="10.42"/>
	</g>
</g>
</svg>
