<?xml version="1.0" encoding="utf-8"?>
<!-- Generator: Adobe Adobe Illustrator 24.2.0, SVG Export Plug-In . SVG Version: 6.00 Build 0)  -->
<svg version="1.1" id="Layer_1" xmlns="http://www.w3.org/2000/svg" xmlns:xlink="http://www.w3.org/1999/xlink" x="0px" y="0px"
	 width="200px" height="200px" viewBox="0 0 200 200" style="enable-background:new 0 0 200 200;" xml:space="preserve">
<style type="text/css">
	.st0{fill:none;stroke:#6D92B5;stroke-width:3;stroke-miterlimit:10;}
	.st1{fill:#C9598B;stroke:#C9598B;stroke-width:4;stroke-miterlimit:10;}
</style>
<path class="st0" d="M63.85,89.88c0-20.99,22.39-38.01,50-38.01s50,17.02,50,38.01s-21.52,38.88-49.14,38.88
	c-0.33,0.02-17.46,19.98-18.32,19.36c-0.46-0.33,2.05-21.83,1.3-22.04C77.74,120.48,63.85,106.82,63.85,89.88z"/>
<path class="st1" d="M114.14,97.88c12.76-2.19,14.63-14.28,14.64-14.47c0.96-12.23-9.47-15.91-9.53-15.93
	c-7.07-2.66-12.44,0.83-12.7,0.98c-7.34,4.5-7.71,14.63-7.71,14.63l1.33-0.01c0,0,0.77-9.15,6.6-13.12
	c0.13-0.09,5.07-3.74,11.91-1.33c0.61,0.21,9.68,3.61,8.79,14.58c-0.06,0.71-1.24,11.17-13.22,13.44c-0.42,0.08-1.71,0.22-1.71,0.22
	s-0.1,0.03-0.1,2.44c0,1.37,0.1,3.78,0.1,3.78l1.56,0.06C114.11,103.14,113.94,97.92,114.14,97.88z"/>
<circle class="st1" cx="113.02" cy="114.11" r="0.82"/>
</svg>
