<?xml version="1.0" encoding="utf-8"?>
<!-- Generator: Adobe Adobe Illustrator 24.2.0, SVG Export Plug-In . SVG Version: 6.00 Build 0)  -->
<svg version="1.1" id="Layer_1" xmlns="http://www.w3.org/2000/svg" xmlns:xlink="http://www.w3.org/1999/xlink" x="0px" y="0px"
	 width="800px" height="800px" viewBox="0 0 800 800" style="enable-background:new 0 0 800 800;" xml:space="preserve">
<style type="text/css">
	.st0{fill:#FFCC7A;}
</style>
<path class="st0" d="M601.51,384.52v-45.26c0-12.12-9.83-21.95-21.95-21.95H166.42c-12.12,0-21.95,9.83-21.95,21.95v45.26
	c0,12.12,9.83,21.95,21.95,21.95h413.14C591.68,406.47,601.51,396.64,601.51,384.52z"/>
<path class="st0" d="M636.79,370.62l-48.8,34.22c-7.07,4.96-16.79-0.1-16.79-8.73v-68.43c0-8.63,9.72-13.69,16.79-8.73l48.8,34.22
	C642.85,357.4,642.85,366.37,636.79,370.62z"/>
<path class="st0" d="M601.51,384.52v-45.26c0-12.12-9.83-21.95-21.95-21.95H166.42c-12.12,0-21.95,9.83-21.95,21.95v45.26
	c0,12.12,9.83,21.95,21.95,21.95h413.14C591.68,406.47,601.51,396.64,601.51,384.52z"/>
</svg>
