<?xml version="1.0" encoding="UTF-8"?>
<svg xmlns="http://www.w3.org/2000/svg" width="706.6484586399613" height="402.2772677844372" viewBox="1228.7090761955344 -24.530890423083747 706.6484586399613 402.2772677844372">
  <g>
    <g id="s-Image_2-d1224" filter="none">
      <g transform="matrix(0.7066484586399613 0.0 0.0 0.5363696903792495 1228.7090761955344 -24.530890423083747)">
        <svg width="999.9999999999999" height="749.9999999999999" viewBox="127.7090761955344 150.46910957691625 706.6484586399613 402.27726778443713" preserveAspectRatio="none">
          <style type="text/css">.st0{fill:#FFCC7A;}
	.st1{fill:#FFCC7A;stroke:#D9AB62;stroke-width:8;stroke-miterlimit:10;}
	.st2{fill:#D9AB62;}
	.st3{fill:#85632C;stroke:#D9AB62;stroke-width:2;stroke-miterlimit:10;}</style>
          <g>
            <g>
              <g>
                <path class="st0" d="M761.3,158.8l-560.98-0.87c-4,63.43-62.73,64.22-62.73,64.22l-0.31,40.87c0.7,0.11,1.4,0.29,2.06,0.55     c0.01,0,0.02,0.01,0.03,0.01c0.18,0.07,0.36,0.14,0.54,0.22c0.61,0.26,1.2,0.57,1.76,0.95c0.48,0.32,0.93,0.68,1.35,1.08     c0.21,0.2,0.42,0.41,0.61,0.63c0.12,0.13,0.24,0.28,0.36,0.43c0.01,0.01,0.02,0.01,0.02,0.02c0.02,0.03,0.04,0.06,0.06,0.09     c0,0,0,0,0,0c0.01,0.01,0.02,0.03,0.03,0.04c0.23,0.31,0.44,0.64,0.64,0.98c0.02,0.04,0.05,0.07,0.07,0.11     c0.07,0.11,0.14,0.23,0.2,0.35c0.08,0.15,0.14,0.3,0.2,0.45c0.04,0.07,0.08,0.14,0.12,0.21c0.26,0.53,0.44,1.1,0.55,1.68     c0.13,0.44,0.23,0.89,0.28,1.35c0.04,0.35,0.08,0.72,0.07,1.08c0.05,0.54,0.02,1.08-0.06,1.61c-0.05,0.36-0.14,0.73-0.24,1.09     c-0.01,0.04-0.01,0.07-0.02,0.11c-0.05,0.27-0.12,0.53-0.21,0.78c-0.08,0.22-0.17,0.44-0.27,0.66c0,0,0,0.01-0.01,0.01     c-0.03,0.07-0.06,0.13-0.09,0.2c0,0.01-0.01,0.01-0.01,0.02c-0.04,0.13-0.09,0.25-0.15,0.37c-0.04,0.07-0.08,0.14-0.12,0.21     c0,0.01-0.01,0.01-0.01,0.02c-0.24,0.51-0.53,0.99-0.89,1.43c-0.01,0.01-0.01,0.02-0.02,0.03c0,0,0,0,0,0     c-0.02,0.03-0.04,0.06-0.06,0.08c-0.02,0.02-0.04,0.03-0.06,0.04c-0.16,0.22-0.32,0.44-0.5,0.64c-0.24,0.27-0.5,0.51-0.76,0.75     c-0.28,0.26-0.58,0.51-0.89,0.73c-0.15,0.11-0.3,0.22-0.45,0.31c-0.02,0.01-0.04,0.02-0.06,0.03c-0.41,0.26-0.83,0.52-1.27,0.71     c-0.02,0.01-0.04,0.02-0.06,0.03l0-0.01c-0.04,0.01-0.07,0.04-0.1,0.05c-0.01,0-0.01,0-0.02,0c-0.02,0.01-0.05,0.02-0.07,0.03     c0,0,0,0,0,0c0,0,0,0,0,0c-0.37,0.18-0.76,0.3-1.16,0.42c-0.05,0.02-0.11,0.05-0.16,0.07c-0.06,0.02-0.12,0.02-0.18,0.03     c-0.23,0.08-0.46,0.13-0.7,0.15c-0.06,0.01-0.11,0.04-0.16,0.05c-0.11,0.02-0.22,0.03-0.34,0.04l-0.13,17.04     c0.1,0.02,0.2,0.04,0.3,0.07c0,0,0,0,0,0c0,0,0.01,0,0.01,0c0.1,0.01,0.19,0.03,0.29,0.04c0.14,0.02,0.28,0.05,0.42,0.07     c0.14,0.03,0.28,0.06,0.41,0.09c0.08,0.02,0.16,0.05,0.24,0.08c0.01,0,0.03,0,0.04,0c0.07,0.02,0.14,0.05,0.21,0.07     s0.14,0.04,0.21,0.07c0.07,0.03,0.14,0.05,0.2,0.08c0,0,0.01,0,0.01,0.01c0.2,0.06,0.38,0.16,0.57,0.24     c0.12,0.05,0.23,0.12,0.34,0.18c0.02,0,0.04,0,0.06,0.01c0.09,0.04,0.18,0.07,0.26,0.12c0.09,0.05,0.18,0.11,0.28,0.17     c0.02,0.01,0.04,0.01,0.06,0.02c0.15,0.07,0.3,0.16,0.44,0.25c0.13,0.08,0.25,0.18,0.37,0.27c0.01,0.01,0.02,0.01,0.03,0.02     c0.38,0.23,0.73,0.5,1.04,0.81c0.03,0.04,0.06,0.07,0.1,0.11c0.08,0.07,0.16,0.14,0.23,0.21c0.16,0.16,0.32,0.32,0.46,0.49     c0.19,0.23,0.35,0.46,0.51,0.71c0.02,0.02,0.04,0.05,0.05,0.07c0.02,0.02,0.04,0.04,0.05,0.06c0.17,0.22,0.33,0.44,0.47,0.68     c0.02,0.03,0.04,0.05,0.06,0.08c0.02,0.03,0.03,0.07,0.05,0.1c0.06,0.1,0.11,0.2,0.16,0.3c0.12,0.21,0.24,0.41,0.34,0.63     c0.03,0.08,0.06,0.16,0.09,0.23c0.16,0.26,0.29,0.54,0.35,0.83c0.23,0.59,0.35,1.22,0.42,1.85c0.03,0.13,0.05,0.25,0.06,0.39     c0.02,0.16,0.03,0.31,0.04,0.47c0.01,0.27,0,0.55-0.01,0.82c0.02,0.42-0.01,0.85-0.08,1.27c0,0.01,0,0.01,0,0.02     c-0.01,0.04-0.01,0.05,0,0.02c0,0.02,0,0.04,0,0.06c0,0.04-0.01,0.09-0.01,0.13c-0.01,0.07-0.01,0.15-0.02,0.23     c-0.02,0.17-0.04,0.33-0.07,0.5c-0.06,0.32-0.16,0.64-0.29,0.94c-0.01,0.01-0.02,0.01-0.02,0.02c-0.13,0.47-0.3,0.93-0.54,1.36     c-0.01,0.01-0.02,0.02-0.03,0.03c-0.12,0.24-0.27,0.47-0.42,0.69c-0.1,0.15-0.2,0.3-0.3,0.46c-0.03,0.06-0.06,0.12-0.09,0.17     c-0.15,0.25-0.33,0.48-0.51,0.7c-0.01,0.01-0.02,0.02-0.04,0.04c-0.01,0.02-0.02,0.04-0.04,0.06c-0.09,0.1-0.18,0.19-0.27,0.29     c-0.04,0.05-0.09,0.09-0.13,0.14c-0.01,0.01-0.01,0.02-0.01,0.03c-0.18,0.2-0.39,0.38-0.6,0.56c-0.01,0.01-0.02,0.02-0.03,0.03     c0,0,0,0,0,0c0,0,0,0-0.01,0c-0.05,0.05-0.1,0.11-0.16,0.16c-0.11,0.08-0.21,0.17-0.33,0.24c-0.01,0.01-0.03,0.01-0.04,0.02     c-0.27,0.23-0.57,0.44-0.88,0.62c0,0,0,0.01-0.01,0.01c-0.07,0.05-0.14,0.09-0.21,0.13c-0.05,0.03-0.09,0.07-0.14,0.1     c-0.02,0.01-0.05,0.02-0.07,0.04c-0.01,0.01-0.02,0.02-0.03,0.02c-0.05,0.03-0.09,0.05-0.14,0.07c-0.04,0.02-0.07,0.04-0.11,0.06     c0,0,0,0,0,0c-0.01,0.01-0.02,0.01-0.03,0.01c-0.04,0.02-0.08,0.04-0.11,0.06c0,0-0.01,0.01-0.01,0.01     c-0.4,0.23-0.84,0.4-1.3,0.51c-0.13,0.06-0.25,0.11-0.38,0.16c-0.38,0.14-0.77,0.25-1.16,0.33c-0.2,0.04-0.41,0.07-0.61,0.09     c-0.04,0-0.08,0.01-0.12,0.01l-0.13,16.94c0.03,0,0.06,0.01,0.09,0.01c0.01,0,0.01,0,0.02,0c0.03,0,0.05,0.01,0.07,0.02     c0,0,0.01,0,0.01,0c0.09,0,0.19,0.02,0.28,0.03c0.21,0.03,0.43,0.06,0.64,0.1c0.19,0.04,0.37,0.08,0.55,0.13     c0.1,0.03,0.2,0.06,0.29,0.1c0.43,0.1,0.9,0.24,1.26,0.49c0.01,0,0.02,0.01,0.03,0.01c0.02,0.01,0.04,0.01,0.06,0.02     c0.39,0.16,0.76,0.34,1.1,0.59c0,0,0.01,0.01,0.01,0.01c0.1,0.06,0.2,0.11,0.3,0.17c0.32,0.21,0.64,0.43,0.93,0.67     c0.18,0.15,0.37,0.32,0.54,0.5c0.04,0.04,0.09,0.08,0.13,0.12c0,0.01,0.01,0.01,0.01,0.02c0.03,0.03,0.07,0.04,0.1,0.07     c0.09,0.09,0.17,0.18,0.24,0.28c0.05,0.05,0.11,0.1,0.16,0.15c0.21,0.24,0.41,0.48,0.61,0.73c0.37,0.47,0.71,0.97,0.92,1.53     c0.04,0.07,0.08,0.14,0.11,0.21c0.04,0.09,0.08,0.19,0.12,0.28c0.01,0.03,0.03,0.05,0.04,0.08c0.01,0.01,0.01,0.03,0.01,0.04     c0,0.01,0.01,0.02,0.01,0.03c0.02,0.05,0.05,0.1,0.08,0.15c0.22,0.49,0.39,0.98,0.5,1.5c0.07,0.32,0.11,0.64,0.15,0.96     c0,0,0,0,0,0c0.01,0.04,0.01,0.07,0.01,0.11h0c0,0,0,0.01,0,0.01c0.12,0.74,0.15,1.52,0.08,2.26c-0.04,0.4-0.1,0.78-0.17,1.18     c-0.06,0.32-0.09,0.68-0.25,0.97c-0.03,0.21-0.11,0.43-0.19,0.62c-0.11,0.27-0.22,0.54-0.34,0.83c-0.12,0.26-0.27,0.51-0.41,0.75     c-0.01,0.01-0.01,0.02-0.02,0.03l0,0c-0.02,0.04-0.05,0.08-0.07,0.12c-0.01,0.01-0.01,0.03-0.02,0.04     c-0.04,0.09-0.09,0.18-0.14,0.26c-0.04,0.06-0.08,0.11-0.12,0.17c-0.01,0.02-0.02,0.04-0.03,0.06c0,0,0,0,0,0     c-0.03,0.03-0.05,0.07-0.07,0.11c-0.01,0.01-0.03,0.01-0.04,0.02c-0.1,0.18-0.2,0.36-0.33,0.53c-0.15,0.2-0.32,0.39-0.49,0.57     c-0.01,0.01-0.02,0.02-0.03,0.03c-0.01,0.01-0.01,0.02-0.02,0.03c-0.12,0.13-0.25,0.26-0.38,0.38c-0.01,0.01-0.02,0.03-0.03,0.04     c-0.01,0.01-0.02,0.02-0.04,0.03c-0.33,0.33-0.68,0.64-1.05,0.92c-0.35,0.26-0.72,0.48-1.12,0.65c-0.44,0.28-0.92,0.52-1.41,0.7     c-0.34,0.13-0.68,0.24-1.02,0.31c-0.31,0.09-0.63,0.17-0.96,0.22c-0.19,0.03-0.38,0.05-0.58,0.07c-0.05,0.01-0.1,0.02-0.14,0.03     c-0.06,0.01-0.12,0.02-0.19,0.02l-0.13,16.99c0.04,0,0.07-0.01,0.12,0c0.03,0.01,0.06,0.01,0.09,0.02     c0.87,0.07,1.73,0.21,2.56,0.52c0.48,0.18,0.96,0.39,1.42,0.63c0.19,0.1,0.41,0.22,0.62,0.35c0.41,0.14,0.78,0.44,1.11,0.7     c0.34,0.27,0.67,0.57,0.96,0.89c0.37,0.4,0.72,0.85,1.02,1.32c0.15,0.2,0.3,0.4,0.43,0.62c0.01,0.02,0.03,0.05,0.04,0.08     c0.01,0.01,0.02,0.02,0.02,0.03c0.01,0.01,0.01,0.02,0.01,0.03c0.12,0.21,0.23,0.42,0.33,0.64c0.01,0.02,0.02,0.04,0.02,0.06     c0.08,0.15,0.17,0.29,0.24,0.45c0.15,0.32,0.3,0.7,0.39,1.08c0.02,0.03,0.04,0.06,0.04,0.09c0.05,0.19,0.1,0.37,0.13,0.56     c0.01,0.04,0.01,0.07,0.01,0.1c0,0.02,0.01,0.03,0.01,0.05c0.05,0.23,0.1,0.45,0.14,0.68c0.04,0.25,0.07,0.51,0.09,0.77     c0.01,0.07,0.01,0.14,0.01,0.21c0,0.03,0.02,0.05,0.02,0.08c0.01,0.07,0.01,0.14,0.01,0.21c0,0.02-0.01,0.04-0.01,0.06     c0,0.01,0,0.01,0,0.02c0,0.01,0,0.02,0,0.03c0,0.01,0,0.02,0,0.03c0,0.01-0.01,0.02-0.01,0.03c0,0,0,0.01,0,0.01     c0.01,0.02,0.02,0.03,0.02,0.05c0.01,0.43-0.04,0.85-0.12,1.27c-0.02,0.19-0.04,0.39-0.08,0.58c-0.07,0.42-0.15,0.84-0.27,1.25     c-0.17,0.58-0.38,1.18-0.68,1.71c-0.02,0.05-0.05,0.11-0.07,0.16c-0.09,0.18-0.19,0.36-0.3,0.52c-0.01,0.02-0.03,0.04-0.05,0.05     c-0.08,0.16-0.16,0.32-0.25,0.48c-0.3,0.48-0.64,0.91-1.02,1.32c-0.36,0.4-0.76,0.78-1.19,1.11c-0.34,0.27-0.73,0.58-1.14,0.78     c0,0,0,0.01-0.01,0.01c-0.11,0.07-0.22,0.13-0.33,0.18c-0.06,0.03-0.11,0.06-0.17,0.09c-0.03,0.01-0.05,0.03-0.08,0.04     c-0.02,0.01-0.05,0.01-0.07,0.02c-0.08,0.04-0.15,0.1-0.23,0.13c-0.04,0.02-0.08,0.04-0.12,0.05c-0.02,0.01-0.04,0.02-0.06,0.03     c-0.09,0.04-0.18,0.08-0.27,0.11c-0.05,0.02-0.09,0.04-0.14,0.06c-0.13,0.05-0.25,0.1-0.38,0.13c-0.23,0.1-0.47,0.2-0.71,0.27     c-0.49,0.15-1.01,0.23-1.52,0.27c-0.24,0.02-0.5,0.03-0.74,0.01l-0.13,16.97c0.09,0,0.18,0.01,0.27,0.01     c0.04,0,0.07,0.01,0.11,0.01c0.08,0.01,0.16,0.02,0.24,0.03c0.96,0.01,1.92,0.23,2.84,0.69c0.08,0.02,0.16,0.04,0.22,0.06     c0.08,0.03,0.16,0.06,0.24,0.1c0,0,0,0,0,0c0.02,0.01,0.04,0.02,0.06,0.03c0.13,0.05,0.26,0.11,0.39,0.17     c0.41,0.2,0.79,0.43,1.16,0.68c0.21,0.15,0.41,0.3,0.61,0.46c0.1,0.08,0.18,0.17,0.26,0.28c0.05,0.03,0.1,0.07,0.14,0.11     c0.09,0.07,0.17,0.15,0.25,0.22c0.03,0.03,0.05,0.07,0.07,0.1c0.03,0.03,0.07,0.06,0.1,0.09c0.05,0.02,0.1,0.05,0.13,0.09     c0.12,0.14,0.24,0.28,0.36,0.42c0.02,0.02,0.03,0.05,0.04,0.07c0,0.01,0.01,0.01,0.01,0.02c0.01,0.01,0.01,0.03,0.02,0.04     c0.02,0.02,0.03,0.03,0.05,0.05c0,0,0,0,0,0.01c0.04,0.02,0.08,0.04,0.11,0.07c0.08,0.09,0.16,0.18,0.23,0.27     c0.06,0.07,0.11,0.15,0.17,0.22c0.04,0.05,0.07,0.1,0.09,0.15c0.01,0.02,0.01,0.04,0.01,0.05c0,0,0,0,0,0     c0.1,0.13,0.2,0.25,0.28,0.39c0.03,0.05,0.05,0.1,0.08,0.15c0.14,0.21,0.24,0.43,0.34,0.65c0.05,0.1,0.12,0.18,0.16,0.28     c0.06,0.13,0.12,0.26,0.18,0.39c0,0.01,0.01,0.01,0.01,0.02c0,0,0,0,0,0c0.01,0.03,0.03,0.06,0.04,0.09     c0.02,0.04,0.02,0.08,0.01,0.13c0.27,0.62,0.48,1.26,0.57,1.96c0.07,0.29,0.11,0.58,0.11,0.88c0.06,0.3,0.1,0.6,0.1,0.91     c0,0.02-0.01,0.04-0.01,0.06c0.01,0.13,0.02,0.27,0.03,0.4c0.01,0.45-0.04,0.92-0.16,1.36c-0.07,0.65-0.23,1.26-0.47,1.84     c0,0.05,0,0.1-0.02,0.14c-0.07,0.18-0.1,0.37-0.18,0.55c-0.06,0.14-0.14,0.27-0.21,0.4c-0.07,0.15-0.16,0.29-0.24,0.43     c-0.01,0.02-0.02,0.05-0.03,0.07c-0.04,0.08-0.09,0.15-0.14,0.23c-0.02,0.03-0.03,0.06-0.05,0.09c-0.01,0.02-0.03,0.05-0.05,0.07     c-0.1,0.17-0.2,0.35-0.31,0.52c-0.07,0.1-0.15,0.21-0.25,0.32c-0.18,0.24-0.35,0.49-0.56,0.72c0,0-0.01,0-0.01,0.01     c-0.02,0.03-0.04,0.05-0.06,0.08c-0.07,0.12-0.16,0.24-0.27,0.32c-0.03,0.02-0.07,0.05-0.1,0.07c-0.13,0.17-0.28,0.31-0.45,0.44     c-0.04,0.04-0.07,0.07-0.11,0.11c-0.09,0.08-0.18,0.15-0.27,0.23c-0.11,0.09-0.24,0.17-0.36,0.26c-0.01,0.01-0.01,0.02-0.02,0.03     c0,0,0,0,0,0c0,0-0.01,0.01-0.01,0.01c-0.02,0.02-0.03,0.03-0.05,0.04c-0.02,0.02-0.03,0.03-0.05,0.04     c-0.01,0.01-0.02,0.01-0.03,0.02c-0.01,0-0.01,0.01-0.02,0.01c0,0-0.01,0-0.01,0c0,0,0,0,0,0c-0.02,0.01-0.03,0.01-0.05,0.02     c0,0-0.01,0.01-0.01,0.01c-0.03,0.02-0.07,0.04-0.1,0.06c-0.03,0.03-0.07,0.05-0.1,0.08c0.03-0.02,0.05-0.04,0.08-0.06     c-0.07,0.05-0.13,0.11-0.21,0.16c-0.05,0.03-0.1,0.06-0.15,0.09c-0.05,0.03-0.1,0.06-0.15,0.1c-0.02,0.01-0.04,0.02-0.06,0.03     c0,0,0,0-0.01,0.01c-0.05,0.03-0.1,0.06-0.15,0.09c-0.05,0.03-0.1,0.06-0.16,0.08c-0.05,0.02-0.11,0.05-0.16,0.07     c-0.15,0.09-0.3,0.17-0.45,0.25c-0.22,0.11-0.46,0.22-0.71,0.28c-0.39,0.19-0.79,0.36-1.21,0.49c-0.01,0.01-0.02,0.01-0.04,0.02     c-0.01,0-0.03,0-0.04,0.01c-0.63,0.18-1.28,0.28-1.97,0.28c-0.06,0-0.11-0.01-0.17-0.01l-0.32,42.17     c70.86,8.8,63.62,64.72,63.62,64.72L761,543.27c5.64-66.61,62.7-63.18,62.7-63.18l0.16-42.72c-0.39-0.02-0.78-0.08-1.16-0.16     c-0.05,0-0.1,0-0.15-0.01c-0.28-0.05-0.56-0.14-0.84-0.23c0,0,0,0,0,0c-0.02-0.01-0.04-0.01-0.07-0.02     c-0.04-0.01-0.08-0.01-0.11-0.02c-0.06-0.01-0.11-0.04-0.17-0.07c0,0-0.01,0-0.01,0c-0.05-0.02-0.1-0.04-0.14-0.05     c-0.01,0-0.02,0-0.03-0.01c-0.01,0-0.01-0.01-0.02-0.01c-0.16-0.06-0.31-0.11-0.46-0.17c-0.01,0-0.01,0-0.02-0.01     c-0.04-0.01-0.07-0.04-0.11-0.05c-0.19-0.06-0.37-0.14-0.54-0.25c-0.02,0-0.04,0-0.06-0.01c-0.1-0.05-0.2-0.1-0.3-0.16     c-0.01,0-0.01-0.01-0.02-0.02c-0.02-0.01-0.05-0.02-0.07-0.03c-0.07-0.04-0.14-0.09-0.21-0.13c-0.05-0.02-0.09-0.06-0.14-0.09     c-0.01-0.01-0.02,0-0.04-0.01c-0.05-0.03-0.1-0.07-0.15-0.1c-0.07-0.04-0.13-0.08-0.2-0.13c0,0-0.01-0.01-0.01-0.01     c-0.03-0.02-0.06-0.04-0.09-0.06c-0.51-0.3-0.95-0.68-1.36-1.11c-0.09-0.07-0.18-0.13-0.26-0.21c-0.07-0.07-0.13-0.15-0.19-0.23     c-0.01-0.01-0.03-0.03-0.04-0.04c-0.01-0.01-0.03-0.01-0.04-0.03c-0.31-0.34-0.59-0.71-0.85-1.09c-0.27-0.29-0.47-0.67-0.64-1.01     c-0.01-0.02-0.02-0.05-0.03-0.07c-0.25-0.4-0.44-0.83-0.57-1.28c-0.13-0.35-0.25-0.71-0.34-1.08c-0.01-0.02-0.02-0.04-0.03-0.06     c-0.01-0.05-0.02-0.09-0.03-0.14c0-0.01,0-0.01,0-0.02c0,0,0-0.01,0-0.01c-0.04-0.19-0.07-0.38-0.11-0.57     c-0.16-0.84-0.21-1.69-0.15-2.54c0-0.01,0-0.01,0-0.02c0-0.02,0-0.03,0.01-0.05c0-0.05,0-0.1,0-0.14c0-0.03,0.02-0.06,0.02-0.09     c0.02-0.27,0.06-0.54,0.13-0.8c0.23-1.6,0.85-3.12,1.84-4.41c0.02-0.03,0.02-0.06,0.04-0.09c0.06-0.07,0.13-0.14,0.19-0.21     c0.03-0.04,0.06-0.08,0.1-0.12c0,0,0.01,0,0.01-0.01c0.11-0.14,0.22-0.27,0.34-0.4c0,0,0.01-0.01,0.01-0.01c0,0,0,0,0,0     c0.27-0.3,0.56-0.58,0.85-0.85c0.02-0.02,0.03-0.04,0.05-0.05c1.07-0.95,2.32-1.69,3.7-2.14c0.04-0.01,0.07-0.01,0.1-0.01     c0.79-0.26,1.61-0.44,2.46-0.5L824,399.3c-0.24-0.02-0.47-0.05-0.71-0.09c-1.01-0.11-1.98-0.37-2.91-0.8     c-0.01,0-0.02-0.02-0.03-0.02c-0.03-0.01-0.06-0.02-0.08-0.03c-0.14-0.06-0.27-0.12-0.41-0.19c-0.25-0.12-0.5-0.26-0.74-0.41     c-0.52-0.31-1.01-0.68-1.47-1.07c-0.02-0.02-0.03-0.04-0.04-0.06c-0.11-0.09-0.21-0.2-0.31-0.3c-0.02-0.01-0.05-0.02-0.06-0.04     c-0.22-0.2-0.41-0.42-0.59-0.66c-0.43-0.47-0.8-0.99-1.12-1.54c-0.52-0.82-0.89-1.72-1.1-2.66c0-0.02-0.01-0.03-0.01-0.05     c-0.05-0.17-0.1-0.34-0.14-0.51c-0.01-0.04-0.02-0.09-0.03-0.13c-0.04-0.19-0.08-0.37-0.1-0.56c-0.03-0.23-0.05-0.47-0.06-0.71     c0-0.02,0.01-0.04,0.01-0.06c-0.01-0.12,0-0.25,0-0.37c-0.03-0.38-0.03-0.77,0-1.15c0.02-0.84,0.16-1.69,0.47-2.47     c0-0.01,0.01-0.01,0.01-0.02c0.15-0.49,0.35-0.97,0.59-1.42c0.01-0.02,0.03-0.03,0.04-0.05c0.37-0.77,0.85-1.48,1.42-2.12     c0.13-0.19,0.28-0.36,0.46-0.51c0.02-0.03,0.03-0.06,0.05-0.08c0.18-0.18,0.37-0.34,0.57-0.49c0.36-0.34,0.74-0.66,1.17-0.92     c0.03-0.02,0.06-0.02,0.08-0.03c0.29-0.19,0.6-0.35,0.91-0.51c0.2-0.12,0.41-0.22,0.63-0.3c0.28-0.13,0.57-0.25,0.86-0.34     c0.02-0.01,0.04,0,0.06,0c0.85-0.31,1.75-0.49,2.66-0.5l0.06-16.88c-0.01,0-0.02,0-0.03,0c0,0,0,0,0,0     c-0.44-0.01-0.89-0.06-1.32-0.14c-0.01,0-0.01-0.01-0.02-0.01c0,0,0,0-0.01,0c-0.05,0-0.1-0.01-0.15-0.02     c-0.09-0.02-0.17-0.03-0.25-0.05c-0.01,0-0.02-0.01-0.03-0.02c-0.01,0-0.02,0-0.04-0.01c-0.01,0-0.01-0.01-0.02-0.01     c-0.24-0.04-0.48-0.1-0.72-0.18c-0.01,0-0.02-0.01-0.03-0.02c-0.18-0.06-0.36-0.12-0.54-0.19c-0.01,0-0.02-0.01-0.03-0.02     c-0.34-0.13-0.67-0.27-0.99-0.43c-0.01-0.01-0.02-0.02-0.03-0.03c-0.18-0.08-0.35-0.17-0.52-0.28c-0.01-0.01-0.02-0.01-0.03-0.01     c-0.01,0-0.01-0.01-0.02-0.01c-0.06-0.03-0.11-0.07-0.16-0.11c-0.37-0.2-0.73-0.43-1.06-0.7c-0.01-0.01-0.01-0.02-0.02-0.02     c-0.01-0.01-0.03-0.01-0.04-0.02c-0.21-0.14-0.41-0.32-0.6-0.49c-0.11-0.1-0.2-0.22-0.3-0.33c-0.16-0.1-0.29-0.26-0.41-0.4     c-0.01-0.01-0.02-0.03-0.04-0.05c0,0-0.01,0-0.01-0.01c-0.02-0.02-0.04-0.05-0.06-0.08c-0.01-0.01-0.01-0.01-0.02-0.02     c0,0,0,0,0,0c-0.03-0.03-0.06-0.06-0.08-0.1c0-0.01,0-0.02-0.01-0.02c0,0,0,0,0,0c-0.02-0.02-0.04-0.03-0.05-0.05     c-0.1-0.11-0.19-0.24-0.27-0.36c-0.27-0.32-0.52-0.66-0.72-1.03c-0.01-0.02-0.01-0.04-0.02-0.06c-0.13-0.21-0.26-0.41-0.37-0.63     c-0.03-0.06-0.05-0.13-0.06-0.19c-0.33-0.68-0.59-1.39-0.77-2.13c-0.01-0.02,0-0.04,0-0.06c-0.01-0.06-0.02-0.11-0.03-0.17     c-0.13-0.69-0.2-1.38-0.2-2.07c-0.04-0.65,0.01-1.3,0.15-1.94c0,0,0,0,0,0c0-0.02,0.01-0.05,0.01-0.07     c0.01-0.04,0.01-0.08,0.02-0.12c0,0,0,0,0,0c0.18-0.97,0.51-1.9,0.98-2.76c0.15-0.33,0.33-0.63,0.53-0.93c0,0,0,0,0,0     c0-0.01,0.01-0.01,0.01-0.01c0.05-0.08,0.1-0.16,0.16-0.24c0.41-0.64,0.92-1.21,1.48-1.72c0.02-0.04,0.04-0.08,0.08-0.11     c0.11-0.1,0.23-0.19,0.35-0.29c0.01-0.01,0.02-0.02,0.03-0.03c0,0,0.01,0,0.01-0.01c0.06-0.04,0.11-0.09,0.16-0.13     c0.06-0.05,0.12-0.1,0.18-0.15c0.01-0.01,0.02-0.01,0.02-0.01c0.02-0.01,0.04-0.03,0.06-0.05c0,0,0,0,0,0     c0.01,0,0.01-0.01,0.02-0.01c0.2-0.16,0.41-0.29,0.63-0.41c0.23-0.18,0.49-0.33,0.77-0.45c0.06-0.04,0.13-0.06,0.19-0.09     c0.17-0.11,0.36-0.2,0.56-0.28c0.05-0.04,0.11-0.07,0.18-0.09c0.12-0.04,0.24-0.07,0.36-0.11c0,0,0.01,0,0.01-0.01     c0.23-0.1,0.47-0.18,0.72-0.25c0.01,0,0.02,0,0.04,0c0.01,0,0.01-0.01,0.02-0.01c0.04-0.01,0.08-0.01,0.12-0.02     c0.01,0,0.01-0.01,0.02-0.01c0.09-0.05,0.2-0.06,0.3-0.06c0.36-0.11,0.73-0.18,1.11-0.2c0,0,0.01,0,0.01,0c0,0,0,0,0.01,0     c0,0,0,0,0,0c0.04,0,0.08,0,0.12-0.01c0.25-0.05,0.49-0.07,0.74-0.08l0.06-16.87c-0.02,0-0.03,0-0.04-0.01c0,0,0,0,0,0     c-0.26,0.01-0.53-0.02-0.79-0.06l-0.04,0c-0.43-0.04-0.86-0.11-1.29-0.22c-0.01,0-0.02-0.01-0.03-0.01l-0.06-0.01     c-0.15-0.03-0.29-0.08-0.44-0.13c-0.03,0-0.06,0-0.08-0.01c-0.52-0.16-1.02-0.38-1.5-0.63c-0.28-0.1-0.54-0.24-0.77-0.41     c-0.19-0.1-0.37-0.21-0.54-0.34c-0.03-0.01-0.06-0.02-0.1-0.05l-0.1-0.08c0,0,0,0-0.01-0.01c0,0,0,0,0-0.01     c-0.07-0.05-0.13-0.1-0.2-0.14c0,0-0.01-0.01-0.01-0.01c-0.14-0.1-0.28-0.21-0.41-0.34c-0.03-0.02-0.07-0.04-0.1-0.06     c-0.09-0.06-0.17-0.13-0.25-0.21c-0.01-0.01-0.02-0.03-0.03-0.05c-0.11-0.08-0.22-0.18-0.31-0.28c-0.1-0.1-0.19-0.22-0.29-0.33     c-0.01-0.01-0.02-0.02-0.03-0.03c-0.01-0.01-0.01-0.02-0.01-0.02c-0.1-0.11-0.2-0.21-0.29-0.33c-0.15-0.18-0.28-0.37-0.42-0.56     c0-0.01-0.01-0.01-0.01-0.02c-0.22-0.3-0.43-0.61-0.62-0.94c-0.02-0.02-0.04-0.04-0.06-0.06c-0.55-0.89-0.94-1.89-1.14-2.92     c-0.01-0.02-0.02-0.03-0.03-0.05c0-0.02-0.01-0.04-0.01-0.06c0-0.02,0-0.04,0-0.06c-0.05-0.26-0.09-0.52-0.12-0.78     c0-0.01-0.01-0.02-0.01-0.03c0-0.01,0-0.03,0-0.04c-0.04-0.33-0.07-0.66-0.08-0.99c0-0.01,0-0.02,0.01-0.03     c0-0.01-0.01-0.02-0.01-0.03c0-0.01,0-0.03,0.01-0.04c-0.02-0.1,0-0.2,0.01-0.31c0,0,0,0,0,0c-0.01-0.04-0.01-0.09-0.02-0.13     c0-0.03,0.01-0.06,0.02-0.08c-0.01-0.08-0.01-0.16-0.01-0.24c0-0.11,0.03-0.22,0.04-0.33c0-0.01-0.01-0.01-0.01-0.02     c0.02-0.45,0.08-0.89,0.2-1.32c0,0,0,0,0-0.01c0.01-0.09,0.03-0.18,0.05-0.27c0.03-0.11,0.05-0.22,0.08-0.34     c0.02-0.07,0.04-0.14,0.07-0.21c0.01-0.05,0.01-0.11,0.02-0.16c0.01-0.03,0.02-0.07,0.03-0.1c0.01-0.04,0.03-0.07,0.05-0.1     c0.01-0.05,0.01-0.11,0.03-0.16c0.08-0.23,0.2-0.44,0.3-0.66c0.09-0.19,0.18-0.38,0.27-0.57c0-0.01,0.01-0.01,0.02-0.02     c0.17-0.36,0.37-0.71,0.61-1.03c0.01-0.01,0.01-0.02,0.02-0.03c0-0.01,0.01-0.01,0.01-0.01c0.21-0.37,0.46-0.71,0.74-1.01     c0.01-0.01,0.02-0.03,0.03-0.05c0.05-0.05,0.11-0.11,0.16-0.17c0,0,0,0,0,0c1.01-1.13,2.25-2.02,3.64-2.62     c0.09-0.04,0.17-0.08,0.26-0.12c0.01,0,0.01-0.01,0.02-0.01c0,0,0.01,0,0.01,0c0.29-0.12,0.59-0.23,0.89-0.3     c0.01-0.01,0.03-0.01,0.04-0.02c0.01-0.01,0.03,0,0.04,0c0.06-0.01,0.11-0.03,0.17-0.04c0.01,0,0.02-0.01,0.03-0.01     c0.75-0.24,1.55-0.35,2.34-0.36c0.02,0,0.04-0.01,0.06-0.01h0.07l0.06-16.89c-0.01,0-0.01,0-0.02,0c-0.01,0-0.02,0.01-0.04,0.01     c-0.03,0-0.06-0.01-0.09-0.01c-0.19,0-0.38-0.01-0.57-0.03c0,0,0,0-0.01,0c-0.01,0-0.02,0-0.03,0c-0.03,0-0.06,0-0.09,0     c0,0,0.01,0,0.01,0c0,0-0.01,0-0.01,0c-0.09-0.01-0.17-0.02-0.25-0.03c-0.03,0-0.06-0.01-0.09-0.01     c0.03,0.01,0.06,0.01,0.08,0.01c0,0,0,0,0,0c-0.01,0-0.02,0-0.03,0c0.01,0,0.02,0,0.03,0c-0.01,0-0.02,0-0.03,0     c-0.04,0-0.08,0-0.11-0.02l0.06,0.01c-0.01,0-0.01,0-0.02,0c-0.02,0-0.05,0-0.07-0.01c0.02,0,0.04,0,0.05,0.01     c-0.09-0.01-0.18-0.04-0.28-0.05c-0.44-0.03-0.86-0.12-1.27-0.27c-0.04-0.01-0.09-0.02-0.13-0.03l0-0.01     c-0.04-0.02-0.08-0.02-0.12-0.04c0,0,0,0-0.01-0.01c-0.02,0-0.03,0.01-0.05,0c-1.07-0.36-2.09-0.87-2.98-1.56     c-0.01,0-0.01-0.01-0.01-0.01c-0.02-0.01-0.03-0.02-0.05-0.04c-0.17-0.1-0.31-0.22-0.45-0.36c-0.07-0.05-0.15-0.1-0.22-0.16     c-0.07-0.05-0.13-0.11-0.19-0.17c-0.01-0.01-0.01-0.01-0.01-0.02c0,0-0.01-0.01-0.02-0.01c-0.07-0.07-0.15-0.14-0.22-0.22     c-0.01-0.01-0.01-0.01-0.01-0.02c-0.01-0.01-0.01-0.02-0.02-0.02c0,0,0,0,0,0c0,0-0.01-0.01-0.01-0.02     c-0.19-0.16-0.36-0.35-0.51-0.55c0,0,0,0,0,0c0,0,0-0.01-0.01-0.01c0,0,0,0,0,0c0,0,0,0,0,0c0,0,0,0,0,0     c-0.03-0.03-0.05-0.07-0.08-0.1c0,0,0,0,0-0.01c-0.62-0.73-1.15-1.54-1.54-2.41c0-0.01,0-0.01,0-0.02     c-0.02-0.04-0.05-0.08-0.07-0.13c0,0,0-0.01,0-0.01c0-0.01-0.01-0.01-0.01-0.02c-0.02-0.04-0.03-0.09-0.05-0.13     c-0.1-0.22-0.19-0.45-0.27-0.68c-0.18-0.54-0.31-1.09-0.39-1.65c-0.01-0.05,0-0.1,0-0.14c0-0.01,0-0.02,0-0.03     c-0.09-0.5-0.14-1.01-0.13-1.51c0-0.06-0.01-0.13-0.01-0.19c0-0.01,0.01-0.02,0.01-0.03c0-0.06,0.01-0.11,0.01-0.17     c0-0.05-0.01-0.09-0.01-0.14c0-0.01,0-0.01,0-0.02c0.01-0.18,0.01-0.36,0.02-0.54c0-0.07,0.02-0.13,0.04-0.19     c0-0.01,0-0.03,0-0.04c0-0.03,0.01-0.05,0.02-0.08c0-0.02,0.01-0.04,0.01-0.07c0.01-0.16,0.02-0.31,0.06-0.46     c0.01-0.05,0.02-0.1,0.02-0.15c0.03-0.19,0.07-0.38,0.14-0.56c0.01-0.02,0.01-0.04,0.02-0.06c0.01-0.02,0.01-0.04,0.02-0.06     c0,0,0,0,0-0.01c0,0,0,0,0,0c0.01-0.02,0.01-0.04,0.02-0.06c0-0.02,0.01-0.05,0.01-0.07c0.05-0.25,0.11-0.5,0.24-0.73     c0,0,0,0,0.01-0.01c0.07-0.23,0.14-0.45,0.24-0.67c0-0.01,0.01-0.01,0.01-0.02c0.01-0.03,0.03-0.05,0.04-0.08l-0.01,0     c0.01-0.02,0.02-0.04,0.03-0.05c0,0,0.01-0.01,0.01-0.01c0.3-0.68,0.66-1.31,1.13-1.89c0.01-0.01,0.03-0.02,0.04-0.03     c0.01-0.01,0.01-0.01,0.02-0.02c0.04-0.07,0.09-0.14,0.14-0.21c-0.02,0.02-0.04,0.04-0.06,0.07c0.03-0.03,0.05-0.07,0.08-0.1     c-0.01,0.01-0.01,0.02-0.02,0.03c0.21-0.29,0.45-0.56,0.72-0.8c0.01-0.01,0.01-0.02,0.02-0.03c0.26-0.32,0.59-0.59,0.93-0.82     c0.39-0.37,0.85-0.67,1.33-0.91c0.3-0.2,0.61-0.36,0.95-0.49c0.01-0.01,0.02-0.01,0.03-0.02c0.05-0.02,0.1-0.06,0.16-0.08     c0.01-0.01,0.03-0.02,0.04-0.02c0,0,0,0,0,0c0.02-0.01,0.04-0.02,0.05-0.03c0.37-0.17,0.75-0.32,1.15-0.43     c0.01-0.01,0.02-0.02,0.04-0.02c0.4-0.13,0.81-0.19,1.22-0.24c0.49-0.1,0.99-0.16,1.49-0.16c0.01,0,0.01,0,0.02,0l0.16-41.71     C761.56,219.3,761.3,158.8,761.3,158.8z"></path>
                <path class="st1" d="M168.92,238.62c0,0,53.35-0.68,56.99-55.98l509.67,0.76c0,0,0.24,52.75,57.57,55.26l-0.88,224.83     c0,0-51.84-2.99-56.96,55.08l-510.35,0.07c0,0,6.58-48.75-57.8-56.42L168.92,238.62z"></path>
                <rect x="252.16" y="182.64" class="st1" width="456" height="336"></rect>
                <g>
                  <path class="st2" d="M765.61,269.15l-6.83,1.06v-0.62c1.23-0.33,2.2-0.65,2.91-0.97s1.31-0.67,1.78-1.06      c0.78-0.62,1.39-1.37,1.83-2.24c0.44-0.87,0.66-1.78,0.66-2.73c0-1.34-0.41-2.43-1.22-3.29c-0.81-0.85-1.86-1.28-3.15-1.28      c-1.41,0-2.58,0.55-3.51,1.66c-0.46,0.57-0.88,1.18-1.24,1.83c-0.36,0.65-0.87,1.67-1.53,3.06c-0.42,0.95-0.81,1.75-1.15,2.41      s-0.65,1.19-0.92,1.59s-0.59,0.8-0.94,1.2c-1.53,1.69-3.53,2.54-6.01,2.54c-1.63,0-3.1-0.4-4.41-1.19      c-1.31-0.79-2.34-1.89-3.09-3.29c-0.74-1.4-1.12-2.95-1.12-4.65c0-1.18,0.2-2.54,0.59-4.09c0.25-0.91,0.68-2.11,1.31-3.6      l0.21-0.51l7.77-0.55V255c-2.09,0.54-3.96,1.4-5.6,2.59c-2.15,1.57-3.22,3.44-3.22,5.6c0,1.11,0.24,2.09,0.71,2.95      c0.47,0.86,1.12,1.53,1.95,2.02c0.83,0.49,1.77,0.73,2.84,0.73c0.94,0,1.79-0.19,2.55-0.57c0.76-0.38,1.48-0.99,2.15-1.84      c0.68-0.85,1.37-2.02,2.08-3.5c1.05-2.15,1.72-3.46,2.01-3.92c0.56-0.89,1.17-1.62,1.83-2.21s1.37-1.02,2.13-1.3      c0.77-0.28,1.59-0.42,2.46-0.42c1.35,0,2.59,0.32,3.71,0.96c1.12,0.64,2,1.51,2.65,2.63s0.96,2.35,0.96,3.7      c0,0.85-0.16,1.8-0.47,2.85l-0.33,1.1c-0.25,0.81-0.37,1.68-0.37,2.61V269.15z M740.77,255.59c-0.52,0.8-1.02,1.83-1.5,3.07      c0.82-0.82,1.5-1.43,2.03-1.85c0.53-0.42,1.29-0.9,2.26-1.43L740.77,255.59z M739.97,267.76c1.63,2.01,3.58,3.01,5.87,3.01      c0.9,0,1.78-0.17,2.63-0.5c0.85-0.33,1.58-0.81,2.18-1.43c0.92-0.9,1.91-2.49,2.97-4.76c0.9-1.89,1.51-3.11,1.83-3.68      c0.31-0.57,0.74-1.14,1.27-1.72c1.09-1.22,2.47-1.83,4.14-1.83c0.49,0,0.94,0.05,1.34,0.15c0.4,0.1,0.79,0.24,1.17,0.44      c0.38,0.2,0.88,0.52,1.51,0.97c-1.41-1.74-3.17-2.61-5.27-2.61c-2.02,0-3.62,0.71-4.8,2.12c-0.63,0.74-1.19,1.59-1.68,2.56      c-0.07,0.12-0.53,1.06-1.39,2.81c-1.03,2.12-1.96,3.58-2.79,4.38c-1.33,1.28-2.89,1.92-4.7,1.92c-0.88,0-1.65-0.14-2.33-0.43      C741.25,268.85,740.6,268.39,739.97,267.76z"></path>
                  <path class="st2" d="M738.25,274.07h0.64c0.25,1.29,0.81,2.23,1.7,2.83c0.67,0.45,1.98,0.67,3.92,0.67h15.48      c1.16,0,2.04-0.06,2.63-0.18c0.6-0.12,1.1-0.35,1.51-0.68c0.77-0.58,1.26-1.47,1.48-2.65h0.64l-0.02,0.29l-0.16,2.19      c-0.05,0.78-0.08,1.54-0.08,2.3c0,0.63,0.03,1.38,0.09,2.25c0.06,0.86,0.12,1.52,0.17,1.97l0.23,1.84      c0.08,0.66,0.12,1.34,0.12,2.04c0,1.25-0.16,2.39-0.49,3.4c-0.33,1.02-0.8,1.88-1.4,2.6c-0.61,0.72-1.34,1.27-2.2,1.66      s-1.8,0.58-2.84,0.58c-1.61,0-2.97-0.45-4.06-1.36c-1.09-0.91-1.89-2.22-2.38-3.95c-0.16,1.44-0.59,2.7-1.29,3.8      c-0.7,1.09-1.61,1.94-2.74,2.53c-1.13,0.59-2.4,0.89-3.8,0.89c-1.15,0-2.18-0.2-3.09-0.58c-0.91-0.39-1.7-0.97-2.38-1.73      c-0.68-0.77-1.19-1.69-1.53-2.77s-0.51-2.27-0.51-3.56c0-0.67,0.06-1.64,0.18-2.9c0.16-1.85,0.27-3.12,0.31-3.8      c0.07-1.11,0.1-2.12,0.1-3.03c0-0.72-0.03-1.52-0.08-2.41l-0.12-1.88L738.25,274.07z M738.99,289.61      c0.21,1.14,0.6,2.15,1.18,3.01c0.58,0.86,1.32,1.53,2.2,2c0.89,0.47,1.87,0.7,2.95,0.7c1.54,0,2.92-0.46,4.12-1.37      c1.2-0.91,2.11-2.19,2.73-3.83c-1.54,2.12-3.72,3.18-6.52,3.18C742.45,293.29,740.23,292.06,738.99,289.61z M752.56,281.76      h-8.63c-1.78,0-3.03,0.36-3.76,1.09c-0.73,0.72-1.1,1.96-1.1,3.7c0,1.98,0.64,3.49,1.91,4.53c1.26,1.02,2.82,1.53,4.7,1.53      c0.79,0,1.53-0.09,2.21-0.26c0.68-0.18,1.29-0.44,1.86-0.78s1.04-0.76,1.45-1.25c0.4-0.49,0.71-1.04,0.91-1.66      c0.31-0.84,0.47-2.09,0.47-3.76V281.76z M739.34,276.65c0.14,0.96,0.21,1.76,0.21,2.41c0,0.58-0.05,1.34-0.16,2.28l-0.04,0.44      l0.55-0.64c0.34-0.41,0.62-0.68,0.82-0.79c0.21-0.12,0.51-0.17,0.92-0.17h0.68c0.12,0,0.21,0,0.25-0.01s0.08-0.01,0.1-0.01      h19.17c0.04,0,0.08,0,0.12,0.01s0.12,0.01,0.23,0.01h0.68c0.29,0,0.51,0.02,0.68,0.06c0.16,0.04,0.32,0.12,0.46,0.25      c0.14,0.12,0.34,0.34,0.6,0.66l0.82,0.97l-0.06-0.66c-0.1-0.94-0.14-1.76-0.14-2.46c0-0.8,0.08-1.69,0.23-2.67l-0.84,0.97      c-0.36,0.43-0.63,0.69-0.83,0.8s-0.5,0.16-0.91,0.16h-0.68h-0.35h-19.17h-0.35h-0.68c-0.41,0-0.71-0.05-0.91-0.16      s-0.47-0.38-0.83-0.8L739.34,276.65z M753.36,281.76v2.96c0,1.75,0.4,3.09,1.19,4.02c0.52,0.63,1.23,1.14,2.12,1.51      s1.84,0.57,2.82,0.57c1.19,0,2.26-0.23,3.2-0.68s1.68-1.08,2.21-1.88s0.8-1.7,0.8-2.7c0-0.79-0.16-1.47-0.49-2.04      c-0.33-0.57-0.8-1.02-1.42-1.33c-0.62-0.28-1.59-0.42-2.93-0.42H753.36z M753.75,288.77c0.49,1.5,1.26,2.65,2.3,3.46      s2.28,1.21,3.73,1.21c1.46,0,2.69-0.41,3.68-1.22c0.99-0.82,1.71-2.02,2.14-3.61c-1.53,1.93-3.53,2.9-6.01,2.9      C756.97,291.51,755.02,290.59,753.75,288.77z"></path>
                  <path class="st2" d="M738.25,310.56h0.64c0.25,1.31,0.81,2.27,1.7,2.87c0.66,0.46,1.96,0.69,3.92,0.69h15.48      c1.24,0,2.15-0.06,2.71-0.18c0.56-0.12,1.04-0.35,1.44-0.68c0.77-0.61,1.26-1.51,1.48-2.7h0.64v11.37h-0.64      c-0.25-1.31-0.81-2.28-1.7-2.88c-0.36-0.24-0.83-0.42-1.42-0.53c-0.6-0.11-1.43-0.16-2.49-0.16h-6.85v12.83h6.85      c1.24,0,2.15-0.06,2.71-0.18c0.56-0.12,1.04-0.35,1.44-0.68c0.77-0.61,1.26-1.51,1.48-2.7h0.64V339h-0.64      c-0.25-1.31-0.81-2.28-1.7-2.88c-0.36-0.24-0.83-0.42-1.42-0.53c-0.6-0.11-1.43-0.16-2.49-0.16H744.5      c-1.16,0-2.04,0.06-2.64,0.19c-0.59,0.13-1.1,0.36-1.51,0.68c-0.77,0.61-1.26,1.51-1.48,2.7h-0.64v-11.37h0.64      c0.25,1.31,0.81,2.27,1.7,2.87c0.66,0.46,1.96,0.69,3.92,0.69h7.69v-12.83h-7.69c-1.16,0-2.04,0.06-2.64,0.19      c-0.59,0.13-1.1,0.36-1.51,0.68c-0.77,0.61-1.26,1.51-1.48,2.7h-0.64V310.56z M739.29,313.12v5.33l0.59-0.71      c0.34-0.41,0.62-0.68,0.82-0.79s0.51-0.17,0.92-0.17c0.22,0,0.37,0,0.44-0.01s0.15-0.01,0.24-0.01h0.35h19.17h0.35      c0.08,0,0.16,0,0.25,0.01s0.23,0.01,0.43,0.01c0.41,0,0.72,0.06,0.92,0.17s0.48,0.38,0.82,0.79l0.86,1.04v-5.99l-0.86,1.04      c-0.34,0.41-0.62,0.68-0.82,0.79c-0.21,0.12-0.51,0.17-0.92,0.17c-0.23,0.01-0.46,0.02-0.68,0.02h-0.35h-19.17h-0.35      c-0.22,0-0.44-0.01-0.68-0.02c-0.42,0-0.74-0.05-0.93-0.16c-0.2-0.11-0.47-0.38-0.81-0.8L739.29,313.12z M739.29,330.18v5.33      l0.59-0.71c0.34-0.41,0.62-0.68,0.82-0.79c0.21-0.12,0.51-0.17,0.92-0.17c0.4,0,0.62-0.01,0.68-0.02h0.35h19.17h0.35      c0.07,0.01,0.29,0.02,0.68,0.02c0.41,0,0.72,0.06,0.92,0.17c0.21,0.12,0.48,0.38,0.82,0.79l0.86,1.04v-5.99l-0.86,1.04      c-0.34,0.41-0.62,0.68-0.82,0.79c-0.21,0.12-0.51,0.17-0.92,0.17c-0.23,0.01-0.46,0.02-0.68,0.02h-0.35h-19.17h-0.35      c-0.22,0-0.44-0.01-0.68-0.02c-0.42,0-0.74-0.05-0.93-0.16c-0.2-0.11-0.47-0.38-0.81-0.8L739.29,330.18z"></path>
                  <path class="st2" d="M748.61,357.01v-9.4l-2.62-1.02c-1.29-0.49-2.34-0.73-3.18-0.73c-0.71,0-1.32,0.14-1.84,0.43      c-0.51,0.29-0.94,0.71-1.27,1.28s-0.6,1.31-0.81,2.24h-0.64v-9.47h0.62c0.44,1.14,1.2,2.13,2.3,2.95s2.8,1.69,5.11,2.6      l20.51,8.07v0.47l-22.17,8.78c-0.01,0.02-0.05,0.05-0.11,0.06c-0.06,0.02-0.13,0.04-0.19,0.07s-0.14,0.06-0.23,0.1l-1.87,0.8      c-1,0.44-1.75,0.94-2.26,1.5s-0.86,1.26-1.07,2.1h-0.64v-11.64h0.64c0.08,0.99,0.21,1.69,0.39,2.12      c0.37,0.88,1.01,1.31,1.93,1.31c0.45,0,1.19-0.2,2.21-0.58L748.61,357.01z M739.29,346.26c0.56-0.41,1.06-0.71,1.51-0.88      c0.44-0.17,0.93-0.26,1.45-0.26c0.23,0,0.42,0.01,0.55,0.02c-0.82-0.38-1.48-0.75-1.98-1.11c-0.5-0.36-1.01-0.86-1.53-1.48      V346.26z M761.48,352.65l-17.78,7.03l-0.45,0.18c-0.92,0.38-1.59,0.57-2.01,0.57c-0.59,0-1.24-0.3-1.95-0.89v4.82      c0.57-0.55,1.23-1.02,1.98-1.42c0.74-0.4,1.78-0.87,3.11-1.41l19.79-7.83L761.48,352.65z M749.47,356.66l11.14-4.4l-11.14-4.33      V356.66z"></path>
                  <path class="st2" d="M765.93,391.2l-7.32,2.14v-0.62c1.3-0.6,2.41-1.22,3.34-1.87c0.93-0.65,1.68-1.33,2.27-2.04      s1.01-1.47,1.28-2.27s0.41-1.71,0.41-2.72c0-1.44-0.31-2.77-0.92-4.01c-0.62-1.24-1.48-2.32-2.6-3.23      c-1.12-0.91-2.45-1.62-3.98-2.13s-3.18-0.76-4.94-0.76c-2.67,0-5.1,0.47-7.29,1.41c-2.19,0.94-3.92,2.22-5.17,3.86      c-1.25,1.64-1.88,3.45-1.88,5.45c0,1.38,0.3,2.66,0.9,3.86s1.47,2.27,2.6,3.2c1.13,0.94,2.56,1.75,4.29,2.45v0.75      c-3.04-1.02-5.34-2.56-6.9-4.62c-1.57-2.06-2.35-4.57-2.35-7.54c0-3.47,1.05-6.34,3.16-8.61c0.92-0.97,1.96-1.79,3.12-2.46      s2.44-1.17,3.82-1.52c1.39-0.35,2.81-0.53,4.28-0.53c2.72,0,5.21,0.61,7.46,1.83s4.03,2.91,5.32,5.06      c1.29,2.15,1.94,4.52,1.94,7.13c0,1.1-0.18,2.54-0.53,4.33c-0.26,1.24-0.39,2.14-0.39,2.7      C765.85,390.66,765.88,390.92,765.93,391.2z M738.37,381.8c0.48-1.54,1.16-2.94,2.05-4.2c0.89-1.25,1.95-2.3,3.18-3.14      s2.63-1.48,4.19-1.91c1.56-0.43,3.27-0.65,5.12-0.65c1.37,0,2.6,0.11,3.69,0.33s2.14,0.58,3.13,1.07      c0.99,0.49,1.91,1.12,2.76,1.87c0.85,0.75,1.68,1.67,2.5,2.76c-0.64-1.28-1.4-2.4-2.29-3.38c-0.88-0.97-1.87-1.8-2.97-2.46      c-1.1-0.67-2.3-1.17-3.61-1.51c-1.31-0.34-2.67-0.51-4.09-0.51c-1.53,0-2.99,0.19-4.39,0.58c-1.39,0.39-2.67,0.94-3.83,1.66      c-1.16,0.72-2.15,1.59-2.95,2.61c-0.79,1.02-1.38,2.08-1.77,3.17C738.69,379.17,738.45,380.41,738.37,381.8z"></path>
                  <path class="st2" d="M753.28,407.2l-3.57-3.29h-5.21c-1.18,0-2.05,0.06-2.62,0.19s-1.09,0.37-1.54,0.74      c-0.75,0.64-1.24,1.61-1.46,2.88h-0.64v-11.61h0.64c0.25,1.31,0.81,2.27,1.7,2.87c0.66,0.46,1.96,0.69,3.92,0.69h15.48      c1.24,0,2.15-0.06,2.71-0.18c0.56-0.12,1.04-0.35,1.44-0.68c0.77-0.61,1.26-1.51,1.48-2.7h0.64v11.37h-0.64      c-0.25-1.31-0.81-2.28-1.7-2.88c-0.36-0.24-0.83-0.42-1.42-0.53c-0.6-0.11-1.43-0.16-2.49-0.16h-9.17l7.85,7.17      c0.96,0.89,1.74,1.51,2.36,1.85s1.22,0.52,1.8,0.52c0.78,0,1.42-0.25,1.91-0.75s0.78-1.16,0.86-1.99h0.64v10.09h-0.59      c-0.66-2.08-2.41-4.45-5.25-7.1l-1.91-1.77l-0.43-0.4l-1.37-1.22l-12.67,7.5c-0.11,0.07-0.21,0.14-0.29,0.19      s-0.18,0.11-0.29,0.17l-2.19,1.41c-0.82,0.61-1.4,1.2-1.75,1.78c-0.35,0.58-0.55,1.26-0.6,2.04h-0.64v-11.86h0.64      c0.05,0.96,0.21,1.63,0.47,2c0.26,0.37,0.7,0.56,1.31,0.56c0.37,0,0.75-0.07,1.14-0.22c0.39-0.15,0.93-0.43,1.63-0.86      L753.28,407.2z M739.29,398.68v5.33l0.59-0.71c0.34-0.41,0.62-0.68,0.82-0.79s0.51-0.17,0.92-0.17c0.22,0,0.37,0,0.44-0.01      s0.15-0.01,0.24-0.01h0.35h19.17h0.35c0.08,0,0.16,0,0.25,0.01s0.23,0.01,0.43,0.01c0.41,0,0.73,0.06,0.95,0.19      c0.23,0.13,0.49,0.39,0.79,0.78l0.86,1.04v-5.99l-0.86,1.04c-0.34,0.43-0.61,0.69-0.8,0.8s-0.51,0.16-0.94,0.16      c-0.23,0.01-0.46,0.02-0.68,0.02h-0.35h-19.17h-0.35c-0.22,0-0.44-0.01-0.68-0.02c-0.42,0-0.74-0.05-0.93-0.16      c-0.2-0.11-0.47-0.38-0.81-0.8L739.29,398.68z M753.83,407.71l-9.74,5.77c-1.01,0.58-1.73,0.97-2.14,1.15s-0.79,0.27-1.12,0.27      c-0.53,0-1.05-0.24-1.54-0.71v5.27c0.52-0.66,1.05-1.17,1.6-1.55l1.56-1.08l0.82-0.55l12.14-7.15L753.83,407.71z M762.3,414.01      c1.19,1.08,2.25,2.2,3.18,3.36v-4.51c-0.71,0.81-1.54,1.22-2.5,1.22C762.91,414.08,762.69,414.06,762.3,414.01z"></path>
                  <path class="st2" d="M765.61,439.38l-6.83,1.06v-0.62c1.23-0.33,2.2-0.65,2.91-0.97s1.31-0.67,1.78-1.06      c0.78-0.62,1.39-1.37,1.83-2.24c0.44-0.87,0.66-1.78,0.66-2.73c0-1.34-0.41-2.43-1.22-3.29c-0.81-0.85-1.86-1.28-3.15-1.28      c-1.41,0-2.58,0.55-3.51,1.66c-0.46,0.57-0.88,1.18-1.24,1.83c-0.36,0.65-0.87,1.67-1.53,3.06c-0.42,0.95-0.81,1.75-1.15,2.41      s-0.65,1.19-0.92,1.59s-0.59,0.8-0.94,1.2c-1.53,1.69-3.53,2.54-6.01,2.54c-1.63,0-3.1-0.4-4.41-1.19      c-1.31-0.79-2.34-1.89-3.09-3.29c-0.74-1.4-1.12-2.95-1.12-4.65c0-1.18,0.2-2.54,0.59-4.09c0.25-0.91,0.68-2.11,1.31-3.6      l0.21-0.51l7.77-0.55v0.55c-2.09,0.54-3.96,1.4-5.6,2.59c-2.15,1.57-3.22,3.44-3.22,5.6c0,1.11,0.24,2.09,0.71,2.95      c0.47,0.86,1.12,1.53,1.95,2.02c0.83,0.49,1.77,0.73,2.84,0.73c0.94,0,1.79-0.19,2.55-0.57c0.76-0.38,1.48-0.99,2.15-1.84      c0.68-0.85,1.37-2.02,2.08-3.5c1.05-2.15,1.72-3.46,2.01-3.92c0.56-0.89,1.17-1.62,1.83-2.21s1.37-1.02,2.13-1.3      c0.77-0.28,1.59-0.42,2.46-0.42c1.35,0,2.59,0.32,3.71,0.96c1.12,0.64,2,1.51,2.65,2.63s0.96,2.35,0.96,3.7      c0,0.85-0.16,1.8-0.47,2.85l-0.33,1.1c-0.25,0.81-0.37,1.68-0.37,2.61V439.38z M740.77,425.82c-0.52,0.8-1.02,1.83-1.5,3.07      c0.82-0.82,1.5-1.43,2.03-1.85c0.53-0.42,1.29-0.9,2.26-1.43L740.77,425.82z M739.97,438c1.63,2.01,3.58,3.01,5.87,3.01      c0.9,0,1.78-0.17,2.63-0.5c0.85-0.33,1.58-0.81,2.18-1.43c0.92-0.9,1.91-2.49,2.97-4.76c0.9-1.89,1.51-3.11,1.83-3.68      c0.31-0.57,0.74-1.14,1.27-1.72c1.09-1.22,2.47-1.83,4.14-1.83c0.49,0,0.94,0.05,1.34,0.15c0.4,0.1,0.79,0.24,1.17,0.44      c0.38,0.2,0.88,0.52,1.51,0.97c-1.41-1.74-3.17-2.61-5.27-2.61c-2.02,0-3.62,0.71-4.8,2.12c-0.63,0.74-1.19,1.59-1.68,2.56      c-0.07,0.12-0.53,1.06-1.39,2.81c-1.03,2.12-1.96,3.58-2.79,4.38c-1.33,1.28-2.89,1.92-4.7,1.92c-0.88,0-1.65-0.14-2.33-0.43      C741.25,439.09,740.6,438.63,739.97,438z"></path>
                </g>
                <g>
                  <path class="st2" d="M197.19,429.09l6.83-1.07v0.63c-1.23,0.33-2.2,0.66-2.91,0.98s-1.31,0.68-1.78,1.07      c-0.78,0.63-1.39,1.38-1.83,2.26c-0.44,0.88-0.66,1.8-0.66,2.76c0,1.35,0.41,2.46,1.22,3.32c0.81,0.86,1.86,1.29,3.15,1.29      c1.41,0,2.58-0.56,3.51-1.68c0.46-0.58,0.88-1.2,1.24-1.86c0.36-0.66,0.87-1.69,1.53-3.09c0.42-0.96,0.81-1.77,1.15-2.44      c0.34-0.67,0.65-1.2,0.92-1.61c0.27-0.41,0.59-0.81,0.94-1.22c1.53-1.71,3.53-2.57,6.01-2.57c1.63,0,3.1,0.4,4.41,1.2      s2.34,1.91,3.09,3.32c0.74,1.42,1.12,2.98,1.12,4.71c0,1.19-0.2,2.57-0.59,4.13c-0.25,0.92-0.68,2.13-1.31,3.64l-0.21,0.52      l-7.77,0.55v-0.55c2.09-0.54,3.96-1.42,5.6-2.62c2.15-1.59,3.22-3.48,3.22-5.67c0-1.12-0.24-2.11-0.71-2.98      c-0.47-0.87-1.12-1.55-1.95-2.04c-0.83-0.49-1.77-0.74-2.84-0.74c-0.94,0-1.79,0.19-2.55,0.57c-0.76,0.38-1.48,1-2.15,1.86      c-0.68,0.86-1.37,2.04-2.08,3.54c-1.05,2.18-1.72,3.5-2.01,3.97c-0.56,0.9-1.17,1.64-1.83,2.23s-1.37,1.03-2.13,1.31      s-1.59,0.42-2.46,0.42c-1.35,0-2.59-0.32-3.71-0.97c-1.12-0.65-2-1.53-2.65-2.66s-0.96-2.37-0.96-3.74      c0-0.86,0.16-1.82,0.47-2.88l0.33-1.11c0.25-0.82,0.37-1.7,0.37-2.64V429.09z M222.83,430.49c-1.63-2.03-3.58-3.04-5.87-3.04      c-0.9,0-1.78,0.17-2.63,0.51c-0.85,0.34-1.58,0.82-2.18,1.45c-0.92,0.91-1.91,2.52-2.97,4.82c-0.9,1.91-1.51,3.15-1.83,3.72      s-0.74,1.15-1.27,1.74c-1.09,1.23-2.47,1.85-4.14,1.85c-0.49,0-0.94-0.05-1.34-0.15s-0.79-0.25-1.17-0.44      c-0.38-0.2-0.88-0.52-1.51-0.98c1.41,1.76,3.17,2.64,5.27,2.64c2.02,0,3.62-0.71,4.8-2.14c0.63-0.75,1.19-1.61,1.68-2.58      c0.07-0.12,0.53-1.07,1.39-2.84c1.03-2.14,1.96-3.62,2.79-4.43c1.33-1.29,2.89-1.94,4.7-1.94c0.88,0,1.65,0.14,2.33,0.43      C221.55,429.38,222.2,429.85,222.83,430.49z M222.03,442.8c0.52-0.81,1.02-1.85,1.5-3.1c-0.82,0.82-1.5,1.45-2.03,1.87      c-0.53,0.42-1.29,0.91-2.26,1.45L222.03,442.8z"></path>
                  <path class="st2" d="M224.55,424.1h-0.64c-0.25-1.3-0.81-2.26-1.7-2.86c-0.67-0.46-1.98-0.68-3.92-0.68h-15.48      c-1.16,0-2.04,0.06-2.63,0.18c-0.6,0.12-1.1,0.35-1.51,0.68c-0.77,0.59-1.26,1.48-1.48,2.68h-0.64l0.02-0.29l0.16-2.21      c0.05-0.79,0.08-1.56,0.08-2.33c0-0.64-0.03-1.4-0.09-2.27c-0.06-0.87-0.12-1.54-0.17-1.99l-0.23-1.86      c-0.08-0.66-0.12-1.35-0.12-2.07c0-1.27,0.16-2.42,0.49-3.44s0.8-1.9,1.4-2.63c0.61-0.73,1.34-1.29,2.2-1.68s1.8-0.59,2.84-0.59      c1.61,0,2.97,0.46,4.06,1.38c1.09,0.92,1.89,2.25,2.38,4c0.16-1.45,0.59-2.73,1.29-3.84s1.61-1.96,2.74-2.56      c1.13-0.6,2.4-0.89,3.8-0.89c1.15,0,2.18,0.2,3.09,0.59c0.91,0.39,1.7,0.98,2.38,1.75c0.68,0.78,1.19,1.71,1.53,2.81      c0.34,1.09,0.51,2.29,0.51,3.6c0,0.68-0.06,1.66-0.18,2.93c-0.16,1.87-0.27,3.15-0.31,3.84c-0.07,1.12-0.1,2.14-0.1,3.06      c0,0.73,0.03,1.54,0.08,2.44l0.12,1.9L224.55,424.1z M209.44,416.33v-2.99c0-1.77-0.4-3.13-1.19-4.06      c-0.52-0.64-1.23-1.15-2.12-1.53c-0.9-0.38-1.84-0.57-2.82-0.57c-1.19,0-2.26,0.23-3.2,0.68c-0.94,0.46-1.68,1.09-2.21,1.9      c-0.53,0.81-0.8,1.72-0.8,2.73c0,0.8,0.16,1.49,0.49,2.07c0.33,0.58,0.8,1.03,1.42,1.35c0.62,0.28,1.59,0.42,2.93,0.42H209.44z       M209.05,409.24c-0.49-1.51-1.26-2.68-2.3-3.5c-1.04-0.82-2.28-1.23-3.73-1.23c-1.46,0-2.69,0.41-3.68,1.24      c-0.99,0.82-1.71,2.04-2.14,3.65c1.53-1.96,3.53-2.93,6.01-2.93C205.83,406.48,207.78,407.4,209.05,409.24z M223.46,421.5      c-0.14-0.97-0.21-1.78-0.21-2.44c0-0.59,0.05-1.36,0.16-2.31l0.04-0.44l-0.55,0.65c-0.34,0.42-0.62,0.69-0.82,0.8      c-0.21,0.12-0.51,0.18-0.92,0.18h-0.68c-0.12,0-0.21,0-0.25,0.01c-0.04,0.01-0.08,0.01-0.1,0.01h-19.17      c-0.04,0-0.08,0-0.12-0.01c-0.04-0.01-0.12-0.01-0.23-0.01h-0.68c-0.29,0-0.51-0.02-0.68-0.06s-0.32-0.13-0.46-0.25      c-0.14-0.12-0.34-0.34-0.6-0.67l-0.82-0.98l0.06,0.67c0.1,0.95,0.14,1.78,0.14,2.49c0,0.81-0.08,1.71-0.23,2.7l0.84-0.98      c0.36-0.43,0.63-0.7,0.83-0.81c0.2-0.11,0.5-0.17,0.91-0.17h0.68h0.35h19.17h0.35h0.68c0.41,0,0.71,0.06,0.91,0.17      c0.2,0.11,0.47,0.38,0.83,0.81L223.46,421.5z M210.24,416.33h8.63c1.78,0,3.03-0.37,3.76-1.1c0.73-0.73,1.1-1.98,1.1-3.74      c0-2.01-0.64-3.53-1.91-4.58c-1.26-1.03-2.82-1.55-4.7-1.55c-0.79,0-1.53,0.09-2.21,0.27c-0.68,0.18-1.29,0.44-1.86,0.79      s-1.04,0.77-1.45,1.26c-0.4,0.49-0.71,1.05-0.91,1.68c-0.31,0.85-0.47,2.12-0.47,3.8V416.33z M223.81,408.4      c-0.21-1.16-0.6-2.17-1.18-3.05c-0.58-0.87-1.32-1.55-2.2-2.02s-1.87-0.71-2.95-0.71c-1.54,0-2.92,0.46-4.12,1.38      s-2.11,2.21-2.73,3.88c1.54-2.14,3.72-3.21,6.52-3.21C220.35,404.67,222.57,405.91,223.81,408.4z"></path>
                  <path class="st2" d="M224.55,387.21h-0.64c-0.25-1.33-0.81-2.29-1.7-2.9c-0.66-0.47-1.96-0.7-3.92-0.7h-15.48      c-1.24,0-2.15,0.06-2.71,0.18s-1.04,0.35-1.44,0.68c-0.77,0.62-1.26,1.53-1.48,2.73h-0.64v-11.5h0.64      c0.25,1.33,0.81,2.3,1.7,2.92c0.36,0.25,0.83,0.42,1.42,0.54c0.6,0.11,1.43,0.17,2.49,0.17h6.85v-12.97h-6.85      c-1.24,0-2.15,0.06-2.71,0.18c-0.56,0.12-1.04,0.35-1.44,0.68c-0.77,0.62-1.26,1.53-1.48,2.73h-0.64v-11.5h0.64      c0.25,1.33,0.81,2.3,1.7,2.92c0.36,0.25,0.83,0.42,1.42,0.54c0.6,0.11,1.43,0.17,2.49,0.17h15.48c1.16,0,2.04-0.06,2.64-0.19      c0.59-0.13,1.1-0.36,1.51-0.69c0.77-0.62,1.26-1.53,1.48-2.73h0.64v11.5h-0.64c-0.25-1.33-0.81-2.29-1.7-2.9      c-0.66-0.47-1.96-0.7-3.92-0.7h-7.69v12.97h7.69c1.16,0,2.04-0.06,2.64-0.19c0.59-0.13,1.1-0.36,1.51-0.69      c0.77-0.62,1.26-1.53,1.48-2.73h0.64V387.21z M223.5,367.37v-5.39l-0.59,0.72c-0.34,0.42-0.62,0.69-0.82,0.8      c-0.21,0.12-0.51,0.18-0.92,0.18c-0.4,0-0.62,0.01-0.68,0.02h-0.35h-19.17h-0.35c-0.07-0.01-0.29-0.02-0.68-0.02      c-0.41,0-0.72-0.06-0.92-0.18c-0.21-0.12-0.48-0.38-0.82-0.8l-0.86-1.05v6.05l0.86-1.05c0.34-0.42,0.62-0.69,0.82-0.8      s0.51-0.18,0.92-0.18c0.23-0.01,0.46-0.02,0.68-0.02h0.35h19.17h0.35c0.22,0,0.44,0.01,0.68,0.02c0.42,0,0.74,0.06,0.93,0.17      c0.2,0.11,0.47,0.38,0.81,0.81L223.5,367.37z M223.5,384.62v-5.39l-0.59,0.72c-0.34,0.42-0.62,0.69-0.82,0.8      s-0.51,0.17-0.92,0.17c-0.22,0-0.37,0-0.44,0.01s-0.15,0.01-0.24,0.01h-0.35h-19.17h-0.35c-0.08,0-0.16,0-0.25-0.01      s-0.23-0.01-0.43-0.01c-0.41,0-0.72-0.06-0.92-0.17s-0.48-0.38-0.82-0.8l-0.86-1.05v6.05l0.86-1.05      c0.34-0.42,0.62-0.69,0.82-0.8c0.21-0.12,0.51-0.17,0.92-0.17c0.23-0.01,0.46-0.02,0.68-0.02h0.35h19.17h0.35      c0.22,0,0.44,0.01,0.68,0.02c0.42,0,0.74,0.05,0.93,0.17c0.2,0.11,0.47,0.38,0.81,0.81L223.5,384.62z"></path>
                  <path class="st2" d="M214.19,340.23v9.51l2.62,1.03c1.29,0.49,2.34,0.74,3.18,0.74c0.71,0,1.32-0.14,1.84-0.43      c0.51-0.29,0.94-0.72,1.27-1.29s0.6-1.33,0.81-2.26h0.64v9.58h-0.62c-0.44-1.16-1.2-2.15-2.3-2.98      c-1.09-0.83-2.8-1.71-5.11-2.63l-20.51-8.16v-0.48l22.17-8.88c0.01-0.02,0.05-0.05,0.11-0.06c0.06-0.02,0.13-0.04,0.19-0.07      c0.07-0.03,0.14-0.06,0.23-0.1l1.87-0.81c1-0.44,1.75-0.95,2.26-1.51c0.51-0.57,0.86-1.27,1.07-2.12h0.64v11.78h-0.64      c-0.08-1-0.21-1.71-0.39-2.14c-0.37-0.89-1.01-1.33-1.93-1.33c-0.45,0-1.19,0.2-2.21,0.59L214.19,340.23z M201.32,344.64      l17.78-7.11l0.45-0.18c0.92-0.38,1.59-0.57,2.01-0.57c0.59,0,1.24,0.3,1.95,0.9v-4.87c-0.57,0.55-1.23,1.03-1.98,1.44      c-0.74,0.41-1.78,0.88-3.11,1.42l-19.79,7.92L201.32,344.64z M213.33,340.58l-11.14,4.45l11.14,4.37V340.58z M223.5,351.1      c-0.56,0.42-1.06,0.71-1.51,0.89c-0.44,0.17-0.93,0.26-1.45,0.26c-0.23,0-0.42-0.01-0.55-0.02c0.82,0.38,1.48,0.76,1.98,1.13      c0.5,0.37,1.01,0.87,1.53,1.5V351.1z"></path>
                  <path class="st2" d="M196.87,305.66l7.32-2.16v0.63c-1.3,0.6-2.41,1.23-3.34,1.89s-1.68,1.35-2.27,2.07      c-0.58,0.72-1.01,1.49-1.28,2.3c-0.27,0.81-0.41,1.73-0.41,2.75c0,1.45,0.31,2.81,0.92,4.06s1.48,2.34,2.6,3.27      s2.45,1.64,3.98,2.15s3.18,0.77,4.94,0.77c2.67,0,5.1-0.47,7.29-1.42c2.19-0.95,3.92-2.25,5.17-3.9      c1.25-1.66,1.88-3.49,1.88-5.51c0-1.39-0.3-2.69-0.9-3.9s-1.47-2.29-2.6-3.24c-1.13-0.95-2.56-1.77-4.29-2.47v-0.76      c3.04,1.03,5.34,2.59,6.9,4.67s2.35,4.62,2.35,7.62c0,3.51-1.05,6.41-3.16,8.71c-0.92,0.98-1.96,1.81-3.12,2.48      c-1.16,0.67-2.44,1.18-3.82,1.54c-1.39,0.36-2.81,0.54-4.28,0.54c-2.72,0-5.21-0.62-7.46-1.86s-4.03-2.94-5.32-5.11      c-1.29-2.17-1.94-4.57-1.94-7.21c0-1.11,0.18-2.57,0.53-4.37c0.26-1.25,0.39-2.17,0.39-2.73      C196.95,306.21,196.92,305.95,196.87,305.66z M224.43,315.17c-0.48,1.56-1.16,2.98-2.05,4.25s-1.95,2.33-3.18,3.17      c-1.23,0.85-2.63,1.49-4.19,1.93c-1.56,0.44-3.27,0.66-5.12,0.66c-1.37,0-2.6-0.11-3.69-0.33s-2.14-0.58-3.13-1.08      c-0.99-0.5-1.91-1.13-2.76-1.89c-0.85-0.76-1.68-1.69-2.5-2.79c0.64,1.29,1.4,2.43,2.29,3.42c0.88,0.98,1.87,1.82,2.97,2.49      c1.1,0.68,2.3,1.19,3.61,1.53c1.31,0.34,2.67,0.52,4.09,0.52c1.53,0,2.99-0.2,4.39-0.59c1.39-0.39,2.67-0.95,3.83-1.68      c1.16-0.73,2.15-1.61,2.95-2.64c0.79-1.03,1.38-2.1,1.77-3.2C224.11,317.82,224.35,316.57,224.43,315.17z"></path>
                  <path class="st2" d="M209.52,289.48l3.57,3.32h5.21c1.18,0,2.05-0.06,2.62-0.19c0.57-0.13,1.09-0.38,1.54-0.75      c0.75-0.65,1.24-1.62,1.46-2.92h0.64v11.74h-0.64c-0.25-1.33-0.81-2.29-1.7-2.9c-0.66-0.47-1.96-0.7-3.92-0.7h-15.48      c-1.24,0-2.15,0.06-2.71,0.18s-1.04,0.35-1.44,0.68c-0.77,0.62-1.26,1.53-1.48,2.73h-0.64v-11.5h0.64      c0.25,1.33,0.81,2.3,1.7,2.92c0.36,0.25,0.83,0.42,1.42,0.54c0.6,0.11,1.43,0.17,2.49,0.17h9.17l-7.85-7.25      c-0.96-0.9-1.74-1.52-2.36-1.87s-1.22-0.53-1.8-0.53c-0.78,0-1.42,0.25-1.91,0.76c-0.49,0.5-0.78,1.18-0.86,2.01h-0.64v-10.21      h0.59c0.66,2.1,2.41,4.5,5.25,7.18l1.91,1.79l0.43,0.41l1.37,1.24l12.67-7.59c0.11-0.07,0.21-0.14,0.29-0.19      s0.18-0.11,0.29-0.18l2.19-1.42c0.82-0.62,1.4-1.21,1.75-1.8c0.35-0.58,0.55-1.27,0.6-2.06h0.64v12h-0.64      c-0.05-0.97-0.21-1.65-0.47-2.02c-0.26-0.38-0.7-0.56-1.31-0.56c-0.37,0-0.75,0.07-1.14,0.22c-0.39,0.15-0.93,0.44-1.63,0.87      L209.52,289.48z M200.5,282.59c-1.19-1.09-2.25-2.23-3.18-3.4v4.56c0.71-0.82,1.54-1.24,2.5-1.24      C199.89,282.52,200.11,282.54,200.5,282.59z M223.5,298.1v-5.39l-0.59,0.72c-0.34,0.42-0.62,0.69-0.82,0.8s-0.51,0.17-0.92,0.17      c-0.22,0-0.37,0-0.44,0.01s-0.15,0.01-0.24,0.01h-0.35h-19.17h-0.35c-0.08,0-0.16,0-0.25-0.01s-0.23-0.01-0.43-0.01      c-0.41,0-0.73-0.06-0.95-0.19c-0.23-0.13-0.49-0.39-0.79-0.78l-0.86-1.05v6.05l0.86-1.05c0.34-0.43,0.61-0.7,0.8-0.81      c0.19-0.11,0.51-0.17,0.94-0.17c0.23-0.01,0.46-0.02,0.68-0.02h0.35h19.17h0.35c0.22,0,0.44,0.01,0.68,0.02      c0.42,0,0.74,0.05,0.93,0.17c0.2,0.11,0.47,0.38,0.81,0.81L223.5,298.1z M208.96,288.96l9.74-5.83      c1.01-0.59,1.73-0.98,2.14-1.16s0.79-0.28,1.12-0.28c0.53,0,1.05,0.24,1.54,0.72v-5.33c-0.52,0.67-1.05,1.19-1.6,1.57      l-1.56,1.09l-0.82,0.55l-12.14,7.24L208.96,288.96z"></path>
                  <path class="st2" d="M197.19,256.94l6.83-1.07v0.63c-1.23,0.33-2.2,0.66-2.91,0.98s-1.31,0.68-1.78,1.07      c-0.78,0.63-1.39,1.38-1.83,2.26c-0.44,0.88-0.66,1.8-0.66,2.76c0,1.35,0.41,2.46,1.22,3.32c0.81,0.86,1.86,1.29,3.15,1.29      c1.41,0,2.58-0.56,3.51-1.68c0.46-0.58,0.88-1.2,1.24-1.86c0.36-0.66,0.87-1.69,1.53-3.09c0.42-0.96,0.81-1.77,1.15-2.44      c0.34-0.67,0.65-1.2,0.92-1.61c0.27-0.41,0.59-0.81,0.94-1.22c1.53-1.71,3.53-2.57,6.01-2.57c1.63,0,3.1,0.4,4.41,1.2      s2.34,1.91,3.09,3.32c0.74,1.42,1.12,2.98,1.12,4.71c0,1.19-0.2,2.57-0.59,4.13c-0.25,0.92-0.68,2.13-1.31,3.64l-0.21,0.52      l-7.77,0.55v-0.55c2.09-0.54,3.96-1.42,5.6-2.62c2.15-1.59,3.22-3.48,3.22-5.67c0-1.12-0.24-2.11-0.71-2.98      c-0.47-0.87-1.12-1.55-1.95-2.04c-0.83-0.49-1.77-0.74-2.84-0.74c-0.94,0-1.79,0.19-2.55,0.57c-0.76,0.38-1.48,1-2.15,1.86      c-0.68,0.86-1.37,2.04-2.08,3.54c-1.05,2.18-1.72,3.5-2.01,3.97c-0.56,0.9-1.17,1.64-1.83,2.23s-1.37,1.03-2.13,1.31      s-1.59,0.42-2.46,0.42c-1.35,0-2.59-0.32-3.71-0.97c-1.12-0.65-2-1.53-2.65-2.66s-0.96-2.37-0.96-3.74      c0-0.86,0.16-1.82,0.47-2.88l0.33-1.11c0.25-0.82,0.37-1.7,0.37-2.64V256.94z M222.83,258.34c-1.63-2.03-3.58-3.04-5.87-3.04      c-0.9,0-1.78,0.17-2.63,0.51c-0.85,0.34-1.58,0.82-2.18,1.45c-0.92,0.91-1.91,2.52-2.97,4.82c-0.9,1.91-1.51,3.15-1.83,3.72      s-0.74,1.15-1.27,1.74c-1.09,1.23-2.47,1.85-4.14,1.85c-0.49,0-0.94-0.05-1.34-0.15s-0.79-0.25-1.17-0.44      c-0.38-0.2-0.88-0.52-1.51-0.98c1.41,1.76,3.17,2.64,5.27,2.64c2.02,0,3.62-0.71,4.8-2.14c0.63-0.75,1.19-1.61,1.68-2.58      c0.07-0.12,0.53-1.07,1.39-2.84c1.03-2.14,1.96-3.62,2.79-4.43c1.33-1.29,2.89-1.94,4.7-1.94c0.88,0,1.65,0.14,2.33,0.43      C221.55,257.24,222.2,257.7,222.83,258.34z M222.03,270.65c0.52-0.81,1.02-1.85,1.5-3.1c-0.82,0.82-1.5,1.45-2.03,1.87      c-0.53,0.42-1.29,0.91-2.26,1.45L222.03,270.65z"></path>
                </g>
                <rect x="291.16" y="299.43" class="st3" width="378" height="1"></rect>
              </g>
            </g>
          </g>
        </svg>
      </g>
    </g>
  </g>
</svg>
