<svg xmlns="http://www.w3.org/2000/svg" viewBox="0 0 689.5 384"><defs><style>.cls-1,.cls-2{fill:#ffcc7a;}.cls-2{stroke:#d9ab62;stroke-miterlimit:10;stroke-width:8px;}.cls-3{fill:#d9ab62;}</style></defs><title>ticket_blank</title><g id="Layer_2" data-name="Layer 2"><g id="Layer_1-2" data-name="Layer 1"><path class="cls-1" d="M625.4.9,64.4,0C60.4,63.4,1.7,64.2,1.7,64.2l-.3,40.9a16,16,0,0,1,2.1.5h0c.2.1.4.1.5.2a16.18,16.18,0,0,1,1.8,1,13.44,13.44,0,0,1,1.4,1.1l.6.6c.1.1.2.3.4.4h0a.1.1,0,0,0,.1.1h0a8.79,8.79,0,0,1,.6,1l.1.1c.1.1.1.2.2.4s.1.3.2.5.1.1.1.2a8.51,8.51,0,0,1,.6,1.7c.1.4.2.9.3,1.4s.1.7.1,1.1a4.33,4.33,0,0,1-.1,1.6c-.1.4-.1.7-.2,1.1v.1c-.1.3-.1.5-.2.8a4.88,4.88,0,0,0-.3.7h0c0,.1-.1.1-.1.2h0c0,.1-.1.2-.1.4s-.1.1-.1.2h0a4.19,4.19,0,0,1-.9,1.4h0a.1.1,0,0,1-.1.1H8.3c-.2.2-.3.4-.5.6a6,6,0,0,1-.8.8,5.5,5.5,0,0,1-.9.7c-.1.1-.3.2-.4.3H5.6a5.39,5.39,0,0,1-1.3.7H4a5.64,5.64,0,0,1-1.2.4c-.1,0-.1,0-.2.1H2.4a1.7,1.7,0,0,1-.7.1H1.2l-.1,17a.37.37,0,0,1,.3.1h.3a.6.6,0,0,1,.4.1c.1,0,.3.1.4.1s.2,0,.2.1h0c.1,0,.1,0,.2.1s.1,0,.2.1.1,0,.2.1h0a1.42,1.42,0,0,0,.6.2c.1,0,.2.1.3.2h.1c.1,0,.2.1.3.1s.2.1.3.2H5a.76.76,0,0,0,.4.2,1.38,1.38,0,0,0,.4.3h0a3.92,3.92,0,0,1,1,.8l.1.1c.1.1.2.1.2.2l.5.5a3,3,0,0,1,.5.7l.1.1.1.1a4.23,4.23,0,0,1,.5.7l.1.1c.1.1,0,.1.1.1s.1.2.2.3l.3.6a.35.35,0,0,0,.1.2,3,3,0,0,1,.4.8,5.85,5.85,0,0,1,.4,1.9c0,.1.1.2.1.4v1.3a5.7,5.7,0,0,1-.1,1.3h0v.4a.9.9,0,0,1-.1.5l-.3.9h0a7.84,7.84,0,0,1-.5,1.4h0c-.1.2-.3.5-.4.7a2.19,2.19,0,0,0-.3.5c0,.1-.1.1-.1.2a3,3,0,0,1-.5.7h0v.1l-.3.3-.1.1h0l-.6.6h0c-.1,0-.1.1-.2.2s-.2.2-.3.2h0l-.9.6h0c-.1,0-.1.1-.2.1a.1.1,0,0,0-.1.1H5.4c-.1,0-.1,0-.1.1a.1.1,0,0,0-.1.1h0a.1.1,0,0,0-.1.1h0a5,5,0,0,1-1.3.5c-.1.1-.2.1-.4.2l-1.2.3c-.2,0-.4.1-.6.1H1.5l-.1,16.9h.5c.2,0,.4.1.6.1s.4.1.6.1.2.1.3.1a3.49,3.49,0,0,1,1.3.5h.1a3.88,3.88,0,0,1,1.1.6h0c.1.1.2.1.3.2a5.5,5.5,0,0,1,.9.7,1.21,1.21,0,0,1,.5.5l.1.1h0a.1.1,0,0,1,.1.1c.1.1.2.2.2.3s.1.1.2.1c.2.2.4.5.6.7a6,6,0,0,1,.9,1.5c0,.1.1.1.1.2s.1.2.1.3v.1h0l.1.1a8.8,8.8,0,0,1,.5,1.5,3.08,3.08,0,0,1,.1,1h0v.1h0a17,17,0,0,1,.1,2.3,5,5,0,0,1-.2,1.2c-.1.3-.1.7-.2,1a1.42,1.42,0,0,1-.2.6c-.1.3-.2.5-.3.8s-.3.5-.4.8h0l-.1.1h0c0,.1-.1.2-.1.3s-.1.1-.1.2v.1h0l-.1.1H9a2.19,2.19,0,0,1-.3.5,2.65,2.65,0,0,1-.5.6h0c-.1.1-.2.3-.4.4h0a10.63,10.63,0,0,1-1.1.9,3,3,0,0,1-1.1.6,6.11,6.11,0,0,1-1.4.7l-1,.3a3,3,0,0,1-1,.2,1.27,1.27,0,0,0-.6.1H1.3l-.1,17h.2a11.93,11.93,0,0,1,2.6.5c.5.2,1,.4,1.4.6a2.09,2.09,0,0,1,.6.4,2.59,2.59,0,0,1,1.1.7c.3.3.7.6,1,.9a11.32,11.32,0,0,1,1,1.3c.1.2.3.4.4.6v.1h0l.3.6v.1a.76.76,0,0,1,.2.5c.1.3.3.7.4,1.1v.1a1.27,1.27,0,0,1,.1.6v.1h0a1.7,1.7,0,0,1,.1.7c0,.2.1.5.1.8v.6h0a5.7,5.7,0,0,1-.1,1.3,1.27,1.27,0,0,1-.1.6,5.27,5.27,0,0,1-.3,1.2,8.65,8.65,0,0,1-.7,1.7.35.35,0,0,0-.1.2,2.19,2.19,0,0,1-.3.5H9c-.1.2-.2.3-.2.5a6.42,6.42,0,0,1-1,1.3,12,12,0,0,1-1.2,1.1,4.44,4.44,0,0,1-1.1.8h0c-.1.1-.2.1-.3.2s-.1.1-.2.1H4.8c-.1,0-.1.1-.2.1H4.4c-.1,0-.2.1-.3.1s-.1,0-.1.1-.2.1-.4.1-.5.2-.7.3l-1.5.3H.7l-.1,17h.6a5.55,5.55,0,0,1,2.8.7c.1,0,.2,0,.2.1a.35.35,0,0,1,.2.1h.1a.76.76,0,0,1,.4.2,7.46,7.46,0,0,1,1.2.7,2.65,2.65,0,0,1,.6.5l.3.3a.1.1,0,0,1,.1.1c.1.1.2.1.2.2l.1.1.1.1c.1,0,.1,0,.1.1s.2.3.4.4v.1h.1a.1.1,0,0,1,.1.1c.1.1.2.2.2.3l.2.2.1.1h0a1.38,1.38,0,0,1,.3.4l.1.1.3.6c.1.1.1.2.2.3s.1.3.2.4h0v.2a6.64,6.64,0,0,1,.6,2,2.77,2.77,0,0,1,.1.9,2.77,2.77,0,0,1,.1.9v.5a3.4,3.4,0,0,1-.2,1.4,5.34,5.34,0,0,1-.5,1.8v.1c-.1.2-.1.4-.2.5s-.1.3-.2.4a.76.76,0,0,0-.2.4v.1c0,.1-.1.1-.1.2a.1.1,0,0,1-.1.1L9,272a2.19,2.19,0,0,1-.3.5c-.1.1-.1.2-.2.3s-.4.5-.6.7h0l-.1.1-.3.3a.1.1,0,0,0-.1.1c-.1.2-.3.3-.4.4l-.1.1c-.1.1-.2.1-.3.2a1.38,1.38,0,0,1-.4.3H5.9a.1.1,0,0,0-.1.1.1.1,0,0,0-.1.1.1.1,0,0,0,.1-.1c-.1,0-.1.1-.2.2a.1.1,0,0,0-.1.1.1.1,0,0,0-.1.1H5.3a.1.1,0,0,0-.1.1c-.1,0-.1.1-.2.1s-.1,0-.2.1a.76.76,0,0,1-.4.2c-.2.1-.5.2-.7.3a6.12,6.12,0,0,1-1.2.5h0a6.45,6.45,0,0,1-2,.3H.3L0,319.3C70.9,328.1,63.6,384,63.6,384H625.4c5.6-66.6,62.7-63.2,62.7-63.2l.2-42.7a5,5,0,0,1-1.2-.2h-.2a1.88,1.88,0,0,1-.8-.2h-.2c-.1,0-.1,0-.2-.1h-.1c-.2-.1-.3-.1-.5-.2H685c-.2-.1-.4-.1-.5-.2h-.1c-.1,0-.2-.1-.3-.2H684c-.1,0-.1-.1-.2-.1l-.1-.1h0a.35.35,0,0,0-.2-.1c-.1,0-.1-.1-.2-.1h0a.1.1,0,0,1-.1-.1,7.55,7.55,0,0,1-1.4-1.1c-.1-.1-.2-.1-.3-.2l-.2-.2h0a4.44,4.44,0,0,1-.8-1.1,2.66,2.66,0,0,1-.6-1v-.1c-.2-.4-.4-.8-.6-1.3s-.2-.7-.3-1.1v-.2h0c0-.2-.1-.4-.1-.6a10.55,10.55,0,0,1-.2-2.5h0v-.2c0-.3.1-.5.1-.8a9,9,0,0,1,1.8-4.4v-.1l.2-.2.1-.1h0c.1-.1.2-.3.3-.4h0a6.47,6.47,0,0,0,.8-.9h0a9.13,9.13,0,0,1,3.7-2.1h.1a10.08,10.08,0,0,1,2.5-.5l.1-16.9a1.7,1.7,0,0,1-.7-.1,9.61,9.61,0,0,1-2.9-.8h-.1c-.1-.1-.3-.1-.4-.2s-.5-.3-.7-.4a14.31,14.31,0,0,1-1.5-1.1v-.1l-.3-.3h-.1a4.35,4.35,0,0,1-.6-.7,14.31,14.31,0,0,1-1.1-1.5,8.08,8.08,0,0,1-1.1-2.7h0c0-.2-.1-.3-.1-.5V232c0-.2-.1-.4-.1-.6a1.7,1.7,0,0,0-.1-.7v-1.6a7.42,7.42,0,0,1,.5-2.5h0a5.91,5.91,0,0,1,.6-1.4h0a7.71,7.71,0,0,1,1.4-2.1,1.21,1.21,0,0,1,.5-.5v-.1c.2-.2.4-.3.6-.5a5.38,5.38,0,0,1,1.2-.9h.1a4.05,4.05,0,0,1,.9-.5l.6-.3.9-.3h.1a8.08,8.08,0,0,1,2.7-.5l.1-16.9h0c-.4,0-.9-.1-1.3-.1h-.4a1.85,1.85,0,0,1-.7-.2h0c-.2-.1-.4-.1-.5-.2h0c-.3-.1-.7-.3-1-.4h0c-.2-.1-.3-.2-.5-.3h0c-.1,0-.1-.1-.2-.1a6.73,6.73,0,0,1-1.1-.7h0a2.65,2.65,0,0,1-.6-.5l-.3-.3c-.2-.1-.3-.3-.4-.4h0l-.1-.1h0l-.1-.1h0a1.38,1.38,0,0,1-.3-.4,6.07,6.07,0,0,1-.7-1v-.1c-.1-.2-.3-.4-.4-.6s0-.1-.1-.2a18,18,0,0,1-.8-2.1v-.3a14.92,14.92,0,0,1-.2-2.1,6.15,6.15,0,0,1,.2-1.9h0v-.2h0a9.38,9.38,0,0,1,1-2.8c.2-.3.3-.6.5-.9h0a.22.22,0,0,1,.2-.2,8,8,0,0,1,1.5-1.7.1.1,0,0,1,.1-.1l.3-.3h0c.1,0,.1-.1.2-.1s.1-.1.2-.1h.1a2.09,2.09,0,0,1,.6-.4,5.58,5.58,0,0,1,.8-.5c.1,0,.1-.1.2-.1l.6-.3a.35.35,0,0,1,.2-.1c.1,0,.2-.1.4-.1h0a1.85,1.85,0,0,1,.7-.2h.1c.1,0,.2-.1.3-.1a4.25,4.25,0,0,1,1.1-.2h.1c.2,0,.5-.1.7-.1l.1-16.9h0a2.2,2.2,0,0,1-.8-.1h0a5.85,5.85,0,0,1-1.3-.2h-.1c-.2,0-.3-.1-.4-.1h-.1l-1.5-.6a3,3,0,0,1-.8-.4,2.19,2.19,0,0,1-.5-.3h-.1l-.1-.1h0c-.1,0-.1-.1-.2-.1h0c-.1-.1-.3-.2-.4-.3a.1.1,0,0,1-.1-.1c-.1-.1-.2-.1-.2-.2h0l-.3-.3-.3-.3h0l-.3-.3a2.09,2.09,0,0,1-.4-.6h0l-.6-.9-.1-.1a10.21,10.21,0,0,1-1.1-2.9h0V157c0-.3-.1-.5-.1-.8h0c0-.3-.1-.7-.1-1h0v-.3h0v-.7h0a5.07,5.07,0,0,1,.2-1.3h0v-.3a.37.37,0,0,1,.1-.3c0-.1,0-.1.1-.2v-.6a4.88,4.88,0,0,0,.3-.7l.3-.6h0a8.79,8.79,0,0,1,.6-1h0a8.65,8.65,0,0,1,.7-1h0l.2-.2h0a10.4,10.4,0,0,1,3.6-2.6c.1,0,.2-.1.3-.1h0l.9-.3h.2a9.26,9.26,0,0,1,2.3-.4h.2l.1-16.9h-1.4a3.08,3.08,0,0,1-1.3-.3h-.2a10.81,10.81,0,0,1-3-1.6h0a1.76,1.76,0,0,1-.5-.4.22.22,0,0,1-.2-.2c-.1,0-.1-.1-.2-.2h0c-.1-.1-.2-.1-.2-.2h0l-.5-.5h0a.1.1,0,0,0-.1-.1h0a7.48,7.48,0,0,1-1.5-2.4h0a.1.1,0,0,0-.1-.1h0v-.1c-.1-.2-.2-.5-.3-.7a9.36,9.36,0,0,1-.4-1.6v-.1h0a7.57,7.57,0,0,1-.1-1.5v-.2h0v-.3h0v-.7h0v-.2a.9.9,0,0,1,.1-.5v-.1c0-.2.1-.4.1-.6v-.2h0v-.2a1.85,1.85,0,0,1,.2-.7h0c.1-.2.1-.5.2-.7h0v-.1h0a11.78,11.78,0,0,1,1.1-1.9h0c0-.1.1-.1.1-.2l-.1.1a.1.1,0,0,1,.1-.1h0a5.72,5.72,0,0,1,.7-.8h0a6.47,6.47,0,0,1,.9-.8,3.81,3.81,0,0,1,1.3-.9,3.13,3.13,0,0,1,1-.5h0a.35.35,0,0,1,.2-.1h0a5.64,5.64,0,0,1,1.2-.4h0a5,5,0,0,1,1.2-.2,7.72,7.72,0,0,1,1.5-.2h0l.2-41.7C625.7,61.4,625.4.9,625.4.9Z"/><path class="cls-2" d="M33,80.7s53.3-.7,57-56l509.7.8s.2,52.8,57.6,55.3l-.9,224.8s-51.8-3-57,55.1H89.1s6.6-48.8-57.8-56.4Z"/><rect class="cls-2" x="116.3" y="24.7" width="456" height="336"/><path class="cls-3" d="M629.7,111.2l-6.8,1.1v-.6a12.09,12.09,0,0,0,2.9-1,14.19,14.19,0,0,0,1.8-1.1,6.25,6.25,0,0,0,1.8-2.2,6.37,6.37,0,0,0,.7-2.7,4.79,4.79,0,0,0-1.2-3.3,4.08,4.08,0,0,0-3.2-1.3,4.13,4.13,0,0,0-3.5,1.7,9.39,9.39,0,0,0-1.2,1.8c-.3.6-.9,1.7-1.5,3.1a13.32,13.32,0,0,1-1.2,2.4,14.56,14.56,0,0,0-.9,1.6,9.38,9.38,0,0,1-.9,1.2,7.57,7.57,0,0,1-6,2.5,8.31,8.31,0,0,1-4.4-1.2,9,9,0,0,1-3.1-3.3,10.39,10.39,0,0,1-1.1-4.6,16.89,16.89,0,0,1,.6-4.1,27.82,27.82,0,0,1,1.3-3.6l.2-.5,7.8-.6v.6a15.18,15.18,0,0,0-5.6,2.6c-2.2,1.6-3.2,3.4-3.2,5.6a6,6,0,0,0,.7,3,4.82,4.82,0,0,0,2,2,5.55,5.55,0,0,0,2.8.7,5.14,5.14,0,0,0,2.5-.6,8.72,8.72,0,0,0,2.2-1.8,17.89,17.89,0,0,0,2.1-3.5,37.81,37.81,0,0,1,2-3.9,14.16,14.16,0,0,1,1.8-2.2,6.66,6.66,0,0,1,2.1-1.3,7.59,7.59,0,0,1,6.2.6,7.46,7.46,0,0,1,2.7,2.6,6.86,6.86,0,0,1,1,3.7,11,11,0,0,1-.5,2.9l-.3,1.1a10.87,10.87,0,0,0-.4,2.6ZM604.9,97.7a18,18,0,0,0-1.5,3.1c.8-.8,1.5-1.4,2-1.9a9.21,9.21,0,0,1,2.3-1.4Zm-.8,12.2a7.34,7.34,0,0,0,5.9,3,7.51,7.51,0,0,0,2.6-.5,6.36,6.36,0,0,0,2.2-1.4,18.22,18.22,0,0,0,3-4.8c.9-1.9,1.5-3.1,1.8-3.7a6.43,6.43,0,0,1,1.3-1.7A5.39,5.39,0,0,1,625,99a5.28,5.28,0,0,1,1.3.1,5.64,5.64,0,0,1,1.2.4,7.69,7.69,0,0,1,1.5,1,6.67,6.67,0,0,0-5.3-2.6,6,6,0,0,0-4.8,2.1,13,13,0,0,0-1.7,2.6c-.1.1-.5,1.1-1.4,2.8a16.72,16.72,0,0,1-2.8,4.4,6.41,6.41,0,0,1-4.7,1.9,5.27,5.27,0,0,1-2.3-.4A6.22,6.22,0,0,1,604.1,109.9Z"/><path class="cls-3" d="M602.3,116.2h.6a3.89,3.89,0,0,0,1.7,2.8c.7.5,2,.7,3.9.7h15.6a15.13,15.13,0,0,0,2.6-.2,3.48,3.48,0,0,0,1.5-.7,4,4,0,0,0,1.5-2.6h.6v.3l-.2,2.2c0,.8-.1,1.5-.1,2.3a17.73,17.73,0,0,0,.1,2.2c.1.9.1,1.5.2,2l.2,1.8a13.4,13.4,0,0,1,.1,2,12.13,12.13,0,0,1-.5,3.4,7.22,7.22,0,0,1-1.4,2.6,6.2,6.2,0,0,1-2.2,1.7,6.71,6.71,0,0,1-2.8.6,6.36,6.36,0,0,1-4.1-1.4,7.56,7.56,0,0,1-2.4-4,9.53,9.53,0,0,1-1.3,3.8,7.19,7.19,0,0,1-2.7,2.5,7.9,7.9,0,0,1-3.8.9,7.45,7.45,0,0,1-3.1-.6,8.07,8.07,0,0,1-2.4-1.7,6.9,6.9,0,0,1-1.5-2.8,13.61,13.61,0,0,1-.5-3.6c0-.7.1-1.6.2-2.9.2-1.9.3-3.1.3-3.8.1-1.1.1-2.1.1-3a20.93,20.93,0,0,0-.1-2.4l-.1-1.9Zm.8,15.5a7.89,7.89,0,0,0,1.2,3,6,6,0,0,0,5.2,2.7,6.77,6.77,0,0,0,4.1-1.4,8.25,8.25,0,0,0,2.7-3.8,7.57,7.57,0,0,1-6.5,3.2C606.6,135.4,604.3,134.2,603.1,131.7Zm13.6-7.8h-8.6a5.56,5.56,0,0,0-3.8,1.1,6.48,6.48,0,0,0,.8,8.2,7.35,7.35,0,0,0,4.7,1.5,7.8,7.8,0,0,0,2.2-.3,6.39,6.39,0,0,0,1.9-.8c.6-.4,1-.8,1.5-1.2a4.61,4.61,0,0,0,.9-1.7,11.56,11.56,0,0,0,.5-3.8l-.1-3Zm-13.3-5.2c.1,1,.2,1.8.2,2.4a10.63,10.63,0,0,1-.2,2.3v.4l.5-.6a2.94,2.94,0,0,1,.8-.8,2,2,0,0,1,.9-.2h21.2a1.48,1.48,0,0,1,.7.1c.2,0,.3.1.5.2a6,6,0,0,1,.6.7l.8,1-.1-.7a22.63,22.63,0,0,1-.1-2.5c0-.8.1-1.7.2-2.7l-.8,1a5.72,5.72,0,0,1-.8.8,2,2,0,0,1-.9.2H605.7c-.4,0-.7,0-.9-.2a5.93,5.93,0,0,1-.8-.8Zm14.1,5.2v3a5.8,5.8,0,0,0,1.2,4,5.67,5.67,0,0,0,2.1,1.5,6.71,6.71,0,0,0,2.8.6,6.57,6.57,0,0,0,3.2-.7,5.85,5.85,0,0,0,2.2-1.9,5,5,0,0,0,.8-2.7,3.94,3.94,0,0,0-.5-2,3.53,3.53,0,0,0-1.4-1.3,7.15,7.15,0,0,0-2.9-.4l-7.5-.1Zm.4,7a8,8,0,0,0,2.3,3.5,5.33,5.33,0,0,0,3.7,1.2,5.67,5.67,0,0,0,3.7-1.2,6.43,6.43,0,0,0,2.1-3.6,7.3,7.3,0,0,1-6,2.9C621.1,133.6,619.1,132.7,617.9,130.9Z"/><path class="cls-3" d="M602.3,152.7h.6a4.1,4.1,0,0,0,1.7,2.9c.7.5,2,.7,3.9.7h15.6a15.57,15.57,0,0,0,2.7-.2,3.69,3.69,0,0,0,1.4-.7,4,4,0,0,0,1.5-2.7h.6v11.4h-.6a4.1,4.1,0,0,0-1.7-2.9,4.57,4.57,0,0,0-1.4-.5,14.73,14.73,0,0,0-2.5-.2h-6.8v12.8h6.8a15.57,15.57,0,0,0,2.7-.2,3.69,3.69,0,0,0,1.4-.7,4,4,0,0,0,1.5-2.7h.6v11.4h-.6a4.1,4.1,0,0,0-1.7-2.9,4.57,4.57,0,0,0-1.4-.5,14.73,14.73,0,0,0-2.5-.2H608.6a15.13,15.13,0,0,0-2.6.2,3.48,3.48,0,0,0-1.5.7,4,4,0,0,0-1.5,2.7h-.6V169.7h.6a4.1,4.1,0,0,0,1.7,2.9c.7.5,2,.7,3.9.7h7.7V160.5h-7.7a15.13,15.13,0,0,0-2.6.2,3.48,3.48,0,0,0-1.5.7,4,4,0,0,0-1.5,2.7h-.6l-.1-11.4Zm1.1,2.5v5.3l.6-.7a2.94,2.94,0,0,1,.8-.8,2,2,0,0,1,.9-.2h21a2,2,0,0,1,.9.2,2.94,2.94,0,0,1,.8.8l.9,1v-6l-.9,1a2.94,2.94,0,0,1-.8.8,2,2,0,0,1-.9.2H605.5c-.4,0-.7,0-.9-.2a2.94,2.94,0,0,1-.8-.8Zm0,17.1v5.3l.6-.7a2.94,2.94,0,0,1,.8-.8,2,2,0,0,1,.9-.2h21.2a2,2,0,0,1,.9.2,2.94,2.94,0,0,1,.8.8l.9,1v-6l-.9,1a2.94,2.94,0,0,1-.8.8,2,2,0,0,1-.9.2H605.7c-.4,0-.7,0-.9-.2a2.94,2.94,0,0,1-.8-.8Z"/><path class="cls-3" d="M612.7,199.1v-9.4l-2.6-1a8.84,8.84,0,0,0-3.2-.7,3.42,3.42,0,0,0-1.8.4,4,4,0,0,0-1.3,1.3,6.31,6.31,0,0,0-.8,2.2h-.6v-9.5h.6a7.14,7.14,0,0,0,2.3,3,19.75,19.75,0,0,0,5.1,2.6l20.5,8.1v.5l-22.2,8.8-.1.1c-.1,0-.1,0-.2.1s-.1.1-.2.1l-1.9.8A5.75,5.75,0,0,0,604,208a5.29,5.29,0,0,0-1.1,2.1h-.6V198.5h.6a7,7,0,0,0,.4,2.1,1.91,1.91,0,0,0,1.9,1.3,6.61,6.61,0,0,0,2.2-.6Zm-9.3-10.7a14.68,14.68,0,0,1,1.5-.9,3.34,3.34,0,0,1,1.5-.3h.5c-.8-.4-1.5-.8-2-1.1a7.07,7.07,0,0,1-1.5-1.5Zm22.2,6.3-17.8,7-.5.2a5.84,5.84,0,0,1-2,.6,3.46,3.46,0,0,1-2-.9v4.8a10.13,10.13,0,0,1,2-1.4,24.37,24.37,0,0,1,3.1-1.4l19.8-7.8Zm-12,4.1,11.1-4.4-11.1-4.3Z"/><path class="cls-3" d="M630,233.3l-7.3,2.1v-.6a16.88,16.88,0,0,0,3.3-1.9,11.41,11.41,0,0,0,2.3-2,7.55,7.55,0,0,0,1.3-2.3,7.66,7.66,0,0,0,.4-2.7,9,9,0,0,0-.9-4,9.92,9.92,0,0,0-2.6-3.2,12.69,12.69,0,0,0-4-2.1,15.72,15.72,0,0,0-4.9-.8,19,19,0,0,0-7.3,1.4,12.15,12.15,0,0,0-5.2,3.9,9.16,9.16,0,0,0-1.9,5.5,8.6,8.6,0,0,0,.9,3.9,9.92,9.92,0,0,0,2.6,3.2,17.4,17.4,0,0,0,4.3,2.5v.8a14.51,14.51,0,0,1-6.9-4.6,12,12,0,0,1-2.3-7.5,11.77,11.77,0,0,1,3.2-8.6,14.79,14.79,0,0,1,3.1-2.5,11.62,11.62,0,0,1,3.8-1.5,15.35,15.35,0,0,1,4.3-.5,16,16,0,0,1,7.5,1.8,13,13,0,0,1,5.3,5.1,13.5,13.5,0,0,1,1.9,7.1,28.35,28.35,0,0,1-.5,4.3,11.57,11.57,0,0,0-.4,2.7C629.9,232.8,630,233,630,233.3Zm-27.5-9.4a20.28,20.28,0,0,1,2-4.2,13.21,13.21,0,0,1,7.4-5,21,21,0,0,1,5.1-.6,20.52,20.52,0,0,1,3.7.3,11.47,11.47,0,0,1,3.1,1.1,12.59,12.59,0,0,1,2.8,1.9,23.5,23.5,0,0,1,2.5,2.8,13.56,13.56,0,0,0-2.3-3.4,14.25,14.25,0,0,0-3-2.5,11.45,11.45,0,0,0-3.6-1.5,18.41,18.41,0,0,0-4.1-.5,16.11,16.11,0,0,0-4.4.6,11.93,11.93,0,0,0-3.8,1.7,10.84,10.84,0,0,0-3,2.6,11.37,11.37,0,0,0-1.8,3.2A14.84,14.84,0,0,0,602.5,223.9Z"/><path class="cls-3" d="M617.4,249.3l-3.6-3.3h-5.2a15.13,15.13,0,0,0-2.6.2,3.48,3.48,0,0,0-1.5.7,4.75,4.75,0,0,0-1.5,2.9h-.6V238.2h.6a4.1,4.1,0,0,0,1.7,2.9c.7.5,2,.7,3.9.7h15.5a15.57,15.57,0,0,0,2.7-.2,3.69,3.69,0,0,0,1.4-.7,4,4,0,0,0,1.5-2.7h.6v11.4h-.6a4.1,4.1,0,0,0-1.7-2.9,4.57,4.57,0,0,0-1.4-.5,14.73,14.73,0,0,0-2.5-.2h-9.2l7.8,7.2a14.94,14.94,0,0,0,2.4,1.9,3.29,3.29,0,0,0,1.8.5,2.24,2.24,0,0,0,1.9-.8,3.67,3.67,0,0,0,.9-2h.6v10.1h-.6c-.7-2.1-2.4-4.5-5.2-7.1l-1.9-1.8-.4-.4-1.4-1.2-12.7,7.5c-.1.1-.2.1-.3.2s-.2.1-.3.2l-2.2,1.4a7.64,7.64,0,0,0-1.8,1.8,4.66,4.66,0,0,0-.6,2h-.6V253.6h.6a3.22,3.22,0,0,0,.5,2,1.49,1.49,0,0,0,1.3.6,3.59,3.59,0,0,0,1.1-.2,7,7,0,0,0,1.6-.9Zm-14-8.5v5.3l.6-.7a2.94,2.94,0,0,1,.8-.8,2,2,0,0,1,.9-.2h21a1.86,1.86,0,0,1,1.8,1l.9,1v-6l-.9,1a2.94,2.94,0,0,1-.8.8,2,2,0,0,1-.9.2H605.6c-.4,0-.7,0-.9-.2a2.94,2.94,0,0,1-.8-.8Zm14.5,9-9.7,5.8a10.76,10.76,0,0,1-2.1,1.1,6.15,6.15,0,0,1-1.1.3,2.08,2.08,0,0,1-1.5-.7v5.3a4.5,4.5,0,0,1,1.6-1.5l1.6-1.1.8-.5,12.1-7.1Zm8.5,6.3a34,34,0,0,1,3.2,3.4V255a3.17,3.17,0,0,1-2.5,1.2A2.64,2.64,0,0,1,626.4,256.1Z"/><path class="cls-3" d="M629.7,281.5l-6.8,1.1V282a12.09,12.09,0,0,0,2.9-1,14.19,14.19,0,0,0,1.8-1.1,6.25,6.25,0,0,0,1.8-2.2,6.37,6.37,0,0,0,.7-2.7,4.79,4.79,0,0,0-1.2-3.3,4.08,4.08,0,0,0-3.2-1.3,4.13,4.13,0,0,0-3.5,1.7,9.39,9.39,0,0,0-1.2,1.8c-.3.6-.9,1.7-1.5,3.1a13.32,13.32,0,0,1-1.2,2.4,14.56,14.56,0,0,0-.9,1.6,9.38,9.38,0,0,1-.9,1.2,7.57,7.57,0,0,1-6,2.5,8.31,8.31,0,0,1-4.4-1.2,9,9,0,0,1-3.1-3.3,10.39,10.39,0,0,1-1.1-4.6,16.89,16.89,0,0,1,.6-4.1,27.82,27.82,0,0,1,1.3-3.6l.2-.5,7.8-.5v.5a15.18,15.18,0,0,0-5.6,2.6c-2.2,1.6-3.2,3.4-3.2,5.6a6,6,0,0,0,.7,3,4.82,4.82,0,0,0,2,2,5.55,5.55,0,0,0,2.8.7,5.14,5.14,0,0,0,2.5-.6,8.72,8.72,0,0,0,2.2-1.8,17.89,17.89,0,0,0,2.1-3.5,37.81,37.81,0,0,1,2-3.9,14.16,14.16,0,0,1,1.8-2.2,6.66,6.66,0,0,1,2.1-1.3,7.59,7.59,0,0,1,6.2.6,7.46,7.46,0,0,1,2.7,2.6,6.86,6.86,0,0,1,1,3.7,11,11,0,0,1-.5,2.9l-.3,1.1a10.87,10.87,0,0,0-.4,2.6Zm-24.8-13.6a18,18,0,0,0-1.5,3.1c.8-.8,1.5-1.4,2-1.9a9.21,9.21,0,0,1,2.3-1.4Zm-.8,12.2a7.34,7.34,0,0,0,5.9,3,7.51,7.51,0,0,0,2.6-.5,6.36,6.36,0,0,0,2.2-1.4,18.22,18.22,0,0,0,3-4.8c.9-1.9,1.5-3.1,1.8-3.7a6.43,6.43,0,0,1,1.3-1.7,5.39,5.39,0,0,1,4.1-1.8,5.28,5.28,0,0,1,1.3.1,5.64,5.64,0,0,1,1.2.4,7.69,7.69,0,0,1,1.5,1,6.67,6.67,0,0,0-5.3-2.6,6,6,0,0,0-4.8,2.1,13,13,0,0,0-1.7,2.6c-.1.1-.5,1.1-1.4,2.8A16.72,16.72,0,0,1,613,280a6.41,6.41,0,0,1-4.7,1.9,5.27,5.27,0,0,1-2.3-.4A6.22,6.22,0,0,1,604.1,280.1Z"/><path class="cls-3" d="M61.3,271.2l6.8-1.1v.6a19,19,0,0,0-2.9,1,7.84,7.84,0,0,0-1.8,1.1,5.78,5.78,0,0,0-1.8,2.3,6.81,6.81,0,0,0-.7,2.8,4.46,4.46,0,0,0,1.2,3.3,4,4,0,0,0,3.1,1.3,4.4,4.4,0,0,0,3.5-1.7,7.61,7.61,0,0,0,1.2-1.9,30.91,30.91,0,0,0,1.5-3.1c.4-1,.8-1.8,1.1-2.4a11.42,11.42,0,0,1,.9-1.6l.9-1.2a7.64,7.64,0,0,1,6-2.6,8.31,8.31,0,0,1,4.4,1.2,9,9,0,0,1,3.1,3.3,10.49,10.49,0,0,1,1.1,4.7,16.24,16.24,0,0,1-.6,4.1,27.82,27.82,0,0,1-1.3,3.6l-.2.5-7.8.5v-.5a15.18,15.18,0,0,0,5.6-2.6,7.08,7.08,0,0,0,3.2-5.7,6,6,0,0,0-.7-3,5.24,5.24,0,0,0-1.9-2,5.3,5.3,0,0,0-2.8-.7,5.83,5.83,0,0,0-2.6.6,5.38,5.38,0,0,0-2.1,1.9,17.89,17.89,0,0,0-2.1,3.5c-1.1,2.2-1.7,3.5-2,4a14.16,14.16,0,0,1-1.8,2.2,6.66,6.66,0,0,1-2.1,1.3,6.57,6.57,0,0,1-2.5.4,6.63,6.63,0,0,1-3.7-1,6.18,6.18,0,0,1-2.6-2.7,8.2,8.2,0,0,1-1-3.7,11,11,0,0,1,.5-2.9l.3-1.1a10.87,10.87,0,0,0,.4-2.6l.2-.1Zm25.6,1.4a7.34,7.34,0,0,0-5.9-3,7.51,7.51,0,0,0-2.6.5,5.41,5.41,0,0,0-2.2,1.5,18.22,18.22,0,0,0-3,4.8c-.9,1.9-1.5,3.1-1.8,3.7a6.43,6.43,0,0,1-1.3,1.7,5.48,5.48,0,0,1-4.1,1.9,5.28,5.28,0,0,1-1.3-.1,5.64,5.64,0,0,1-1.2-.4,7.69,7.69,0,0,1-1.5-1,6.4,6.4,0,0,0,5.3,2.6,6,6,0,0,0,4.8-2.1,16.68,16.68,0,0,0,1.7-2.6c.1-.1.5-1.1,1.4-2.8a16.72,16.72,0,0,1,2.8-4.4,6.41,6.41,0,0,1,4.7-1.9,5.56,5.56,0,0,1,2.3.4A3.61,3.61,0,0,1,86.9,272.6Zm-.8,12.3a22.58,22.58,0,0,0,1.5-3.1c-.8.8-1.5,1.5-2,1.9a23.32,23.32,0,0,1-2.3,1.5Z"/><path class="cls-3" d="M88.7,266.2h-.6a4.1,4.1,0,0,0-1.7-2.9c-.7-.5-2-.7-3.9-.7H67a15.13,15.13,0,0,0-2.6.2,3.48,3.48,0,0,0-1.5.7,4,4,0,0,0-1.5,2.7h-.6v-.3l.2-2.2a18.48,18.48,0,0,0,.1-2.3,20.15,20.15,0,0,0-.1-2.3c-.1-.9-.1-1.5-.2-2l-.2-1.9a14.77,14.77,0,0,1-.1-2.1,11.59,11.59,0,0,1,.5-3.4,7.22,7.22,0,0,1,1.4-2.6,6.2,6.2,0,0,1,2.2-1.7,6.71,6.71,0,0,1,2.8-.6,6.36,6.36,0,0,1,4.1,1.4,7.56,7.56,0,0,1,2.4,4,9,9,0,0,1,1.3-3.8,7.46,7.46,0,0,1,2.7-2.6,7.9,7.9,0,0,1,3.8-.9,7.79,7.79,0,0,1,3.1.6,7.15,7.15,0,0,1,3.9,4.6,13.61,13.61,0,0,1,.5,3.6c0,.7-.1,1.7-.2,2.9-.2,1.9-.3,3.1-.3,3.8-.1,1.1-.1,2.1-.1,3.1a20.93,20.93,0,0,0,.1,2.4l.1,1.9Zm-15.2-7.8v-3a6.26,6.26,0,0,0-1.2-4.1,5.67,5.67,0,0,0-2.1-1.5,6.71,6.71,0,0,0-2.8-.6,6.57,6.57,0,0,0-3.2.7,5.85,5.85,0,0,0-2.2,1.9,5,5,0,0,0-.8,2.7,4.65,4.65,0,0,0,.5,2.1,3.76,3.76,0,0,0,1.4,1.4,7.15,7.15,0,0,0,2.9.4Zm-.3-7.1a7.42,7.42,0,0,0-2.3-3.5,5.86,5.86,0,0,0-3.7-1.2,5.67,5.67,0,0,0-3.7,1.2,6.43,6.43,0,0,0-2.1,3.6,7,7,0,0,1,6-2.9A7.11,7.11,0,0,1,73.2,251.3Zm14.4,12.3c-.1-1-.2-1.8-.2-2.4s.1-1.4.2-2.3v-.4l-.6.6a2.94,2.94,0,0,1-.8.8,2,2,0,0,1-.9.2H64.1a1.48,1.48,0,0,1-.7-.1c-.2-.1-.3-.1-.5-.2s-.3-.3-.6-.7l-.8-1,.1.7a23.55,23.55,0,0,1,.1,2.5c0,.8-.1,1.7-.2,2.7l.8-1a5.72,5.72,0,0,1,.8-.8,2,2,0,0,1,.9-.2H85.4a2,2,0,0,1,.9.2,2.94,2.94,0,0,1,.8.8Zm-13.3-5.2h8.6a5.56,5.56,0,0,0,3.8-1.1c.8-.7,1.1-2,1.1-3.7a5.62,5.62,0,0,0-1.9-4.6,7.35,7.35,0,0,0-4.7-1.5,7.8,7.8,0,0,0-2.2.3,6.39,6.39,0,0,0-1.9.8,5.84,5.84,0,0,0-1.4,1.3,4.61,4.61,0,0,0-.9,1.7,12,12,0,0,0-.5,3.8v3Zm13.6-7.9a6.77,6.77,0,0,0-1.2-3,6,6,0,0,0-2.2-2,5.92,5.92,0,0,0-2.9-.7,6.77,6.77,0,0,0-4.1,1.4,8.06,8.06,0,0,0-2.7,3.9,7.57,7.57,0,0,1,6.5-3.2Q86.1,246.75,87.9,250.5Z"/><path class="cls-3" d="M88.7,229.3h-.6a4.1,4.1,0,0,0-1.7-2.9c-.7-.5-2-.7-3.9-.7H67a16.54,16.54,0,0,0-2.7.2,3.09,3.09,0,0,0-1.4.7,4,4,0,0,0-1.5,2.7h-.6V217.8h.6a4.1,4.1,0,0,0,1.7,2.9,4.57,4.57,0,0,0,1.4.5,14.73,14.73,0,0,0,2.5.2h6.9v-13H67a16.54,16.54,0,0,0-2.7.2,3.09,3.09,0,0,0-1.4.7,4,4,0,0,0-1.5,2.7h-.6V200.5h.6a4.1,4.1,0,0,0,1.7,2.9,4.57,4.57,0,0,0,1.4.5,14.73,14.73,0,0,0,2.5.2H82.5a15.13,15.13,0,0,0,2.6-.2,3.48,3.48,0,0,0,1.5-.7,4,4,0,0,0,1.5-2.7h.6v11.6h-.6a4.1,4.1,0,0,0-1.7-2.9c-.7-.5-2-.7-3.9-.7H74.8v13h7.7a15.13,15.13,0,0,0,2.6-.2,3.48,3.48,0,0,0,1.5-.7,4,4,0,0,0,1.5-2.7h.6v11.4Zm-1.1-19.8v-5.4l-.6.7a2.94,2.94,0,0,1-.8.8,2,2,0,0,1-.9.2H64a2,2,0,0,1-.9-.2,2.94,2.94,0,0,1-.8-.8l-.9-1v6l.9-1a2.94,2.94,0,0,1,.8-.8,2,2,0,0,1,.9-.2H85.4a2,2,0,0,1,.9.2,2.94,2.94,0,0,1,.8.8Zm0,17.2v-5.4l-.6.7a2.94,2.94,0,0,1-.8.8,2,2,0,0,1-.9.2H64.1a2,2,0,0,1-.9-.2,2.94,2.94,0,0,1-.8-.8l-.9-1v6l.9-1a2.94,2.94,0,0,1,.8-.8,2,2,0,0,1,.9-.2H85.5c.4,0,.7,0,.9.2a2.94,2.94,0,0,1,.8.8Z"/><path class="cls-3" d="M78.3,182.3v9.5l2.6,1a8.84,8.84,0,0,0,3.2.7,3.42,3.42,0,0,0,1.8-.4,4,4,0,0,0,1.3-1.3,6.18,6.18,0,0,0,.8-2.3h.6v9.6H88a6.58,6.58,0,0,0-2.3-3,23.54,23.54,0,0,0-5.1-2.6l-20.5-8.2v-.5l22.2-8.9a.1.1,0,0,0,.1-.1c.1,0,.1,0,.2-.1s.1-.1.2-.1l1.9-.8a7,7,0,0,0,2.3-1.5,5.29,5.29,0,0,0,1.1-2.1h.6V183h-.6a7,7,0,0,0-.4-2.1,1.91,1.91,0,0,0-1.9-1.3,7.26,7.26,0,0,0-2.2.6Zm-12.9,4.4,17.8-7.1.4-.2a5.84,5.84,0,0,1,2-.6,3,3,0,0,1,1.9.9v-4.9a10.13,10.13,0,0,1-2,1.4,24.37,24.37,0,0,1-3.1,1.4l-19.8,7.9Zm12-4-11.1,4.5,11.1,4.4Zm10.2,10.5a14.68,14.68,0,0,1-1.5.9,3.19,3.19,0,0,1-1.4.3h-.6c.8.4,1.5.8,2,1.1a7.07,7.07,0,0,1,1.5,1.5Z"/><path class="cls-3" d="M61,147.8l7.3-2.2v.6a16.88,16.88,0,0,0-3.3,1.9,16,16,0,0,0-2.3,2.1,7.55,7.55,0,0,0-1.3,2.3,7.89,7.89,0,0,0-.4,2.8,9.46,9.46,0,0,0,.9,4.1,10.46,10.46,0,0,0,6.6,5.4,16.22,16.22,0,0,0,4.9.8,19,19,0,0,0,7.3-1.4,13,13,0,0,0,5.2-3.9,9.39,9.39,0,0,0,1.9-5.5,8.6,8.6,0,0,0-.9-3.9,9.92,9.92,0,0,0-2.6-3.2,14.76,14.76,0,0,0-4.3-2.5v-.8a14,14,0,0,1,6.9,4.7,12.11,12.11,0,0,1,2.4,7.6,12.44,12.44,0,0,1-3.2,8.7,14.79,14.79,0,0,1-3.1,2.5,12.57,12.57,0,0,1-3.8,1.5,15.35,15.35,0,0,1-4.3.5,14.94,14.94,0,0,1-7.5-1.9,13.69,13.69,0,0,1-5.3-5.1,13.85,13.85,0,0,1-1.9-7.2,29.43,29.43,0,0,1,.5-4.4,12.3,12.3,0,0,0,.4-2.7A2.2,2.2,0,0,1,61,147.8Zm27.5,9.5a14.39,14.39,0,0,1-5.3,7.4,11.53,11.53,0,0,1-4.2,1.9,20.93,20.93,0,0,1-5.1.7,20.52,20.52,0,0,1-3.7-.3,11.47,11.47,0,0,1-3.1-1.1,12.59,12.59,0,0,1-2.8-1.9,17.15,17.15,0,0,1-2.5-2.8,13.56,13.56,0,0,0,2.3,3.4,14.25,14.25,0,0,0,3,2.5,11.45,11.45,0,0,0,3.6,1.5,18.41,18.41,0,0,0,4.1.5,16.11,16.11,0,0,0,4.4-.6,14.64,14.64,0,0,0,3.8-1.7,10.4,10.4,0,0,0,2.9-2.6,11.37,11.37,0,0,0,1.8-3.2A8.74,8.74,0,0,0,88.5,157.3Z"/><path class="cls-3" d="M73.6,131.6l3.6,3.3h5.2a14.23,14.23,0,0,0,2.6-.2,2.75,2.75,0,0,0,1.5-.8A4.75,4.75,0,0,0,88,131h.6v11.7H88a4.1,4.1,0,0,0-1.7-2.9c-.7-.5-2-.7-3.9-.7H66.9a16.54,16.54,0,0,0-2.7.2,3.09,3.09,0,0,0-1.4.7,4,4,0,0,0-1.5,2.7h-.6V131.2h.6a4.1,4.1,0,0,0,1.7,2.9,4.57,4.57,0,0,0,1.4.5,14.73,14.73,0,0,0,2.5.2h9.2l-7.9-7.2a14.94,14.94,0,0,0-2.4-1.9,3.29,3.29,0,0,0-1.8-.5,2.24,2.24,0,0,0-1.9.8,3.37,3.37,0,0,0-.9,2h-.6V117.8h.6c.7,2.1,2.4,4.5,5.2,7.2l1.9,1.8.4.4,1.4,1.2,12.7-7.6c.1-.1.2-.1.3-.2s.2-.1.3-.2l2.2-1.4a7.64,7.64,0,0,0,1.8-1.8,3.7,3.7,0,0,0,.6-2.1h.6v12H88a4.08,4.08,0,0,0-.5-2,1.49,1.49,0,0,0-1.3-.6,3.59,3.59,0,0,0-1.1.2,7,7,0,0,0-1.6.9Zm-9-6.9a34,34,0,0,1-3.2-3.4v4.6a3.17,3.17,0,0,1,2.5-1.2C64,124.6,64.2,124.6,64.6,124.7Zm23,15.5v-5.4l-.6.7a2.94,2.94,0,0,1-.8.8,2,2,0,0,1-.9.2H64.1a2,2,0,0,1-.9-.2,2.94,2.94,0,0,1-.8-.8l-.9-1v6l.9-1a2.94,2.94,0,0,1,.8-.8,2,2,0,0,1,.9-.2H85.5c.4,0,.7,0,.9.2a2.94,2.94,0,0,1,.8.8Zm-14.5-9.1,9.7-5.8q1.5-.9,2.1-1.2a2.61,2.61,0,0,1,1.1-.3,1.93,1.93,0,0,1,1.5.7v-5.3a8,8,0,0,1-1.6,1.6l-1.6,1.1-.8.5-12.1,7.2Z"/><path class="cls-3" d="M61.3,99l6.8-1.1v.6a19,19,0,0,0-2.9,1,7.84,7.84,0,0,0-1.8,1.1,5.78,5.78,0,0,0-1.8,2.3,6.81,6.81,0,0,0-.7,2.8,4.46,4.46,0,0,0,1.2,3.3,4,4,0,0,0,3.1,1.3,4.4,4.4,0,0,0,3.5-1.7,7.61,7.61,0,0,0,1.2-1.9,30.91,30.91,0,0,0,1.5-3.1c.4-1,.8-1.8,1.1-2.4a11.42,11.42,0,0,1,.9-1.6l.9-1.2a7.64,7.64,0,0,1,6-2.6A8.31,8.31,0,0,1,84.7,97a9,9,0,0,1,3.1,3.3,10.49,10.49,0,0,1,1.1,4.7,16.24,16.24,0,0,1-.6,4.1,27.82,27.82,0,0,1-1.3,3.6l-.2.5-7.8.5v-.5a15.18,15.18,0,0,0,5.6-2.6,7.08,7.08,0,0,0,3.2-5.7,6,6,0,0,0-.7-3,5.24,5.24,0,0,0-1.9-2,5.3,5.3,0,0,0-2.8-.7,5.83,5.83,0,0,0-2.6.6,5.38,5.38,0,0,0-2.1,1.9,17.89,17.89,0,0,0-2.1,3.5c-1.1,2.2-1.7,3.5-2,4a14.16,14.16,0,0,1-1.8,2.2,6.66,6.66,0,0,1-2.1,1.3,6.57,6.57,0,0,1-2.5.4,6.63,6.63,0,0,1-3.7-1,6.18,6.18,0,0,1-2.6-2.7,8.2,8.2,0,0,1-1-3.7,11,11,0,0,1,.5-2.9l.3-1.1a10.87,10.87,0,0,0,.4-2.6l.2-.1Zm25.6,1.4a7.34,7.34,0,0,0-5.9-3,7.51,7.51,0,0,0-2.6.5,5.41,5.41,0,0,0-2.2,1.5,18.22,18.22,0,0,0-3,4.8c-.9,1.9-1.5,3.1-1.8,3.7a6.43,6.43,0,0,1-1.3,1.7,5.48,5.48,0,0,1-4.1,1.9,5.28,5.28,0,0,1-1.3-.1,5.64,5.64,0,0,1-1.2-.4,7.69,7.69,0,0,1-1.5-1,6.4,6.4,0,0,0,5.3,2.6,6,6,0,0,0,4.8-2.1,16.68,16.68,0,0,0,1.7-2.6c.1-.1.5-1.1,1.4-2.8a16.72,16.72,0,0,1,2.8-4.4,6.41,6.41,0,0,1,4.7-1.9,5.56,5.56,0,0,1,2.3.4A3.61,3.61,0,0,1,86.9,100.4Zm-.8,12.3a22.58,22.58,0,0,0,1.5-3.1c-.8.8-1.5,1.5-2,1.9a23.32,23.32,0,0,1-2.3,1.5Z"/></g></g></svg>